<?xml version="1.0" encoding="UTF-8" standalone="no"?>
<!-- Created with Inkscape (http://www.inkscape.org/) -->

<svg
   xmlns:dc="http://purl.org/dc/elements/1.1/"
   xmlns:cc="http://creativecommons.org/ns#"
   xmlns:rdf="http://www.w3.org/1999/02/22-rdf-syntax-ns#"
   xmlns:svg="http://www.w3.org/2000/svg"
   xmlns="http://www.w3.org/2000/svg"
   xmlns:sodipodi="http://sodipodi.sourceforge.net/DTD/sodipodi-0.dtd"
   xmlns:inkscape="http://www.inkscape.org/namespaces/inkscape"
   version="1.1"
   id="svg815"
   width="608"
   height="632"
   viewBox="0 0 608 632"
   sodipodi:docname="chickfila2.svg"
   inkscape:version="0.92.2 (5c3e80d, 2017-08-06)"
   inkscape:export-filename="C:\Users\Nilaja\Desktop\Icons\Restaurants\chickfila2.png"
   inkscape:export-xdpi="96"
   inkscape:export-ydpi="96">
  <metadata
     id="metadata821">
    <rdf:RDF>
      <cc:Work
         rdf:about="">
        <dc:format>image/svg+xml</dc:format>
        <dc:type
           rdf:resource="http://purl.org/dc/dcmitype/StillImage" />
        <dc:title></dc:title>
      </cc:Work>
    </rdf:RDF>
  </metadata>
  <defs
     id="defs819">
    <inkscape:path-effect
       effect="bspline"
       id="path-effect843"
       is_visible="true"
       weight="33.333333"
       steps="2"
       helper_size="0"
       apply_no_weight="true"
       apply_with_weight="true"
       only_selected="false" />
    <inkscape:path-effect
       effect="bspline"
       id="path-effect839"
       is_visible="true"
       weight="33.333333"
       steps="2"
       helper_size="0"
       apply_no_weight="true"
       apply_with_weight="true"
       only_selected="false" />
    <inkscape:path-effect
       effect="bspline"
       id="path-effect835"
       is_visible="true"
       weight="33.333333"
       steps="2"
       helper_size="0"
       apply_no_weight="true"
       apply_with_weight="true"
       only_selected="false" />
    <inkscape:path-effect
       effect="bspline"
       id="path-effect831"
       is_visible="true"
       weight="33.333333"
       steps="2"
       helper_size="0"
       apply_no_weight="true"
       apply_with_weight="true"
       only_selected="false" />
    <inkscape:path-effect
       effect="bspline"
       id="path-effect827"
       is_visible="true"
       weight="33.333333"
       steps="2"
       helper_size="0"
       apply_no_weight="true"
       apply_with_weight="true"
       only_selected="false" />
  </defs>
  <sodipodi:namedview
     pagecolor="#ffffff"
     bordercolor="#666666"
     borderopacity="1"
     objecttolerance="10"
     gridtolerance="10"
     guidetolerance="10"
     inkscape:pageopacity="0"
     inkscape:pageshadow="2"
     inkscape:window-width="1366"
     inkscape:window-height="715"
     id="namedview817"
     showgrid="false"
     inkscape:zoom="0.43196203"
     inkscape:cx="231.43784"
     inkscape:cy="559.54008"
     inkscape:window-x="-8"
     inkscape:window-y="22"
     inkscape:window-maximized="1"
     inkscape:current-layer="svg815" />
  <path
     style="fill:none;fill-rule:evenodd;stroke:#000000;stroke-width:1px;stroke-linecap:butt;stroke-linejoin:miter;stroke-opacity:1"
     d="m 38.19783,174.59032 c -2.89362,2.70037 -4.629648,13.59877 -4.292176,23.6321 0.337473,10.03333 2.748442,19.19501 5.160097,28.06992 2.411655,8.87491 4.822949,17.45912 9.985277,26.46201 5.162328,9.00288 13.454388,18.87438 21.557258,25.53022 8.10287,6.65584 16.205356,10.32125 15.530335,11.47872 -0.675022,1.15747 -10.126674,-0.19277 -18.326801,2.94202 -8.200127,3.13478 -13.507975,8.95867 -17.143576,14.32249 -3.6356,5.36382 -2.824532,6.17488 -1.763482,7.23593 4.726496,1.25397 9.453679,2.50812 14.614025,4.91959 5.160347,2.41147 10.754979,5.98046 13.744965,8.34328 2.989986,2.36282 3.375853,3.52042 0.571546,4.70831 -2.804306,1.18788 -9.155264,2.47792 -16.389689,5.6126 -7.234425,3.13469 -15.529902,8.15056 -17.073594,11.76824 -1.543692,3.61767 3.66509,5.83623 8.006167,7.71737 4.341078,1.88114 7.812757,3.42411 12.056372,6.89615 4.243614,3.47204 9.260164,8.87448 14.4689,16.20526 5.208736,7.33079 10.610408,16.5908 16.398077,25.65816 5.787669,9.06735 11.960849,17.94129 20.063669,26.23702 8.10283,8.29573 18.13434,16.01228 27.97323,22.18568 9.8389,6.17339 19.48494,10.80349 24.30769,13.11841 4.82274,2.31492 4.82274,2.31492 7.9094,5.78741 3.08666,3.4725 9.14777,10.29125 15.43363,15.5949 6.28585,5.30365 12.34696,8.71302 16.5912,11.221 4.24424,2.50798 6.55907,4.0512 12.15346,6.17319 5.59439,2.12198 14.46952,4.82311 22.9577,6.94513 8.48818,2.12202 16.59132,3.66547 23.92194,4.82292 7.33062,1.15745 13.89047,1.9292 17.60371,2.74905 3.71324,0.81985 4.57912,1.68573 5.30441,6.8592 0.7253,5.17346 1.30249,14.60091 -1.30166,19.37663 -2.60415,4.77571 -8.38954,4.87214 -14.51625,7.42855 -6.1267,2.55641 -12.58777,7.57097 -17.55586,12.58711 -4.96809,5.01615 -8.44005,10.0312 -10.36963,15.04768 -1.92958,5.01648 -2.31533,10.03121 -1.25355,12.53968 1.06178,2.50848 3.41363,2.50848 8.94559,1.02286 5.53195,-1.48562 12.55926,-3.97089 19.79767,-6.40054 7.23841,-2.42966 12.831,-4.17161 18.66666,-4.99131 5.83566,-0.8197 11.62321,-0.62678 16.54264,-0.53033 4.91943,0.0964 8.97071,0.0964 12.87722,0.38588 3.90651,0.28944 7.51271,0.84425 11.98274,1.74833 4.47003,0.90409 9.09337,2.01368 14.49508,3.31588 5.40171,1.3022 11.38217,2.74909 17.55546,4.67828 6.17329,1.9292 12.5396,4.34068 15.33667,1.49527 2.79706,-2.84541 2.02526,-10.94935 -1.74205,-18.18278 -3.76731,-7.23344 -10.12268,-13.21497 -16.29588,-17.65201 -6.17319,-4.43703 -11.96071,-7.13788 -16.63887,-8.63307 -4.67817,-1.49519 -8.24688,-1.78455 -9.40477,-6.41518 -1.15789,-4.63064 0.0961,-13.60132 0.3372,-18.47189 0.24113,-4.87058 -0.53065,-5.64236 5.25745,-6.79993 5.7881,-1.15758 18.13486,-2.70092 32.41013,-6.36626 14.27526,-3.66533 30.48185,-9.4534 45.33604,-16.20537 14.85419,-6.75197 28.35946,-14.46928 41.9606,-26.31849 13.60113,-11.84921 27.68309,-28.27816 37.26842,-43.92516 9.58534,-15.647 15.1077,-31.42517 18.00126,-47.05084 2.89356,-15.62567 3.27943,-31.44619 2.12192,-46.30032 -1.15751,-14.85413 -3.85854,-28.74514 -6.33339,-42.06197 -2.47485,-13.31684 -4.85603,-26.81018 -6.39932,-38.19212 -1.54329,-11.38193 -2.31501,-21.02842 -2.12627,-29.68119 0.18874,-8.65276 1.35485,-16.42681 3.66987,-23.37145 2.31501,-6.94464 5.78804,-13.11892 9.06758,-17.36272 3.27954,-4.2438 6.36683,-6.55927 10.12797,-8.68086 3.76115,-2.1216 8.19988,-4.05148 15.67513,-3.03829 7.47524,1.01319 17.98928,4.96801 22.81192,6.41474 4.82264,1.44673 3.95451,0.38568 3.37578,-4.05187 -0.57873,-4.43755 -0.86811,-12.25073 -3.85839,-20.25646 -2.99029,-8.00572 -8.68138,-16.20474 -13.16446,-20.17137 -4.48309,-3.96663 -8.14875,-3.66942 -9.77736,-8.35071 -1.62862,-4.6813 -1.17281,-13.34163 -2.62561,-21.12253 -1.45279,-7.780895 -5.01022,-14.500468 -6.93929,-17.9728 -1.92907,-3.472332 -2.31493,-3.858191 0.33822,-6.559515 2.65316,-2.701323 8.34425,-7.717197 10.03165,-13.938654 1.68741,-6.221456 -0.62761,-13.648807 -4.48583,-19.677152 -3.85823,-6.028344 -9.25987,-10.658323 -15.38454,-11.14098 -6.12468,-0.482657 -12.97204,3.182127 -17.02467,1.831405 -4.05264,-1.350721 -5.3064,-7.715949 -8.97159,-12.586652 -3.6652,-4.870703 -9.74212,-8.24677 -15.28825,-9.742016 -5.54612,-1.495246 -10.56182,-1.109423 -15.57824,1.398568 -5.01642,2.507992 -10.03123,7.137043 -13.07012,11.043843 -3.03889,3.9068 -4.09919,7.08771 -8.00771,7.136666 -3.90851,0.04896 -10.65619,-3.035698 -17.31265,-1.589155 -6.65646,1.446543 -13.21311,7.424674 -16.6387,14.130066 -3.42558,6.705393 -3.71489,14.131048 -2.31609,20.1605 1.39879,6.029452 4.48501,10.658781 7.08979,13.408104 2.60478,2.749324 4.72678,3.617416 2.0744,7.716324 -2.65238,4.098908 -10.07973,11.429808 -15.57823,21.220308 -5.49849,9.79049 -9.06748,22.0408 -13.30518,35.80871 -4.23771,13.76791 -9.3626,29.73392 -14.57172,43.43217 -5.20911,13.69825 -10.6104,25.46535 -16.01223,34.87052 -5.40183,9.40516 -10.71193,16.32725 -18.55864,24.17418 -7.84671,7.84693 -17.7082,16.09644 -31.40699,20.00394 -13.69878,3.9075 -31.0583,3.32885 -47.69865,2.36422 -16.64035,-0.96463 -32.5541,-2.31489 -50.11077,-5.25701 -17.55667,-2.94213 -36.75025,-7.47529 -55.41587,-14.03472 C 136.97172,242.88391 118.83848,234.29956 104.46561,226.245 90.092736,218.19044 79.48249,210.66681 70.897526,203.52876 62.312561,196.39071 55.753403,189.63863 50.448049,183.51335 45.142695,177.38806 41.091451,171.88994 38.19783,174.59032 Z"
     id="path829"
     inkscape:connector-curvature="0"
     inkscape:path-effect="#path-effect831"
     inkscape:original-d="m 37.040294,166.39194 c -1.735265,10.89888 -3.471292,21.79728 -5.208792,32.69964 2.412805,9.16386 4.823775,18.32554 7.234432,27.49083 2.412657,8.58451 4.823954,17.16872 7.234432,25.75459 8.104105,9.25969 16.206129,19.29082 24.307693,28.93773 8.103642,3.66448 16.206127,7.32989 24.307692,10.99633 -9.451992,-1.35142 -18.903643,-2.70166 -28.358974,-4.05127 -6.945039,7.62034 -12.252884,13.44423 -20.835165,22.8608 1.312029,1.31003 3.18315,3.18314 3.18315,3.18314 0,0 9.453993,2.50694 14.179487,3.76191 5.595625,3.56799 11.190257,7.13698 16.783883,10.70696 0.386807,1.15642 0.772673,2.31402 1.157509,3.47253 -5.994804,1.2169 -12.345763,2.50693 -18.520146,3.7619 -8.294485,5.01488 -16.589965,10.03075 -24.886447,15.04763 5.209791,2.21755 10.41857,4.43611 15.626373,6.65567 3.474377,1.54272 6.946055,3.08569 10.417583,4.63004 5.016202,5.39998 10.032746,10.80242 15.047619,16.20512 5.402747,9.25914 10.804419,18.51915 16.205128,27.78022 6.174589,8.87354 12.347769,17.74748 18.520149,26.62271 10.03298,7.71591 20.06449,15.43246 30.09524,23.15019 9.64677,4.62897 19.29281,9.25907 28.93772,13.89011 0.001,-10e-4 0.001,-10e-4 0,0 6.17438,6.94405 12.23549,13.7628 18.52015,20.83517 6.28666,3.53468 12.34777,6.94405 18.52015,10.41758 2.3162,1.54247 4.63103,3.08569 6.94505,4.63003 8.87435,2.69959 17.74948,5.40071 26.62271,8.10257 8.10299,1.54223 16.20613,3.08569 24.3077,4.63003 6.55958,0.7706 13.11943,1.54235 19.67765,2.31502 0.86913,0.86713 1.73501,1.73301 2.6044,2.6044 0.58125,9.47648 1.15844,18.90393 1.73626,28.35897 -5.78719,0.0955 -11.57258,0.19189 -17.36264,0.28938 -6.46344,5.01618 -12.92451,10.03074 -19.38828,15.04762 -3.47209,5.01569 -6.94405,10.03074 -10.41758,15.04762 -0.38492,5.01601 -0.77067,10.03074 -1.15751,15.04762 2.50948,-10e-4 4.86133,-10e-4 7.52381,0 8.40123,-2.97182 15.42854,-5.45709 23.72894,-8.39195 6.17643,-1.92449 11.76901,-3.66645 17.65202,-5.49817 5.78854,0.19192 11.57609,0.38484 17.36264,0.57876 4.05228,-0.001 8.10356,-0.001 12.15384,0 3.76291,0.57776 7.36911,1.13256 11.28571,1.73627 5.02357,1.20441 9.64691,2.31401 14.46887,3.47252 5.98146,1.44589 11.96192,2.89277 17.94138,4.34066 6.3673,2.41048 12.73361,4.82195 19.09891,7.23443 -0.77054,-8.10219 -1.54235,-16.20613 -2.31502,-24.30769 -6.94328,-6.1737 -13.11744,-12.34776 -19.67765,-18.52015 -5.78658,-2.70186 -11.5741,-5.40271 -17.36264,-8.10256 -3.56826,-0.2904 -7.13697,-0.57976 -10.70697,-0.86814 1.25497,-8.9717 2.50894,-17.94238 3.76191,-26.91208 -0.77056,-0.77257 -1.54234,-1.54435 -2.31501,-2.31502 12.34776,-1.54434 24.69452,-3.08769 37.04029,-4.63003 16.20467,-5.78803 32.41126,-11.5761 48.61538,-17.36264 13.50427,-7.71716 27.00955,-15.43446 40.51282,-23.15019 13.8899,-15.8189 27.78122,-32.41125 41.67033,-48.61538 5.40236,-15.04763 10.80442,-30.86791 16.20513,-46.30037 0.38681,-15.81906 0.77267,-31.63958 1.15751,-47.45787 -2.69968,-13.89021 -5.40071,-27.78122 -8.10256,-41.67033 -2.31389,-12.73289 -4.62904,-26.23788 -6.94506,-39.35531 -0.77062,-9.64633 -1.54234,-19.29282 -2.31502,-28.93773 0.7726,-7.717 2.31602,-15.43446 3.47253,-23.15018 3.47302,-6.17349 6.94606,-12.34777 10.41758,-18.52015 3.0871,-2.31557 6.17439,-4.63104 9.26008,-6.94506 4.43651,-1.92948 8.87524,-3.85936 13.31135,-5.78754 10.51505,3.95382 21.02908,7.90864 31.54213,11.86447 -0.86713,-1.06205 -1.73526,-2.1231 -2.60439,-3.18315 -0.28838,-7.8142 -0.57776,-15.62738 -0.86814,-23.43957 -5.69009,-8.20001 -11.38117,-16.39904 -17.07326,-24.59706 -3.2753,0.26464 -6.94096,0.56186 -10.70696,0.86813 0.50978,-9.6679 0.96559,-18.32823 1.44689,-27.49084 -3.08531,-6.559394 -6.94406,-13.119441 -10.41759,-19.67766 -0.38481,-0.386815 -0.77067,-0.772673 -1.15751,-1.157509 5.69209,-5.016876 11.38318,-10.032747 17.07326,-15.047619 -2.31402,-7.428349 -4.62903,-14.855702 -6.94505,-22.282051 -5.40071,-4.631036 -10.80235,-9.261017 -16.20513,-13.890111 -6.84768,3.664491 -13.69504,7.329275 -20.54579,10.996338 -1.25318,-6.368372 -2.50693,-12.733601 -3.7619,-19.098901 -6.07592,-3.377068 -12.15284,-6.753135 -18.23077,-10.128205 -5.01505,0.384849 -10.03075,0.770672 -15.04762,1.157509 -5.01594,4.630025 -10.03075,9.259073 -15.04762,13.89011 -1.06027,3.182805 -2.12057,6.363717 -3.18315,9.549451 -6.7545,-3.089226 -13.50218,-6.173881 -20.25641,-9.260074 -6.55928,5.980436 -13.11594,11.958564 -19.67765,17.941392 -0.28845,7.428044 -0.57776,14.853699 -0.86814,22.282051 3.08817,4.629743 6.17439,9.259073 9.26008,13.89011 2.1232,0.867173 4.2452,1.735264 6.36629,2.604395 -7.42634,7.329891 -14.8537,14.660786 -22.28204,21.992674 -3.56799,12.2493 -7.13697,24.49961 -10.70696,36.75092 -4.90547,15.28452 -10.03036,31.25053 -15.04762,46.87911 -5.40113,11.76793 -10.80242,23.53503 -16.20513,35.30404 -5.40125,7.04122 -10.71136,13.96331 -16.20513,21.12454 -10.19987,8.53242 -20.06136,16.78194 -30.09523,25.17582 -17.36359,-0.57981 -34.72311,-1.15846 -52.08792,-1.73626 -15.91583,-1.35152 -31.82958,-2.70177 -47.74726,-4.05128 -19.19547,-4.53484 -38.38905,-9.068 -57.58607,-13.60074 C 136.97229,242.88271 118.83905,234.29835 100.7033,225.71429 90.093541,218.1893 79.483297,210.66567 68.871795,203.14286 62.313577,196.38972 55.754416,189.63765 49.194139,182.88645 45.143821,177.38723 41.092578,171.88911 37.040294,166.39194 Z"
     sodipodi:nodetypes="ccccccccccccccccccccccccccccccccccccccccccccccccccccccccccccccccccccccccccccccccccccccccccccccccc" />
  <path
     style="fill:none;fill-rule:evenodd;stroke:#000000;stroke-width:1px;stroke-linecap:butt;stroke-linejoin:miter;stroke-opacity:1"
     d="m 511.76471,110.25268 c 1.302,2.2e-4 2.74888,0.2896 3.95386,1.01251 1.20498,0.72292 2.17024,1.88123 2.94187,3.08685 0.77164,1.20562 1.35034,2.45949 1.49518,3.90631 0.14484,1.44683 -0.14443,3.08605 -0.9161,4.43696 -0.77167,1.35092 -2.02477,2.41123 -3.42403,3.13515 -1.39927,0.72391 -2.94129,1.10942 -4.48558,0.96472 -1.54429,-0.14469 -3.08646,-0.81939 -4.3409,-1.92914 -1.25443,-1.10976 -2.21873,-2.65264 -2.55621,-4.53381 -0.33747,-1.88118 -0.048,-4.10013 0.64937,-5.71558 0.6974,-1.61545 1.90788,-2.72505 3.06494,-3.39981 1.15706,-0.67475 2.31561,-0.96439 3.6176,-0.96416 z"
     id="path837"
     inkscape:connector-curvature="0"
     inkscape:path-effect="#path-effect839"
     inkscape:original-d="m 511.61905,109.96337 c 1.44789,0.28838 2.89477,0.57775 4.34066,0.86813 0.96492,1.15571 1.93018,2.31402 2.89377,3.47253 0.5798,1.25307 1.15851,2.50694 1.73626,3.7619 -0.28848,1.63939 -0.57775,3.27861 -0.86813,4.91942 -1.25384,1.06079 -2.50693,2.1211 -3.7619,3.18315 -1.54367,0.38517 -3.08569,0.77067 -4.63004,1.15751 -1.54352,-0.67673 -3.08569,-1.35143 -4.63004,-2.02564 -0.96388,-1.54482 -1.92818,-3.0877 -2.89377,-4.63004 0.29033,-2.21917 0.57976,-4.43812 0.86813,-6.65568 1.06152,-1.06152 2.31602,-2.1231 3.47253,-3.18315 1.15747,-0.29012 2.31602,-0.57975 3.47253,-0.86813 z"
     sodipodi:nodetypes="cccccccccccc" />
  <path
     style="fill:#000000;stroke:none;stroke-width:1.63696516px;stroke-linecap:butt;stroke-linejoin:miter;stroke-opacity:1;fill-opacity:0"
     d="m 273.13159,465.25744 c 32.16073,-14.97134 47.75626,-25.56008 62.51633,-42.44614 10.8695,-12.4351 22.78188,-30.57137 29.23048,-44.50257 5.81322,-12.55859 6.1474,-9.69736 0.74651,6.39161 -5.45016,16.23576 -18.40365,41.74932 -27.37061,53.90996 -11.13898,15.10624 -28.04809,22.55283 -62.66726,27.59798 -5.88998,0.85837 -6.13668,0.76283 -2.45545,-0.95084 z"
     id="path849"
     inkscape:connector-curvature="0" />
  <path
     style="fill:#000000;stroke:none;stroke-width:1.63696516px;stroke-linecap:butt;stroke-linejoin:miter;stroke-opacity:1;fill-opacity:0"
     d="m 507.28287,122.72374 c -2.54482,-3.06633 -1.65595,-7.42626 1.98095,-9.7166 5.67191,-3.57191 12.05884,4.47694 7.71032,9.7166 -2.52848,3.04662 -7.16279,3.04662 -9.69127,0 z"
     id="path851"
     inkscape:connector-curvature="0" />
</svg>
