<?xml version="1.0" encoding="UTF-8" standalone="no"?>
<!-- Created with Inkscape (http://www.inkscape.org/) -->

<svg
   xmlns:dc="http://purl.org/dc/elements/1.1/"
   xmlns:cc="http://creativecommons.org/ns#"
   xmlns:rdf="http://www.w3.org/1999/02/22-rdf-syntax-ns#"
   xmlns:svg="http://www.w3.org/2000/svg"
   xmlns="http://www.w3.org/2000/svg"
   xmlns:sodipodi="http://sodipodi.sourceforge.net/DTD/sodipodi-0.dtd"
   xmlns:inkscape="http://www.inkscape.org/namespaces/inkscape"
   version="1.1"
   id="svg815"
   width="266.66666"
   height="266.66666"
   viewBox="0 0 266.66666 266.66666"
   sodipodi:docname="dining hall2.svg"
   inkscape:version="0.92.2 (5c3e80d, 2017-08-06)"
   inkscape:export-filename="C:\Users\Nilaja\Desktop\Icons\Restaurants\dining hall2.png"
   inkscape:export-xdpi="96"
   inkscape:export-ydpi="96">
  <metadata
     id="metadata821">
    <rdf:RDF>
      <cc:Work
         rdf:about="">
        <dc:format>image/svg+xml</dc:format>
        <dc:type
           rdf:resource="http://purl.org/dc/dcmitype/StillImage" />
        <dc:title></dc:title>
      </cc:Work>
    </rdf:RDF>
  </metadata>
  <defs
     id="defs819">
    <inkscape:path-effect
       effect="bspline"
       id="path-effect835"
       is_visible="true"
       weight="33.333333"
       steps="2"
       helper_size="0"
       apply_no_weight="true"
       apply_with_weight="true"
       only_selected="false" />
    <inkscape:path-effect
       effect="bspline"
       id="path-effect831"
       is_visible="true"
       weight="33.333333"
       steps="2"
       helper_size="0"
       apply_no_weight="true"
       apply_with_weight="true"
       only_selected="false" />
    <inkscape:path-effect
       effect="bspline"
       id="path-effect827"
       is_visible="true"
       weight="33.333333"
       steps="2"
       helper_size="0"
       apply_no_weight="true"
       apply_with_weight="true"
       only_selected="false" />
  </defs>
  <sodipodi:namedview
     pagecolor="#ffffff"
     bordercolor="#666666"
     borderopacity="1"
     objecttolerance="10"
     gridtolerance="10"
     guidetolerance="10"
     inkscape:pageopacity="0"
     inkscape:pageshadow="2"
     inkscape:window-width="1366"
     inkscape:window-height="715"
     id="namedview817"
     showgrid="false"
     inkscape:zoom="1.4478012"
     inkscape:cx="65.76752"
     inkscape:cy="129.17386"
     inkscape:window-x="-8"
     inkscape:window-y="22"
     inkscape:window-maximized="1"
     inkscape:current-layer="svg815" />
  <path
     style="fill:none;fill-rule:evenodd;stroke:#000000;stroke-width:1px;stroke-linecap:butt;stroke-linejoin:miter;stroke-opacity:1"
     d="m 41.251323,24.261991 c 0.468406,-1.323341 2.441759,-3.330411 3.916305,-3.763682 1.474547,-0.433272 2.451347,0.706329 7.05051,5.040945 4.599163,4.334617 12.820571,11.864124 19.943065,18.233668 7.122493,6.369544 13.146156,11.579198 19.006894,16.951541 5.860737,5.372344 11.558813,10.907622 15.667243,15.43842 4.10842,4.530797 6.47343,7.84181 7.85727,11.423158 1.38384,3.581348 1.70942,7.325544 1.70954,10.01182 1.1e-4,2.686279 -0.32541,4.313889 -0.56964,5.453699 -0.24422,1.13982 -0.40691,1.79056 1.6318,3.99236 2.03872,2.20181 6.26387,5.93945 8.72619,8.15756 2.46231,2.21812 3.15405,2.90986 2.17753,4.45637 -0.97652,1.54651 -3.62137,3.94722 -6.16562,6.28793 -2.54426,2.34071 -4.98527,4.61899 -6.69481,6.08442 -1.70954,1.46543 -2.68514,2.11583 -3.58181,2.09588 -0.89666,-0.0199 -1.709,-0.71043 -3.90952,-2.70719 -2.20053,-1.99677 -5.77773,-5.28943 -7.81235,-6.97843 -2.034615,-1.689 -2.523015,-1.7704 -4.393099,-1.7299 -1.870084,0.0405 -5.130087,0.20351 -8.549681,-0.28495 -3.419594,-0.48846 -7.000044,-1.62769 -9.849443,-2.9506 -2.849398,-1.32292 -4.965119,-2.82834 -8.201357,-5.82031 -3.236238,-2.99197 -7.590497,-7.46831 -11.741909,-11.82323 C 53.31702,97.476561 49.369114,93.243754 46.336932,89.824912 43.30475,86.40607 41.188348,83.801268 38.848134,81.176164 c -2.340215,-2.625105 -4.904317,-5.270607 -7.326002,-7.95685 -2.421685,-2.686243 -4.700887,-5.413146 -7.244599,-8.1807 -2.543712,-2.767554 -5.352014,-5.575857 -7.407334,-7.631177 -2.055321,-2.05532 -3.357786,-3.357785 -4.008986,-4.008986 -0.651201,-0.6512 3.744403,-5.046804 3.875154,-5.11218 0.130751,-0.06537 0.52165,-0.260825 3.562911,2.61711 3.041262,2.877936 9.004737,9.007063 13.725964,13.728289 4.721227,4.721227 8.302823,8.140023 12.047191,11.884391 3.744369,3.744368 7.651599,7.8144 10.419316,10.419286 2.767717,2.604886 4.395711,3.744481 5.413215,3.397991 1.017505,-0.34649 1.424555,-2.178218 1.159876,-3.561437 -0.26468,-1.383219 -1.200781,-2.31932 -3.072987,-4.211876 C 58.119648,80.66747 55.311378,77.8185 51.973912,74.216478 48.636447,70.614456 44.769988,66.259601 40.455799,61.579115 36.141611,56.898629 31.379706,51.892524 28.225479,48.656897 25.071252,45.42127 23.52465,43.956068 22.751335,43.223455 c -0.773314,-0.732614 3.62229,-5.128218 4.456091,-4.355427 0.833801,0.772791 2.503642,2.320449 7.062046,6.553252 4.558404,4.232804 12.006511,11.15181 17.928311,16.890459 5.9218,5.73865 10.317459,10.297112 13.227565,13.186862 2.910106,2.88975 4.334602,4.110746 5.63752,4.273088 1.302918,0.162342 2.483219,-0.73306 2.462021,-1.943825 -0.0212,-1.210766 -1.404517,-2.939914 -4.334691,-5.951483 C 66.260023,68.864813 61.701278,64.46888 55.514841,58.262092 49.328403,52.055305 41.514028,44.03743 36.996511,39.702979 c -4.517517,-4.334451 -5.738517,-4.985652 -5.412626,-6.349724 0.325892,-1.364073 2.198094,-3.439776 3.622067,-3.846322 1.423974,-0.406546 2.400774,0.855155 7.529052,5.820647 5.128277,4.965492 14.407887,13.634601 21.326881,20.085545 6.918994,6.450945 11.477426,10.683775 14.469396,12.209564 2.99197,1.525789 4.416483,0.345478 4.00894,-1.363474 C 82.132679,64.550262 79.894177,62.31176 75.763209,58.343588 71.632242,54.375416 65.608492,48.677274 59.808718,43.142052 54.008945,37.606829 48.43313,32.234511 45.126643,29.229134 41.820156,26.223758 40.782916,25.585332 41.251323,24.261991 Z"
     id="path825"
     inkscape:connector-curvature="0"
     inkscape:path-effect="#path-effect827"
     inkscape:original-d="m 39.745385,24.946728 c 1.974353,-2.00807 3.947706,-4.015139 5.920059,-6.02121 0.977801,1.138602 1.954602,2.278202 2.930403,3.418803 8.222408,7.528508 16.443816,15.058015 24.664223,22.588522 6.024549,5.208556 12.048212,10.41821 18.070818,15.628815 5.698932,5.534134 11.397012,11.069411 17.094012,16.605616 2.443,3.580594 4.88501,6.836607 7.32601,10.25641 0.32662,3.743611 0.6522,7.487807 0.9768,11.233211 -0.32468,1.627395 -0.6502,3.255005 -0.9768,4.884005 -0.16191,0.65066 -0.3246,1.3014 -0.4884,1.9536 4.24145,3.75017 8.46661,7.48781 12.69841,11.23321 0.69289,0.69089 1.38463,1.38263 2.0757,2.0757 -2.64515,2.4009 -5.29,4.80161 -7.9365,7.20391 -2.442,2.27914 -4.88301,4.55741 -7.32601,6.83761 -0.97621,0.65047 -1.9518,1.30087 -2.9304,1.9536 -0.81367,-0.69347 -1.62601,-1.38395 -2.44201,-2.0757 -3.585,-3.30175 -7.1622,-6.59441 -10.744805,-9.89011 -0.487401,-0.0824 -0.975801,-0.1638 -1.465202,-0.2442 -3.251003,0.1616 -6.511006,0.3246 -9.768009,0.4884 -3.581756,-1.14097 -7.162207,-2.2802 -10.74481,-3.4188 -2.115769,-1.50716 -4.231489,-3.01258 -6.349206,-4.51771 C 65.975116,110.66174 61.620858,106.1854 57.264955,101.7094 53.318053,97.475597 49.370148,93.24279 45.421244,89.010985 43.305842,86.405183 41.18944,83.800381 39.072037,81.196578 36.508935,78.550075 33.944833,75.904573 31.379731,73.260071 29.101528,70.532168 26.822326,67.805265 24.542124,65.079363 21.734821,62.27006 18.926519,59.461757 16.117216,56.654454 14.815878,55.351117 13.513413,54.048652 12.210012,52.747251 l 4.395604,-4.395604 c 0.326378,-10e-4 0.652201,-0.326601 0.976801,-0.488401 5.840206,5.838206 11.722611,12.046212 17.582417,18.070817 3.582611,3.417811 7.164207,6.836607 10.74481,10.25641 3.908178,4.068977 7.815408,8.139008 11.721611,12.210012 1.62901,1.138607 3.257004,2.278202 4.884005,3.418803 0.40795,-1.832275 0.815001,-3.664003 1.221001,-5.494505 C 62.80116,85.387682 61.865059,84.451581 60.927958,83.51648 58.120655,80.666477 55.312385,77.817507 52.50305,74.969472 48.637503,70.613518 44.771043,66.258664 40.90354,61.90476 36.142635,56.897655 31.38073,51.89155 26.617825,46.886445 25.072224,45.420244 23.525622,43.955042 21.978021,42.490841 l 4.395604,-4.395604 c 1.668563,1.544546 3.338404,3.092203 5.006105,4.639804 7.449108,6.918007 14.897215,13.837013 22.344322,20.75702 4.396548,4.557347 8.792208,9.115809 13.186812,13.675213 1.425508,1.220006 2.850003,2.441003 4.273505,3.663004 1.1813,-0.896401 2.361602,-1.791802 3.540903,-2.686203 C 73.425471,76.679674 72.121469,74.887072 70.818068,73.26007 66.261005,68.863795 61.702259,64.467862 57.142855,60.073258 49.329416,52.054318 41.515041,44.036443 33.699633,36.019535 32.479631,35.367334 31.25863,34.716134 30.036629,34.065933 c 1.873202,-2.076702 3.745404,-4.152405 5.616605,-6.227106 0.977801,1.260701 1.954602,2.522402 2.930403,3.785104 9.280609,8.668108 18.560219,17.337217 27.838827,26.007324 4.559377,4.231779 9.117809,8.464609 13.675213,12.698413 1.42549,-1.181291 2.850003,-2.361602 4.273504,-3.540904 C 82.133679,64.549262 79.895177,62.31076 77.655675,60.073258 71.633213,54.374389 65.609463,48.676247 59.584857,42.979241 54.009926,37.605811 48.434111,32.233493 42.857141,26.862026 41.820877,26.222586 40.783637,25.58416 39.745385,24.946728 Z"
     sodipodi:nodetypes="ccccccccccccccccccccccccccccccccccccccccccccccccccccccccccc" />
  <path
     style="fill:none;fill-rule:evenodd;stroke:#000000;stroke-width:1px;stroke-linecap:butt;stroke-linejoin:miter;stroke-opacity:1"
     d="m 140.5009,160.52819 c 3.39644,-3.56914 10.18835,-10.7064 13.58382,-14.27452 3.39547,-3.56812 3.39547,-3.56812 6.73388,-0.40239 3.33841,3.16574 10.0152,9.49718 16.80713,15.71352 6.79194,6.21635 13.69895,12.31753 21.23907,19.16695 7.54011,6.84942 15.7135,14.44722 22.27517,20.49087 6.56167,6.04364 11.51173,10.53323 14.84999,14.61963 3.33826,4.08639 5.06503,7.77018 5.81342,11.28113 0.74838,3.51096 0.51818,6.84896 -1.26622,10.30305 -1.7844,3.4541 -5.12174,7.0216 -9.15176,8.97502 -4.03002,1.95343 -8.9781,2.30686 -13.87159,0.57978 -4.89348,-1.72708 -9.84243,-5.5251 -15.02288,-10.47532 -5.18045,-4.95021 -10.59079,-11.05123 -15.82857,-16.74948 -5.23779,-5.69825 -10.30299,-10.99369 -15.36815,-16.46176 -5.06515,-5.46807 -10.13033,-11.10883 -15.8286,-17.67048 -5.69828,-6.56165 -12.02978,-14.04433 -15.19546,-17.78559 -3.16569,-3.74127 -3.16569,-3.74127 0.23075,-7.31041 z"
     id="path829"
     inkscape:connector-curvature="0"
     inkscape:path-effect="#path-effect831"
     inkscape:original-d="m 137.10446,164.09733 c 6.79291,-7.13826 13.58482,-14.27552 20.37573,-21.41178 0.001,-0.001 0.001,-0.001 0,0 6.67779,6.33044 13.35458,12.66188 20.03037,18.99432 6.90804,6.10022 13.81505,12.20141 20.72108,18.30361 8.17423,7.59666 16.34762,15.19446 24.51994,22.79319 4.95101,4.48854 9.90107,8.97813 14.8501,13.4687 1.72774,3.68271 3.45452,7.36649 5.18027,11.05124 -0.22926,3.33779 -0.45947,6.67579 -0.6907,10.01519 -3.33846,3.56876 -6.67579,7.13626 -10.01519,10.70589 -4.72016,0.34445 -9.66883,0.6897 -14.50475,1.03605 -4.95013,-3.8007 -9.89907,-7.59873 -14.85011,-11.39659 -5.40966,-6.10239 -10.82,-12.20341 -16.23151,-18.30362 -5.0641,-5.29633 -10.1293,-10.59177 -15.19545,-15.88616 -5.06413,-5.64171 -10.12931,-11.28247 -15.19546,-16.92221 -6.33037,-7.48353 -12.66187,-14.96621 -18.99432,-22.44783 0.001,-0.001 0.001,-0.001 0,0 z"
     sodipodi:nodetypes="ccccccccccccccccc" />
  <path
     style="fill:none;fill-rule:evenodd;stroke:#000000;stroke-width:1px;stroke-linecap:butt;stroke-linejoin:miter;stroke-opacity:1"
     d="m 58.480545,242.03075 c 5.065018,-4.6049 11.281341,-11.74216 18.418007,-19.79968 7.136666,-8.05752 15.196063,-17.03799 23.570318,-26.44824 8.37426,-9.41025 17.06796,-19.25543 26.88032,-30.21876 9.81235,-10.96334 20.74872,-23.05088 25.1812,-26.7065 4.43248,-3.65561 2.36076,1.12053 8.77961,-4.49207 6.41886,-5.61261 21.32423,-21.61143 35.91481,-36.63367 14.59058,-15.022235 28.86617,-29.067568 39.85959,-39.773189 10.99341,-10.705622 18.7068,-18.073636 19.05206,-22.303637 0.34525,-4.230001 -6.29318,-5.263855 -12.60625,-5.658531 -6.31307,-0.394676 -10.99187,-0.06825 -15.62595,0.967757 -4.63409,1.036005 -8.94919,2.762044 -12.49002,4.604245 -3.54082,1.842201 -6.30289,3.798671 -10.07304,7.108199 -3.77016,3.309528 -8.54752,7.971769 -15.42632,14.792998 -6.8788,6.82123 -15.85683,15.799262 -26.73609,26.189259 -10.87926,10.389998 -23.65266,22.185259 -27.17505,27.754349 -3.52238,5.56908 2.21015,4.90445 0.48309,8.55963 -1.72707,3.65518 -10.91524,11.6298 -19.79633,19.38623 -8.88109,7.75643 -17.457184,15.29649 -25.804469,22.78024 -8.347285,7.48376 -16.461788,14.90766 -24.779514,22.30441 -8.317727,7.39675 -16.835335,14.76333 -23.333698,20.46218 -6.498363,5.69886 -11.229684,9.95705 -14.108103,14.10162 -2.87842,4.14456 -4.029328,8.28783 -3.545798,12.4791 0.48353,4.19126 2.508986,8.24217 6.151228,11.44756 3.642242,3.20539 9.021314,5.54411 13.62618,5.6589 4.604866,0.11479 8.519201,-1.9575 13.584219,-6.5624 z"
     id="path833"
     inkscape:connector-curvature="0"
     inkscape:path-effect="#path-effect835"
     inkscape:original-d="m 57.328313,244.56417 c 6.217323,-7.13826 12.433646,-14.27552 18.648969,-21.41178 8.057996,-8.97879 16.117394,-17.95926 24.174588,-26.9374 8.69132,-9.84236 17.38502,-19.68753 26.07403,-29.52752 10.93569,-12.0867 21.87206,-24.17424 32.80912,-36.26264 -2.07167,4.77734 -4.14339,9.55348 -6.21707,14.33282 14.91094,-16.00473 29.81632,-32.00355 44.72298,-48.003825 14.27446,-14.044234 28.55004,-28.089571 42.82356,-42.132857 7.7133,-7.367973 15.42669,-14.735988 23.13854,-22.102482 -7.02114,-1.094612 -13.65957,-2.128466 -21.06643,-3.280837 -5.21952,0.363222 -9.89832,0.68965 -14.8501,1.036053 -4.31654,1.726017 -8.63164,3.452056 -12.95068,5.18027 -2.76254,1.95651 -5.52461,3.912981 -8.28842,5.870972 -4.77637,4.661243 -9.55373,9.323485 -14.33209,13.986727 -8.97923,8.979232 -17.95726,17.957266 -26.9374,26.9374 -12.77842,11.799816 -25.55182,23.595079 -38.33398,35.398499 5.73733,-0.66607 11.46986,-1.33071 17.20473,-1.99474 -9.18896,7.97519 -18.37713,15.94981 -27.56528,23.92455 -8.57403,7.53812 -17.150122,15.07818 -25.728668,22.62051 -8.116008,7.4252 -16.230509,14.84911 -24.347265,22.27516 -8.518723,7.36741 -17.03633,14.73399 -25.555995,22.10248 -4.373998,4.14374 -9.208368,8.28743 -13.814052,12.43265 -1.150433,4.14416 -2.301342,8.28743 -3.453513,12.43265 2.304001,4.1444 4.145216,8.28743 6.216323,12.43264 5.296898,2.07131 10.591773,4.60369 15.886159,6.90703 3.91463,-2.07292 7.828963,-4.14522 11.741944,-6.21633 z"
     sodipodi:nodetypes="cccccccccccccccccccccccccc" />
</svg>
