<?xml version="1.0" standalone="no"?>
<!DOCTYPE svg PUBLIC "-//W3C//DTD SVG 20010904//EN"
 "http://www.w3.org/TR/2001/REC-SVG-20010904/DTD/svg10.dtd">
<svg version="1.0" xmlns="http://www.w3.org/2000/svg"
 width="1284.000000pt" height="588.000000pt" viewBox="0 0 1284.000000 588.000000"
 preserveAspectRatio="xMidYMid meet">

<g transform="translate(0.000000,588.000000) scale(0.100000,-0.100000)"
fill="#000000" stroke="none">
<path d="M5888 4254 c-65 -20 -133 -89 -153 -156 -13 -45 -15 -262 -15 -1778
0 -1942 -6 -1792 76 -1874 80 -80 12 -76 1189 -76 1177 0 1109 -4 1189 76 82
82 76 -68 76 1874 0 1942 6 1792 -76 1874 -80 80 -11 76 -1193 75 -881 0
-1053 -3 -1093 -15z m2160 -90 c51 -21 90 -61 102 -103 6 -23 10 -650 10
-1744 0 -1521 -2 -1712 -16 -1745 -21 -51 -61 -90 -103 -102 -23 -6 -416 -10
-1059 -10 -1118 0 -1062 -3 -1125 57 -15 15 -32 43 -37 62 -6 23 -10 650 -10
1746 0 1641 1 1712 19 1750 22 48 58 83 97 95 16 4 492 9 1057 9 908 1 1032
-1 1065 -15z"/>
<path d="M7615 4006 c-41 -18 -83 -69 -90 -109 -4 -19 -5 -99 -3 -179 3 -159
8 -175 72 -222 24 -18 42 -21 141 -21 124 0 143 7 189 69 19 25 21 41 21 201
0 160 -2 176 -21 201 -44 59 -67 69 -177 72 -70 1 -112 -2 -132 -12z m247 -74
l33 -32 0 -155 0 -155 -33 -32 c-32 -33 -33 -33 -127 -33 -94 0 -95 0 -127 33
l-33 32 0 154 c0 151 1 155 25 181 36 39 56 45 147 42 79 -2 84 -4 115 -35z"/>
<path d="M6095 3996 c-41 -18 -83 -69 -90 -109 -4 -19 -5 -99 -3 -179 3 -159
8 -175 72 -222 24 -18 42 -21 141 -21 124 0 143 7 189 69 19 25 21 41 21 201
0 160 -2 176 -21 201 -44 59 -67 69 -177 72 -70 1 -112 -2 -132 -12z m247 -74
l33 -32 0 -155 0 -155 -33 -32 c-32 -33 -33 -33 -127 -33 -94 0 -95 0 -127 33
l-33 32 0 154 c0 151 1 155 25 181 36 39 56 45 147 42 79 -2 84 -4 115 -35z"/>
<path d="M6855 3996 c-41 -18 -83 -69 -90 -109 -4 -19 -5 -99 -3 -179 3 -159
8 -175 72 -222 24 -18 42 -21 141 -21 124 0 143 7 189 69 19 25 21 41 21 201
0 160 -2 176 -21 201 -44 59 -67 69 -177 72 -70 1 -112 -2 -132 -12z m247 -74
l33 -32 0 -155 0 -155 -33 -32 c-32 -33 -33 -33 -127 -33 -94 0 -95 0 -127 33
l-33 32 0 154 c0 151 1 155 25 181 36 39 56 45 147 42 79 -2 84 -4 115 -35z"/>
<path d="M7635 3196 c-41 -18 -83 -69 -90 -109 -4 -19 -5 -99 -3 -179 3 -159
8 -175 72 -222 24 -18 42 -21 141 -21 124 0 143 7 189 69 19 25 21 41 21 201
0 160 -2 176 -21 201 -44 59 -67 69 -177 72 -70 1 -112 -2 -132 -12z m221 -42
c62 -30 74 -64 74 -214 0 -150 -11 -186 -65 -220 -42 -26 -160 -28 -211 -4
-62 30 -74 63 -74 215 0 150 10 183 65 219 39 26 160 28 211 4z"/>
<path d="M6115 3186 c-41 -18 -83 -69 -90 -109 -4 -19 -5 -99 -3 -179 3 -159
8 -175 72 -222 24 -18 42 -21 141 -21 124 0 143 7 189 69 19 25 21 41 21 201
0 160 -2 176 -21 201 -44 59 -67 69 -177 72 -70 1 -112 -2 -132 -12z m247 -74
l33 -32 0 -155 0 -155 -33 -32 c-32 -33 -33 -33 -127 -33 -94 0 -95 0 -127 33
l-33 32 0 154 c0 151 1 155 25 181 36 39 56 45 147 42 79 -2 84 -4 115 -35z"/>
<path d="M6875 3186 c-41 -18 -83 -69 -90 -109 -4 -19 -5 -99 -3 -179 3 -159
8 -175 72 -222 24 -18 42 -21 141 -21 124 0 143 7 189 69 19 25 21 41 21 201
0 160 -2 176 -21 201 -44 59 -67 69 -177 72 -70 1 -112 -2 -132 -12z m221 -42
c62 -30 74 -64 74 -214 0 -150 -11 -186 -65 -220 -42 -26 -160 -28 -211 -4
-62 30 -74 63 -74 215 0 150 10 183 65 219 39 26 160 28 211 4z"/>
<path d="M7625 2436 c-41 -18 -83 -69 -90 -109 -4 -19 -5 -99 -3 -179 3 -159
8 -175 72 -222 24 -18 42 -21 141 -21 124 0 143 7 189 69 19 25 21 41 21 201
0 160 -2 176 -21 201 -44 59 -67 69 -177 72 -70 1 -112 -2 -132 -12z m221 -42
c62 -30 74 -64 74 -214 0 -150 -11 -186 -65 -220 -42 -26 -160 -28 -211 -4
-62 30 -74 63 -74 215 0 150 10 183 65 219 39 26 160 28 211 4z"/>
<path d="M6105 2426 c-41 -18 -83 -69 -90 -109 -4 -19 -5 -99 -3 -179 3 -159
8 -175 72 -222 24 -18 42 -21 141 -21 124 0 143 7 189 69 19 25 21 41 21 201
0 160 -2 176 -21 201 -44 59 -67 69 -177 72 -70 1 -112 -2 -132 -12z m247 -74
l33 -32 0 -155 0 -155 -33 -32 c-32 -33 -33 -33 -127 -33 -94 0 -95 0 -127 33
l-33 32 0 154 c0 151 1 155 25 181 36 39 56 45 147 42 79 -2 84 -4 115 -35z"/>
<path d="M6865 2426 c-41 -18 -83 -69 -90 -109 -4 -19 -5 -99 -3 -179 3 -159
8 -175 72 -222 24 -18 42 -21 141 -21 124 0 143 7 189 69 19 25 21 41 21 201
0 160 -2 176 -21 201 -44 59 -67 69 -177 72 -70 1 -112 -2 -132 -12z m221 -42
c62 -30 74 -64 74 -214 0 -150 -11 -186 -65 -220 -42 -26 -160 -28 -211 -4
-62 30 -74 63 -74 215 0 150 10 183 65 219 39 26 160 28 211 4z"/>
<path d="M6510 1415 l0 -195 470 0 470 0 0 195 0 195 -470 0 -470 0 0 -195z"/>
</g>
</svg>
