<?xml version="1.0" encoding="utf-8"?>
<!-- Generator: Adobe Illustrator 22.0.1, SVG Export Plug-In . SVG Version: 6.00 Build 0)  -->
<svg version="1.1"
	 id="svg837" inkscape:export-filename="C:\Users\Nilaja\Desktop\Icons\Restaurants\einstein3.png" inkscape:export-xdpi="96" inkscape:export-ydpi="96" inkscape:version="0.92.2 (5c3e80d, 2017-08-06)" sodipodi:docname="einstein3.svg" xmlns:cc="http://creativecommons.org/ns#" xmlns:dc="http://purl.org/dc/elements/1.1/" xmlns:inkscape="http://www.inkscape.org/namespaces/inkscape" xmlns:rdf="http://www.w3.org/1999/02/22-rdf-syntax-ns#" xmlns:sodipodi="http://sodipodi.sourceforge.net/DTD/sodipodi-0.dtd" xmlns:svg="http://www.w3.org/2000/svg"
	 xmlns="http://www.w3.org/2000/svg" xmlns:xlink="http://www.w3.org/1999/xlink" x="0px" y="0px" viewBox="0 0 386.7 340"
	 style="enable-background:new 0 0 386.7 340;" xml:space="preserve">
<style type="text/css">
	.st0{fill:#FFFFFF;stroke:#000000;}
	.st1{fill:none;stroke:#000000;}
</style>
<defs>
	
	
		<inkscape:path-effect  apply_no_weight="true" apply_with_weight="true" effect="bspline" helper_size="0" id="path-effect5089" is_visible="true" only_selected="false" steps="2" weight="33.333333">
		</inkscape:path-effect>
	
		<inkscape:path-effect  apply_no_weight="true" apply_with_weight="true" effect="bspline" helper_size="0" id="path-effect5085" is_visible="true" only_selected="false" steps="2" weight="33.333333">
		</inkscape:path-effect>
	
		<inkscape:path-effect  apply_no_weight="true" apply_with_weight="true" effect="bspline" helper_size="0" id="path-effect5081" is_visible="true" only_selected="false" steps="2" weight="33.333333">
		</inkscape:path-effect>
</defs>
<sodipodi:namedview  bordercolor="#666666" borderopacity="1" gridtolerance="10" guidetolerance="10" id="namedview839" inkscape:current-layer="svg837" inkscape:cx="166.67829" inkscape:cy="192.96749" inkscape:pageopacity="0" inkscape:pageshadow="2" inkscape:window-height="732" inkscape:window-maximized="0" inkscape:window-width="1351" inkscape:window-x="0" inkscape:window-y="30" inkscape:zoom="0.98163059" objecttolerance="10" pagecolor="#ffffff" showgrid="false">
	</sodipodi:namedview>
<g>
	
		<path id="path5079" inkscape:connector-curvature="0" inkscape:original-d="m 15.127119,151.27119 c 1.441679,-9.72558 2.882357,-19.45016 4.322034,-29.17373 3.362581,-8.04478 6.724165,-16.08858 10.084745,-24.131358 10.926136,-10.44591 21.851283,-20.890831 32.775424,-31.334746 22.811733,-6.84422 45.622468,-13.687442 68.432198,-20.529661 27.85411,-2.04196 55.70721,-4.08292 83.55933,-6.122881 25.93321,5.281487 51.8654,10.56397 77.79661,15.847457 19.21004,9.123296 38.41908,18.247586 57.62712,27.372882 6.84422,17.287137 13.68723,34.574747 20.52966,51.864407 -0.35918,11.64483 -0.7193,23.28878 -1.08051,34.93644 -7.44326,7.32319 -14.88494,14.64484 -22.33051,21.97034 -17.16954,8.76438 -34.33394,17.52662 -51.50423,26.29237 -22.33109,3.72101 -44.65885,7.44231 -66.99153,11.16526 -22.45074,0.11906 -44.90013,0.23911 -67.3517,0.36017 -22.44956,-3.96287 -44.89935,-7.92459 -67.351692,-11.88559 -18.008097,-7.44476 -36.015455,-14.88781 -54.025424,-22.33051 -7.202588,-9.36567 -14.405736,-18.72976 -21.61017,-28.09323 -0.959457,-5.40357 -1.919903,-10.80608 -2.881355,-16.20762 z" inkscape:path-effect="#path-effect5081" sodipodi:nodetypes="cccccccccccccccccc" class="st0" d="
		M185.3,170c0-0.4,0.1-0.9,0.2-1.4c0.1-0.5,0.2-0.9,0.5-1.4c0.3-0.5,0.7-1.1,1.4-1.5s1.5-0.8,2.5-1.1c1-0.2,2.1-0.4,3.1-0.3
		c1,0.1,2.1,0.4,2.9,0.8s1.6,0.9,2.1,1.6c0.5,0.7,0.8,1.7,0.9,2.5c0.1,0.8,0.1,1.4,0,1.9c-0.2,0.5-0.4,0.9-0.9,1.4
		c-0.5,0.4-1.1,0.9-1.9,1.3s-1.6,0.5-2.5,0.6c-0.9,0.1-1.7,0.1-2.6,0c-0.9-0.1-1.7-0.3-2.5-0.6c-0.8-0.3-1.5-0.7-2-1.2
		c-0.5-0.5-0.8-1-0.9-1.4S185.3,170.4,185.3,170z"/>
	
		<path id="path5083" inkscape:connector-curvature="0" inkscape:original-d="m 10.444916,172.88136 c 0.601282,10.92414 1.201489,21.84791 1.800847,32.77542 2.882718,9.7248 5.76353,19.44754 8.644067,29.17373 6.124267,9.48406 12.246665,18.96778 18.368645,28.45339 17.889704,8.04291 35.877342,16.13131 53.665254,24.13135 17.509041,3.04388 35.149811,6.11185 52.817941,9.18575 16.18875,1.6251 32.28867,3.24238 48.38969,4.86087 28.16551,-3.11708 56.42755,-6.24394 84.63983,-9.36441 17.76936,-6.72417 35.53772,-13.44733 53.30508,-20.16949 9.96569,-9.84564 19.93038,-19.69027 29.89407,-29.5339 3.72275,-12.12671 7.44451,-24.25242 11.16526,-36.37712 -0.23912,-10.2058 -0.47918,-20.40864 -0.72034,-30.61441 -2.29458,6.00382 -4.58887,12.00529 -6.88541,18.011 -5.5085,3.60048 -11.01703,7.20134 -16.52561,10.80256 -3.23997,8.7616 -6.48153,17.52581 -9.72459,26.29237 -6.24296,-1.92222 -12.4833,-3.84232 -18.7288,-5.7627 -2.16056,6.00332 -4.32051,12.00318 -6.48305,18.00847 -5.76312,4.80243 -11.5229,9.60225 -17.28813,14.40678 -5.04271,-1.44206 -11.07723,-3.1662 -15.12713,-4.32203 -1.81766,0.6652 -4.5288,1.65834 -6.7947,2.48901 -2.05614,1.69052 -6.17141,5.07454 -6.17141,5.07454 0,0 -5.52089,7.68165 -8.28389,11.52543 -6.60377,5.4029 -13.20347,10.80265 -19.80932,16.20762 -8.64535,-8.64735 -17.28658,-17.28858 -25.9322,-25.9322 -3.3608,-4.80356 -6.72217,-9.60552 -10.08475,-14.40678 -12.48555,-0.9615 -24.97075,-1.44168 -37.45763,-2.16102 -13.68647,-1.68191 -27.8521,-3.36258 -41.77966,-5.04237 -17.28821,-4.08317 -35.055494,-8.64507 -52.584743,-12.9661 C 57.987689,220.78262 43.221702,213.93985 28.45339,207.09746 22.451417,195.69081 16.448743,184.28573 10.444916,172.88136 Z" inkscape:path-effect="#path-effect5085" sodipodi:nodetypes="cccccccccccccccccccccccccccccc" class="st0" d="
		M185.2,171.9c-0.1,0-0.1,0.6,0,1.1c0.1,0.6,0.2,1.1,0.4,1.6c0.2,0.5,0.4,1,0.9,1.5c0.5,0.5,1.2,0.9,1.9,1.2c0.7,0.3,1.4,0.5,2,0.6
		c0.7,0.1,1.3,0.2,2.1,0.2c0.9,0,2-0.2,2.8-0.5s1.6-0.6,2.1-1.1c0.5-0.5,0.9-1,1.2-1.6s0.4-1.3,0.5-1.9c0.1-0.6,0.1-1.2,0-1.3
		c0-0.1-0.1,0.2-0.3,0.5s-0.4,0.5-0.5,0.8s-0.3,0.8-0.5,1c-0.2,0.2-0.4,0.1-0.6,0.2c-0.2,0.1-0.2,0.4-0.4,0.7
		c-0.2,0.3-0.4,0.6-0.6,0.6s-0.4,0-0.6,0c-0.1,0-0.2,0-0.3,0.1c-0.1,0.1-0.2,0.2-0.2,0.3c-0.1,0.2-0.2,0.4-0.4,0.7s-0.4,0.5-0.7,0.5
		c-0.3-0.1-0.6-0.6-0.9-0.9c-0.2-0.4-0.4-0.6-0.7-0.8c-0.3-0.2-0.8-0.2-1.3-0.3c-0.5-0.1-1.1-0.2-1.7-0.3c-0.6-0.2-1.3-0.4-1.9-0.7
		c-0.6-0.3-1.2-0.7-1.6-1.2C185.6,172.5,185.3,171.9,185.2,171.9z"/>
	
		<path id="path5087" inkscape:connector-curvature="0" inkscape:original-d="m 147.66949,127.5 c 3.36258,-3.36258 6.72416,-6.72416 10.08475,-10.08475 10.2058,-1.80184 20.4106,-3.60269 30.6144,-5.40254 10.2058,1.07951 20.41061,2.16002 30.61441,3.24152 5.5236,3.12047 11.0462,6.24194 16.5678,9.36441 0.36113,2.27987 0.72128,4.56079 1.0805,6.84323 -4.9221,3.48119 -9.84271,6.96163 -14.76694,10.44491 -13.44784,0.23916 -26.89036,0.4792 -40.33899,0.72034 -9.36431,-1.92209 -18.72709,-3.84266 -28.09321,-5.76272 -1.92006,-3.1227 -3.84082,-6.24394 -5.76272,-9.3644 z" inkscape:path-effect="#path-effect5089" sodipodi:nodetypes="cccccccccc" class="st1" d="
		M190.5,168.8c0-0.2,0.2-0.4,0.4-0.5s0.7-0.2,1.1-0.3c0.4,0,0.8,0,1.1,0.2c0.3,0.1,0.5,0.3,0.6,0.4c0.1,0.1,0.1,0.3,0,0.4
		c-0.1,0.2-0.3,0.3-0.6,0.4c-0.4,0.1-0.9,0.1-1.3,0.1s-0.8-0.2-1-0.3C190.6,169.1,190.5,169,190.5,168.8z"/>
</g>
</svg>
