<?xml version="1.0" encoding="UTF-8" standalone="no"?>
<!-- Created with Inkscape (http://www.inkscape.org/) -->

<svg
   xmlns:dc="http://purl.org/dc/elements/1.1/"
   xmlns:cc="http://creativecommons.org/ns#"
   xmlns:rdf="http://www.w3.org/1999/02/22-rdf-syntax-ns#"
   xmlns:svg="http://www.w3.org/2000/svg"
   xmlns="http://www.w3.org/2000/svg"
   xmlns:sodipodi="http://sodipodi.sourceforge.net/DTD/sodipodi-0.dtd"
   xmlns:inkscape="http://www.inkscape.org/namespaces/inkscape"
   version="1.1"
   id="svg5091"
   width="497.33334"
   height="320"
   viewBox="0 0 497.33334 320"
   sodipodi:docname="moes2.svg"
   inkscape:version="0.92.2 (5c3e80d, 2017-08-06)"
   inkscape:export-filename="C:\Users\Nilaja\Desktop\Icons\Restaurants\moes2.png"
   inkscape:export-xdpi="96"
   inkscape:export-ydpi="96">
  <metadata
     id="metadata5097">
    <rdf:RDF>
      <cc:Work
         rdf:about="">
        <dc:format>image/svg+xml</dc:format>
        <dc:type
           rdf:resource="http://purl.org/dc/dcmitype/StillImage" />
        <dc:title />
      </cc:Work>
    </rdf:RDF>
  </metadata>
  <defs
     id="defs5095">
    <inkscape:path-effect
       effect="bspline"
       id="path-effect5654"
       is_visible="true"
       weight="33.333333"
       steps="2"
       helper_size="0"
       apply_no_weight="true"
       apply_with_weight="true"
       only_selected="false" />
    <inkscape:path-effect
       effect="bspline"
       id="path-effect5650"
       is_visible="true"
       weight="33.333333"
       steps="2"
       helper_size="0"
       apply_no_weight="true"
       apply_with_weight="true"
       only_selected="false" />
    <inkscape:path-effect
       effect="bspline"
       id="path-effect5646"
       is_visible="true"
       weight="33.333333"
       steps="2"
       helper_size="0"
       apply_no_weight="true"
       apply_with_weight="true"
       only_selected="false" />
  </defs>
  <sodipodi:namedview
     pagecolor="#ffffff"
     bordercolor="#666666"
     borderopacity="1"
     objecttolerance="10"
     gridtolerance="10"
     guidetolerance="10"
     inkscape:pageopacity="0"
     inkscape:pageshadow="2"
     inkscape:window-width="1366"
     inkscape:window-height="715"
     id="namedview5093"
     showgrid="false"
     inkscape:zoom="1.6151608"
     inkscape:cx="215.89614"
     inkscape:cy="157.16331"
     inkscape:window-x="-8"
     inkscape:window-y="22"
     inkscape:window-maximized="1"
     inkscape:current-layer="svg5091" />
  <g
     id="g4527">
    <path
       sodipodi:nodetypes="cccccccccccccccccccc"
       inkscape:original-d="m 92.870012,276.66066 c 113.508798,-8.66887 227.016588,-17.33673 340.523378,-26.0036 10e-4,-0.001 10e-4,-0.001 0,0 2.36505,-2.14598 4.72962,-4.29142 7.0937,-6.43632 1.1451,-6.31841 2.28847,-12.63176 3.43157,-18.94815 -0.41184,-8.25786 -0.82451,-16.51123 -1.23827,-24.76534 -3.09431,-11.96954 -6.19033,-23.94082 -9.287,-35.90974 -5.57088,-11.76385 -11.1434,-23.52807 -16.7166,-35.2906 -8.87292,-11.145 -17.74749,-22.28981 -26.62274,-33.433206 -8.66686,-7.017844 -17.33454,-14.034537 -26.0036,-21.050537 -10.93727,-4.747794 -21.87453,-9.494153 -32.81408,-14.240068 -14.8589,-0.826551 -29.71614,-1.651953 -44.5776,-2.476534 -15.27225,3.301325 -30.41954,6.576414 -45.81587,9.906135 -10.6093,8.3208 -21.04954,16.509221 -31.5758,24.765332 -9.49238,11.143408 -18.98474,22.286608 -28.48014,33.433208 -9.0806,14.2406 -18.15943,28.47784 -27.24188,42.7202 -6.60369,14.44677 -13.20596,28.88925 -19.81226,43.33935 -8.18435,18.48126 -16.36646,36.9562 -24.55154,55.43661 -5.43625,2.98351 -10.873041,5.96776 -16.311268,8.95326 10e-4,-0.001 10e-4,-0.001 0,0 z"
       inkscape:path-effect="#path-effect5646"
       inkscape:connector-curvature="0"
       id="path5644"
       d="m 149.62445,272.32669 c 56.75443,-4.33398 170.26222,-13.00185 227.01558,-17.33574 56.75336,-4.33389 56.75336,-4.33389 57.93591,-5.40685 1.18255,-1.07296 3.54712,-3.21841 5.30129,-7.45016 1.75417,-4.23175 2.89754,-10.5451 3.26304,-17.83213 0.3655,-7.28703 -0.0472,-15.5404 -1.80127,-25.6521 -1.7541,-10.11169 -4.85012,-22.08297 -9.18391,-33.94923 -4.33378,-11.86625 -9.9063,-23.63047 -17.12931,-35.08408 C 407.80277,118.16279 398.9282,107.01798 390.15725,97.937467 381.3863,88.856955 372.71862,81.840261 362.91564,75.95842 353.11266,70.076579 342.1754,65.330222 329.2764,62.543912 c -12.89899,-2.786311 -27.75623,-3.611713 -42.82297,-2.373493 -15.06675,1.238219 -30.21404,4.513309 -43.21688,10.338263 -13.00284,5.824954 -23.44308,14.013376 -33.4525,23.713029 -10.00942,9.699649 -19.50178,20.842859 -28.78986,33.536409 -9.28809,12.69355 -18.36692,26.9308 -26.21008,41.27534 -7.84317,14.34454 -14.44544,28.78702 -21.84077,45.2527 -7.39533,16.46568 -15.57744,34.94063 -22.38778,45.67286 -6.81034,10.73224 -12.247129,13.71649 -14.966338,15.20907 -2.71921,1.49257 -2.71921,1.49257 54.035228,-2.8414 z"
       style="fill:none;fill-rule:evenodd;stroke:#000000;stroke-width:1.0015748;stroke-linecap:butt;stroke-linejoin:miter;stroke-opacity:1;stroke-miterlimit:4;stroke-dasharray:none" />
    <path
       sodipodi:nodetypes="ccccccccccccccccccccccccccccccccccccccccccccccccc"
       inkscape:original-d="m 94.727413,275.42239 c -3.713801,0.82452 -7.428601,1.65003 -11.144402,2.47654 -6.279685,-3.04004 -12.794426,-6.19234 -19.193135,-9.287 -3.094667,-10.52627 -6.190336,-21.05154 -9.287002,-31.57581 -0.618104,-12.17671 -1.237267,-24.35358 -1.8574,-36.52887 2.270979,-15.89085 4.541312,-31.78319 6.810467,-47.67327 8.668866,-16.30485 17.336737,-32.6087 26.003604,-48.91154 11.1454,-11.351778 22.289805,-22.70256 33.433205,-34.05234 19.60689,-8.256112 39.21278,-16.511224 58.81767,-24.765336 17.13036,-0.826511 34.25971,-1.652022 51.38808,-2.476534 14.4465,1.237185 28.89389,2.475533 43.33934,3.7148 10e-4,-10e-4 10e-4,-10e-4 0,0 -4.53712,2.268056 -9.49238,4.539312 -14.24007,6.810468 -7.01763,-0.62029 -14.03269,-1.652023 -21.05054,-2.476534 -5.15908,2.475841 -10.31789,4.952068 -15.47833,7.429601 -2.06326,4.54037 -3.7138,9.079624 -5.5722,13.620935 -4.54052,0.205433 -9.07963,-0.001 -13.62094,0 -5.366,-2.478079 -11.1434,-4.954067 -16.7166,-7.429601 -5.57167,0.41179 -11.1434,0.824512 -16.7166,1.238267 -2.2696,2.063174 -4.53932,4.126556 -6.81047,6.191334 -4.5414,-0.207472 -9.07963,-0.826511 -13.62094,-1.238266 -1.65035,4.540213 -3.30104,9.492379 -4.95306,14.240068 -4.33404,-0.41386 -8.66687,-0.826511 -13.00181,-1.238267 -2.68246,4.746672 -5.36482,9.492379 -8.04873,14.240069 -1.65044,0.824717 -3.30105,1.650022 -4.95307,2.476536 -1.23816,3.50997 -2.47553,7.01584 -3.7148,10.52527 -3.50862,0.20544 -7.01584,-0.001 -10.52527,0 -2.06336,4.95347 -4.126552,9.90513 -6.19133,14.8592 0.620284,1.44399 1.239266,2.88829 1.8574,4.33393 -3.508595,0.41189 -7.015845,0.82451 -10.525268,1.23827 -1.031213,3.92141 -2.062778,7.84135 -3.095667,11.76353 1.0332,1.23764 2.064778,2.47554 3.095667,3.7148 -1.237365,4.74607 -2.475534,9.49238 -3.714801,14.24007 -4.127582,3.09544 -8.254112,5.77758 -12.382668,8.66787 0.620305,5.98561 1.239267,11.96891 1.8574,17.95487 0.001,1.03104 0.001,2.06278 0,3.09567 -3.510822,2.47793 -7.015845,4.95206 -10.525268,7.4296 0.41389,2.88922 0.826511,5.77758 1.238267,8.66786 2.271816,2.26982 4.541312,4.53932 6.810468,6.81047 -2.269156,2.06278 -4.539312,4.12656 -6.810468,6.19134 -0.618418,5.16082 -1.237267,10.31789 -1.8574,15.47833 2.065219,3.09533 4.128556,6.19034 6.191334,9.287 1.445752,1.03097 2.890289,2.06278 4.333934,3.09567 1.239105,4.33237 2.477534,8.25411 3.7148,12.38267 2.890739,2.0631 5.779579,4.12655 8.667868,6.19133 3.302829,-10e-4 6.60509,-10e-4 9.906135,0 2.064153,-10e-4 3.715797,-10e-4 5.572197,0 0.41354,0.82407 0.82651,1.65003 1.23827,2.47654 -2.88969,2.27025 -5.777578,4.53931 -8.667867,6.81046 z"
       inkscape:path-effect="#path-effect5650"
       inkscape:connector-curvature="0"
       id="path5648"
       d="m 94.31579,274.69951 c -3.302015,1.54813 -7.016814,2.37365 -12.01493,1.26711 -4.998115,-1.10653 -11.512859,-4.25882 -16.259851,-11.06972 -4.746991,-6.81089 -7.842659,-17.33616 -9.699973,-28.6868 -1.857314,-11.35064 -2.476477,-23.52751 -1.65095,-37.56066 0.825527,-14.03316 3.095861,-29.9255 8.56511,-46.023 5.469249,-16.0975 14.137119,-32.40135 24.043429,-46.22857 9.906311,-13.827217 21.050715,-25.178 36.425965,-34.980695 15.37526,-9.802695 34.98115,-18.057807 53.34869,-22.59789 18.36755,-4.540083 35.4969,-5.365594 51.28426,-5.159193 15.78737,0.206401 30.23476,1.444749 37.45753,2.063843 7.22277,0.619095 7.22277,0.619095 4.93511,1.713192 -2.28765,1.094097 -7.20452,3.44564 -13.07537,4.169605 -5.87085,0.723965 -12.90986,-0.104154 -18.99816,0.72117 -6.0883,0.825324 -11.24711,3.301553 -14.77089,6.84636 -3.52379,3.544807 -5.35117,8.01172 -8.55037,10.282479 -3.19921,2.270759 -7.73832,2.270759 -12.70927,1.070629 -4.97095,-1.200131 -10.7143,-3.752731 -16.28643,-4.784745 -5.57213,-1.032015 -11.14386,-0.619294 -15.06527,0.618737 -3.92141,1.238032 -6.19113,3.301413 -9.58817,4.12819 -3.39704,0.826777 -7.95389,0.412519 -11.01793,2.487245 -3.06405,2.074726 -4.77879,7.004614 -7.77158,9.172172 -2.99279,2.167558 -7.32562,1.754907 -10.83444,3.921728 -3.50881,2.166822 -6.19117,6.912531 -8.35808,9.699029 -2.16691,2.786498 -3.81752,3.611803 -5.263,5.779744 -1.44548,2.16794 -2.68285,5.67381 -5.0565,7.42862 -2.37366,1.75482 -5.88088,1.75482 -8.66752,4.23145 -2.78665,2.47663 -4.849839,7.42829 -5.572442,10.62769 -0.722603,3.19939 -0.103617,4.64369 -1.548194,5.57263 -1.444576,0.92894 -4.951826,1.34156 -7.22254,3.50862 -2.270715,2.16706 -3.302278,6.087 -3.30232,8.66745 -4.1e-5,2.58045 1.03154,3.81835 0.928495,6.81047 -0.103045,2.99213 -1.341213,7.73844 -4.072712,11.59092 -2.731498,3.85249 -6.761047,6.67317 -8.515789,11.11108 -1.754742,4.4379 -1.13578,10.4212 -0.826168,13.92965 0.309613,3.50844 0.309613,4.54018 -1.445728,6.29569 -1.755341,1.75551 -5.260362,4.22964 -6.80876,6.913 -1.548398,2.68336 -1.135775,5.57172 0.206071,8.15219 1.341847,2.58047 3.611344,4.84997 3.611865,7.01646 5.21e-4,2.16649 -2.269635,4.23027 -3.714878,7.84299 -1.445244,3.61273 -2.064093,8.7698 -1.341692,12.89812 0.7224,4.12832 2.785739,7.22333 4.540175,9.28733 1.754436,2.06399 3.198971,3.0958 4.568552,5.76953 1.369582,2.67372 2.551215,6.6125 4.61541,9.70872 2.064194,3.09621 4.953032,5.15967 8.048997,6.19149 3.095965,1.03182 6.398226,1.03182 9.080825,1.03182 2.682599,0 4.334243,0 5.468613,0.41234 1.13437,0.41233 1.54734,1.23829 0.30903,2.78644 -1.23831,1.54815 -4.126206,3.8172 -7.42822,5.36534 z"
       style="fill:none;fill-rule:evenodd;stroke:#000000;stroke-width:1px;stroke-linecap:butt;stroke-linejoin:miter;stroke-opacity:1" />
    <path
       sodipodi:nodetypes="ccccccccc"
       inkscape:original-d="m 271.64479,46.80738 c 3.98844,-1.52706 8.3593,-3.199855 12.53745,-4.798284 5.15895,1.649546 10.31989,3.713801 15.47833,5.572201 5.15988,0.41171 10.31989,0.824511 15.47834,1.238267 6.60392,-0.413682 13.20918,-0.826511 19.81227,-1.238267 3.7152,2.062447 7.4306,4.539312 11.1444,6.810468 3.92188,4.538965 7.84336,9.079623 11.76353,13.620935 1.03291,2.062813 2.06478,4.539312 3.09567,6.810467 10e-4,-0.207418 10e-4,-0.826511 0,-1.238266"
       inkscape:path-effect="#path-effect5654"
       inkscape:connector-curvature="0"
       id="path5652"
       d="m 271.64479,46.80738 c 3.98865,-1.526519 8.35951,-3.199317 12.99486,-3.082103 4.63535,0.117215 9.86205,1.998825 15.02138,3.133814 5.15933,1.134989 10.31934,1.54779 16.2006,1.547757 5.88126,-3.3e-5 12.48652,-0.412861 17.59937,0.487722 5.11285,0.900583 8.92006,3.227212 12.73773,6.632148 3.81766,3.404935 7.73914,7.945595 10.17674,11.265139 2.4376,3.319544 3.54721,5.760703 4.06326,6.792297 0.51605,1.031595 0.51605,0.412502 0.51605,7.47e-4"
       style="fill:none;fill-rule:evenodd;stroke:#000000;stroke-width:1px;stroke-linecap:butt;stroke-linejoin:miter;stroke-opacity:1" />
  </g>
</svg>
