<?xml version="1.0" encoding="UTF-8" standalone="no"?>
<!-- Created with Inkscape (http://www.inkscape.org/) -->

<svg
   xmlns:dc="http://purl.org/dc/elements/1.1/"
   xmlns:cc="http://creativecommons.org/ns#"
   xmlns:rdf="http://www.w3.org/1999/02/22-rdf-syntax-ns#"
   xmlns:svg="http://www.w3.org/2000/svg"
   xmlns="http://www.w3.org/2000/svg"
   xmlns:sodipodi="http://sodipodi.sourceforge.net/DTD/sodipodi-0.dtd"
   xmlns:inkscape="http://www.inkscape.org/namespaces/inkscape"
   version="1.1"
   id="svg5665"
   width="500"
   height="500"
   viewBox="0 0 500 500"
   sodipodi:docname="panda2.svg"
   inkscape:version="0.92.2 (5c3e80d, 2017-08-06)"
   inkscape:export-filename="C:\Users\Nilaja\Desktop\Icons\Restaurants\panda2.png"
   inkscape:export-xdpi="96"
   inkscape:export-ydpi="96">
  <metadata
     id="metadata5671">
    <rdf:RDF>
      <cc:Work
         rdf:about="">
        <dc:format>image/svg+xml</dc:format>
        <dc:type
           rdf:resource="http://purl.org/dc/dcmitype/StillImage" />
        <dc:title></dc:title>
      </cc:Work>
    </rdf:RDF>
  </metadata>
  <defs
     id="defs5669">
    <inkscape:path-effect
       effect="bspline"
       id="path-effect6232"
       is_visible="true"
       weight="33.333333"
       steps="2"
       helper_size="0"
       apply_no_weight="true"
       apply_with_weight="true"
       only_selected="false" />
    <inkscape:path-effect
       effect="bspline"
       id="path-effect6228"
       is_visible="true"
       weight="33.333333"
       steps="2"
       helper_size="0"
       apply_no_weight="true"
       apply_with_weight="true"
       only_selected="false" />
    <inkscape:path-effect
       effect="bspline"
       id="path-effect6224"
       is_visible="true"
       weight="33.333333"
       steps="2"
       helper_size="0"
       apply_no_weight="true"
       apply_with_weight="true"
       only_selected="false" />
    <inkscape:path-effect
       effect="bspline"
       id="path-effect6220"
       is_visible="true"
       weight="33.333333"
       steps="2"
       helper_size="0"
       apply_no_weight="true"
       apply_with_weight="true"
       only_selected="false" />
  </defs>
  <sodipodi:namedview
     pagecolor="#ffffff"
     bordercolor="#666666"
     borderopacity="1"
     objecttolerance="10"
     gridtolerance="10"
     guidetolerance="10"
     inkscape:pageopacity="0"
     inkscape:pageshadow="2"
     inkscape:window-width="1354"
     inkscape:window-height="732"
     id="namedview5667"
     showgrid="false"
     inkscape:zoom="0.472"
     inkscape:cx="311.44068"
     inkscape:cy="243.96252"
     inkscape:window-x="0"
     inkscape:window-y="30"
     inkscape:window-maximized="0"
     inkscape:current-layer="svg5665" />
  <path
     style="fill:none;fill-rule:evenodd;stroke:#000000;stroke-width:1px;stroke-linecap:butt;stroke-linejoin:miter;stroke-opacity:1"
     d="m 219.09848,394.3249 c 8.61419,-1.94014 12.35946,-15.92248 15.4803,-27.15751 3.12084,-11.23502 5.61815,-19.72587 6.99124,-27.96482 1.37309,-8.23895 1.62281,-16.22998 -0.24968,-26.96536 -1.87249,-10.73538 -5.86796,-24.22008 -9.36345,-38.20212 -3.4955,-13.98205 -6.49186,-28.46446 -8.53213,-39.00753 -2.04027,-10.54306 -3.12475,-17.14814 -3.93176,-23.07482 -0.80702,-5.92669 -1.33668,-11.17526 -1.0896,-9.55857 0.24708,1.61669 1.27091,10.09861 2.07793,16.0253 0.80702,5.92668 1.39721,9.29773 2.69118,15.72806 1.29398,6.43032 3.29126,15.91743 5.28881,25.40574 1.99754,9.48831 3.99513,18.97688 7.22252,24.57186 3.22739,5.59497 7.68478,7.29731 15.3009,12.16671 7.61612,4.8694 18.38803,12.90368 30.89099,20.79161 12.50295,7.88794 26.73478,15.62806 39.55694,21.52589 12.82216,5.89784 24.23481,9.95348 30.85132,8.32984 6.6165,-1.62364 8.43742,-8.92508 9.45114,-21.11506 1.01373,-12.18999 1.22061,-29.27523 -2.03167,-46.50323 -3.25229,-17.228 -9.96348,-34.6025 -18.11475,-49.79652 -8.15127,-15.19401 -17.74271,-28.2079 -28.70719,-38.27711 -10.96448,-10.06921 -23.30206,-17.19388 -35.85339,-22.7968 -12.55133,-5.60293 -25.31514,-9.68343 -37.94414,-12.94867 -12.629,-3.26523 -25.60289,-5.80913 -37.46308,-6.55828 -11.8602,-0.74915 -22.84566,0.24953 -33.95659,4.7435 -11.11093,4.49396 -22.34674,12.48387 -32.83407,21.59777 -10.48733,9.1139 -20.22314,19.34898 -26.59105,31.45974 -6.36791,12.11076 -9.363585,26.09056 -8.489828,41.57262 0.873758,15.48207 5.617198,32.45861 14.980678,50.31184 9.36348,17.85323 23.34534,36.57893 35.5801,49.6296 12.23477,13.05067 22.72148,20.4252 34.70632,29.16415 11.98484,8.73895 25.46781,18.84231 34.08201,16.90217 z"
     id="path6218"
     inkscape:connector-curvature="0"
     inkscape:path-effect="#path-effect6220"
     inkscape:original-d="m 223.96709,406.36827 c 3.74627,-13.98333 7.49153,-27.96567 11.2358,-41.94701 2.49738,-8.4887 4.99469,-16.97955 7.49054,-25.46783 0.25065,-7.98978 0.50037,-15.98081 0.74905,-23.96972 -3.99344,-13.48223 -7.9889,-26.96693 -11.98486,-40.4489 -2.99507,-14.48201 -5.99143,-28.96442 -8.98864,-43.44512 -1.08336,-6.60538 -2.16784,-13.21045 -3.25325,-19.81418 -0.52866,-5.24957 -1.05832,-10.49814 -1.58898,-15.74572 1.02483,8.48094 2.04866,16.96286 3.07149,25.44579 0.59125,3.37037 1.18144,6.74142 1.77074,10.11411 1.99867,9.48792 3.99595,18.97503 5.99243,28.46404 1.9986,9.48761 3.9962,18.97618 5.99244,28.46404 4.45784,1.70113 8.91523,3.40346 13.37216,5.107 10.77568,8.03535 21.5476,16.06963 32.32011,24.1061 14.23321,7.73933 28.46504,15.47945 42.69607,23.22067 11.41307,4.05444 22.82572,8.11008 34.23708,12.16662 1.82192,-7.30245 3.64285,-14.60388 5.46277,-21.90432 0.20781,-17.0797 0.41469,-34.16494 0.62053,-51.24592 -6.71019,-17.3755 -13.42138,-34.75 -20.13357,-52.1235 -9.59044,-13.01489 -19.18188,-26.02878 -28.77431,-39.04167 -12.33697,-7.12589 -24.67455,-14.25055 -37.01391,-21.37466 -12.7636,-4.08176 -25.52741,-8.16226 -38.29262,-12.24189 -12.4837,-2.49794 -25.46683,-4.99469 -38.20174,-7.49054 -10.98579,0.9978 -21.97125,1.99648 -32.95837,2.99622 -11.2348,7.9889 -22.47061,15.97881 -33.70742,23.96972 -9.73768,10.2371 -19.47349,20.47219 -29.2131,30.71121 -2.99549,13.98263 -5.991161,27.96243 -8.988643,41.947 4.745423,16.97907 9.488873,33.95561 14.232013,50.93566 13.98376,18.7259 27.96561,37.4516 41.94702,56.17904 10.4878,7.3736 20.97451,14.74813 31.46026,22.1237 13.48397,10.10235 26.96694,20.20571 40.44891,30.31006 z"
     sodipodi:nodetypes="ccccccccccccccccccccccccccccccc" />
  <path
     style="fill:none;fill-rule:evenodd;stroke:#000000;stroke-width:1px;stroke-linecap:butt;stroke-linejoin:miter;stroke-opacity:1"
     d="m 120.32503,308.62778 c 9.82854,10.60788 19.65712,21.21581 32.77089,32.34591 13.11376,11.1301 29.51243,22.78218 42.87083,29.77336 13.35841,6.99119 23.67328,9.32083 27.70961,12.76009 4.03634,3.43927 1.79075,7.98461 -1.79095,9.63511 -3.5817,1.65051 -8.49623,0.4013 -13.41002,-0.84773"
     id="path6226"
     inkscape:connector-curvature="0"
     inkscape:path-effect="#path-effect6228"
     inkscape:original-d="m 120.32503,308.62778 c 9.82958,10.60692 19.65816,21.21485 29.48573,31.82376 16.39973,11.65112 32.7984,23.30319 49.19611,34.95629 10.31855,2.32924 20.63342,4.65888 30.95265,6.99073 -2.24642,4.54805 -4.492,9.09339 -6.7405,13.64361 -4.91501,-1.25059 -9.82954,-2.4998 -14.74363,-3.74765"
     sodipodi:nodetypes="cccccc" />
  <path
     style="fill:none;fill-rule:evenodd;stroke:#000000;stroke-width:1px;stroke-linecap:butt;stroke-linejoin:miter;stroke-opacity:1"
     d="m 295.55085,176.90678 c 1.78757,-8.40156 3.53148,-16.59794 8.87438,-21.7681 5.34291,-5.17015 14.2632,-7.21424 20.61939,-12.33522 6.35619,-5.12097 10.14687,-13.31507 13.93844,-21.51109 0.70621,4.06073 1.41241,8.12137 9.97399,15.44757 8.56158,7.3262 24.98388,17.92124 33.1935,23.21777 8.20962,5.29653 8.20962,5.29653 6.66851,9.32453 -1.54111,4.02801 -4.62223,12.08115 -10.6615,18.12935 -6.03927,6.0482 -15.03539,10.08766 -20.38052,15.59361 -5.34513,5.50596 -7.0377,12.47888 -8.94286,17.11268 -1.90516,4.63381 -4.0239,6.9291 -6.1435,9.22534"
     id="path6230"
     inkscape:connector-curvature="0"
     inkscape:path-effect="#path-effect6232"
     inkscape:original-d="m 295.55085,176.90678 c 1.78832,-8.4014 3.53223,-16.59778 5.29661,-24.89407 8.92051,-2.04491 17.8408,-4.08901 26.76089,-6.13228 3.7929,-8.19774 11.37471,-24.58806 11.37471,-24.58806 0,0 1.41355,8.12117 2.11864,12.1822 16.41768,10.59041 32.83998,21.18545 49.25847,31.77967 0.001,-0.001 0.001,-0.001 0,0 -3.08168,8.05621 -6.1628,16.10936 -9.24594,24.16617 -8.99615,4.03892 -17.99226,8.07838 -26.99006,12.11914 -1.69154,6.97178 -3.38412,13.9447 -5.07756,20.91808 -2.11755,2.2941 -4.23629,4.58939 -6.35593,6.88559"
     sodipodi:nodetypes="ccccccccccc" />
</svg>
