<?xml version="1.0" standalone="no"?>
<!DOCTYPE svg PUBLIC "-//W3C//DTD SVG 20010904//EN"
 "http://www.w3.org/TR/2001/REC-SVG-20010904/DTD/svg10.dtd">
<svg version="1.0" xmlns="http://www.w3.org/2000/svg"
 width="1284.000000pt" height="588.000000pt" viewBox="0 0 1284.000000 588.000000"
 preserveAspectRatio="xMidYMid meet">

<g transform="translate(0.000000,588.000000) scale(0.100000,-0.100000)"
fill="#000000" stroke="none">
<path d="M5888 4254 c-65 -20 -133 -89 -153 -156 -13 -45 -15 -262 -15 -1778
0 -1942 -6 -1792 76 -1874 80 -80 12 -76 1189 -76 1177 0 1109 -4 1189 76 82
82 76 -68 76 1874 0 1942 6 1792 -76 1874 -80 80 -11 76 -1193 75 -881 0
-1053 -3 -1093 -15z m1885 -306 c55 -17 122 -82 136 -133 16 -60 15 -2233 -1
-2288 -16 -54 -83 -122 -134 -136 -58 -16 -1503 -15 -1556 1 -51 15 -124 87
-138 136 -16 57 -14 2232 2 2286 15 50 84 121 130 135 52 15 1511 14 1561 -1z"/>
<path d="M6179 3811 c-27 -28 -29 -34 -29 -111 0 -77 2 -83 29 -111 27 -27 35
-29 101 -29 66 0 74 2 101 29 27 28 29 34 29 111 0 77 -2 83 -29 111 -27 27
-35 29 -101 29 -66 0 -74 -2 -101 -29z m192 -10 c27 -27 29 -35 29 -101 0 -66
-2 -74 -29 -101 -26 -26 -36 -29 -91 -29 -55 0 -65 3 -91 29 -27 27 -29 35
-29 101 0 66 2 74 29 101 26 26 36 29 91 29 55 0 65 -3 91 -29z"/>
<path d="M6539 3811 c-27 -28 -29 -34 -29 -111 0 -77 2 -83 29 -111 27 -27 35
-29 101 -29 66 0 74 2 101 29 27 28 29 34 29 111 0 77 -2 83 -29 111 -27 27
-35 29 -101 29 -66 0 -74 -2 -101 -29z m192 -10 c27 -27 29 -35 29 -101 0 -66
-2 -74 -29 -101 -26 -26 -36 -29 -91 -29 -55 0 -65 3 -91 29 -27 27 -29 35
-29 101 0 66 2 74 29 101 26 26 36 29 91 29 55 0 65 -3 91 -29z"/>
<path d="M6899 3811 c-27 -28 -29 -34 -29 -111 0 -77 2 -83 29 -111 27 -27 35
-29 101 -29 66 0 74 2 101 29 27 28 29 34 29 111 0 77 -2 83 -29 111 -27 27
-35 29 -101 29 -66 0 -74 -2 -101 -29z m192 -10 c27 -27 29 -35 29 -101 0 -66
-2 -74 -29 -101 -26 -26 -36 -29 -91 -29 -55 0 -65 3 -91 29 -27 27 -29 35
-29 101 0 66 2 74 29 101 26 26 36 29 91 29 55 0 65 -3 91 -29z"/>
<path d="M7249 3811 c-27 -28 -29 -34 -29 -111 0 -77 2 -83 29 -111 27 -27 35
-29 101 -29 66 0 74 2 101 29 27 28 29 34 29 111 0 77 -2 83 -29 111 -27 27
-35 29 -101 29 -66 0 -74 -2 -101 -29z m192 -10 c27 -27 29 -35 29 -101 0 -66
-2 -74 -29 -101 -26 -26 -36 -29 -91 -29 -55 0 -65 3 -91 29 -27 27 -29 35
-29 101 0 66 2 74 29 101 26 26 36 29 91 29 55 0 65 -3 91 -29z"/>
<path d="M7599 3811 c-27 -28 -29 -34 -29 -111 0 -77 2 -83 29 -111 27 -27 35
-29 101 -29 66 0 74 2 101 29 27 28 29 34 29 111 0 77 -2 83 -29 111 -27 27
-35 29 -101 29 -66 0 -74 -2 -101 -29z m192 -10 c27 -27 29 -35 29 -101 0 -66
-2 -74 -29 -101 -26 -26 -36 -29 -91 -29 -55 0 -65 3 -91 29 -27 27 -29 35
-29 101 0 66 2 74 29 101 26 26 36 29 91 29 55 0 65 -3 91 -29z"/>
<path d="M6179 3461 c-27 -28 -29 -34 -29 -111 0 -77 2 -83 29 -111 27 -27 35
-29 101 -29 66 0 74 2 101 29 27 28 29 34 29 111 0 77 -2 83 -29 111 -27 27
-35 29 -101 29 -66 0 -74 -2 -101 -29z m192 -10 c27 -27 29 -35 29 -101 0 -66
-2 -74 -29 -101 -26 -26 -36 -29 -91 -29 -55 0 -65 3 -91 29 -27 27 -29 35
-29 101 0 66 2 74 29 101 26 26 36 29 91 29 55 0 65 -3 91 -29z"/>
<path d="M6539 3461 c-27 -28 -29 -34 -29 -111 0 -77 2 -83 29 -111 27 -27 35
-29 101 -29 66 0 74 2 101 29 27 28 29 34 29 111 0 77 -2 83 -29 111 -27 27
-35 29 -101 29 -66 0 -74 -2 -101 -29z m192 -10 c27 -27 29 -35 29 -101 0 -66
-2 -74 -29 -101 -26 -26 -36 -29 -91 -29 -55 0 -65 3 -91 29 -27 27 -29 35
-29 101 0 66 2 74 29 101 26 26 36 29 91 29 55 0 65 -3 91 -29z"/>
<path d="M6899 3461 c-27 -28 -29 -34 -29 -111 0 -77 2 -83 29 -111 27 -27 35
-29 101 -29 66 0 74 2 101 29 27 28 29 34 29 111 0 77 -2 83 -29 111 -27 27
-35 29 -101 29 -66 0 -74 -2 -101 -29z m192 -10 c27 -27 29 -35 29 -101 0 -66
-2 -74 -29 -101 -26 -26 -36 -29 -91 -29 -55 0 -65 3 -91 29 -27 27 -29 35
-29 101 0 66 2 74 29 101 26 26 36 29 91 29 55 0 65 -3 91 -29z"/>
<path d="M7249 3461 c-27 -28 -29 -34 -29 -111 0 -77 2 -83 29 -111 27 -27 35
-29 101 -29 66 0 74 2 101 29 27 28 29 34 29 111 0 77 -2 83 -29 111 -27 27
-35 29 -101 29 -66 0 -74 -2 -101 -29z m192 -10 c27 -27 29 -35 29 -101 0 -66
-2 -74 -29 -101 -26 -26 -36 -29 -91 -29 -55 0 -65 3 -91 29 -27 27 -29 35
-29 101 0 66 2 74 29 101 26 26 36 29 91 29 55 0 65 -3 91 -29z"/>
<path d="M7599 3461 c-27 -28 -29 -34 -29 -111 0 -77 2 -83 29 -111 27 -27 35
-29 101 -29 66 0 74 2 101 29 27 28 29 34 29 111 0 77 -2 83 -29 111 -27 27
-35 29 -101 29 -66 0 -74 -2 -101 -29z m192 -10 c27 -27 29 -35 29 -101 0 -66
-2 -74 -29 -101 -26 -26 -36 -29 -91 -29 -55 0 -65 3 -91 29 -27 27 -29 35
-29 101 0 66 2 74 29 101 26 26 36 29 91 29 55 0 65 -3 91 -29z"/>
<path d="M6169 3111 c-27 -28 -29 -34 -29 -111 0 -77 2 -83 29 -111 27 -27 35
-29 101 -29 66 0 74 2 101 29 27 28 29 34 29 111 0 77 -2 83 -29 111 -27 27
-35 29 -101 29 -66 0 -74 -2 -101 -29z m192 -10 c27 -27 29 -35 29 -101 0 -66
-2 -74 -29 -101 -26 -26 -36 -29 -91 -29 -55 0 -65 3 -91 29 -27 27 -29 35
-29 101 0 66 2 74 29 101 26 26 36 29 91 29 55 0 65 -3 91 -29z"/>
<path d="M6529 3111 c-27 -28 -29 -34 -29 -111 0 -77 2 -83 29 -111 27 -27 35
-29 101 -29 66 0 74 2 101 29 27 28 29 34 29 111 0 77 -2 83 -29 111 -27 27
-35 29 -101 29 -66 0 -74 -2 -101 -29z m192 -10 c27 -27 29 -35 29 -101 0 -66
-2 -74 -29 -101 -26 -26 -36 -29 -91 -29 -55 0 -65 3 -91 29 -27 27 -29 35
-29 101 0 66 2 74 29 101 26 26 36 29 91 29 55 0 65 -3 91 -29z"/>
<path d="M6889 3111 c-27 -28 -29 -34 -29 -111 0 -77 2 -83 29 -111 27 -27 35
-29 101 -29 66 0 74 2 101 29 27 28 29 34 29 111 0 77 -2 83 -29 111 -27 27
-35 29 -101 29 -66 0 -74 -2 -101 -29z m192 -10 c27 -27 29 -35 29 -101 0 -66
-2 -74 -29 -101 -26 -26 -36 -29 -91 -29 -55 0 -65 3 -91 29 -27 27 -29 35
-29 101 0 66 2 74 29 101 26 26 36 29 91 29 55 0 65 -3 91 -29z"/>
<path d="M7239 3111 c-27 -28 -29 -34 -29 -111 0 -77 2 -83 29 -111 27 -27 35
-29 101 -29 66 0 74 2 101 29 27 28 29 34 29 111 0 77 -2 83 -29 111 -27 27
-35 29 -101 29 -66 0 -74 -2 -101 -29z m192 -10 c27 -27 29 -35 29 -101 0 -66
-2 -74 -29 -101 -26 -26 -36 -29 -91 -29 -55 0 -65 3 -91 29 -27 27 -29 35
-29 101 0 66 2 74 29 101 26 26 36 29 91 29 55 0 65 -3 91 -29z"/>
<path d="M7589 3111 c-27 -28 -29 -34 -29 -111 0 -77 2 -83 29 -111 27 -27 35
-29 101 -29 66 0 74 2 101 29 27 28 29 34 29 111 0 77 -2 83 -29 111 -27 27
-35 29 -101 29 -66 0 -74 -2 -101 -29z m192 -10 c27 -27 29 -35 29 -101 0 -66
-2 -74 -29 -101 -26 -26 -36 -29 -91 -29 -55 0 -65 3 -91 29 -27 27 -29 35
-29 101 0 66 2 74 29 101 26 26 36 29 91 29 55 0 65 -3 91 -29z"/>
<path d="M6169 2761 c-27 -28 -29 -34 -29 -111 0 -77 2 -83 29 -111 27 -27 35
-29 101 -29 66 0 74 2 101 29 27 28 29 34 29 111 0 77 -2 83 -29 111 -27 27
-35 29 -101 29 -66 0 -74 -2 -101 -29z m192 -10 c27 -27 29 -35 29 -101 0 -66
-2 -74 -29 -101 -26 -26 -36 -29 -91 -29 -55 0 -65 3 -91 29 -27 27 -29 35
-29 101 0 66 2 74 29 101 26 26 36 29 91 29 55 0 65 -3 91 -29z"/>
<path d="M6529 2761 c-27 -28 -29 -34 -29 -111 0 -77 2 -83 29 -111 27 -27 35
-29 101 -29 66 0 74 2 101 29 27 28 29 34 29 111 0 77 -2 83 -29 111 -27 27
-35 29 -101 29 -66 0 -74 -2 -101 -29z m192 -10 c27 -27 29 -35 29 -101 0 -66
-2 -74 -29 -101 -26 -26 -36 -29 -91 -29 -55 0 -65 3 -91 29 -27 27 -29 35
-29 101 0 66 2 74 29 101 26 26 36 29 91 29 55 0 65 -3 91 -29z"/>
<path d="M6889 2761 c-27 -28 -29 -34 -29 -111 0 -77 2 -83 29 -111 27 -27 35
-29 101 -29 66 0 74 2 101 29 27 28 29 34 29 111 0 77 -2 83 -29 111 -27 27
-35 29 -101 29 -66 0 -74 -2 -101 -29z m192 -10 c27 -27 29 -35 29 -101 0 -66
-2 -74 -29 -101 -26 -26 -36 -29 -91 -29 -55 0 -65 3 -91 29 -27 27 -29 35
-29 101 0 66 2 74 29 101 26 26 36 29 91 29 55 0 65 -3 91 -29z"/>
<path d="M7239 2761 c-27 -28 -29 -34 -29 -111 0 -77 2 -83 29 -111 27 -27 35
-29 101 -29 66 0 74 2 101 29 27 28 29 34 29 111 0 77 -2 83 -29 111 -27 27
-35 29 -101 29 -66 0 -74 -2 -101 -29z m192 -10 c27 -27 29 -35 29 -101 0 -66
-2 -74 -29 -101 -26 -26 -36 -29 -91 -29 -55 0 -65 3 -91 29 -27 27 -29 35
-29 101 0 66 2 74 29 101 26 26 36 29 91 29 55 0 65 -3 91 -29z"/>
<path d="M7589 2761 c-27 -28 -29 -34 -29 -111 0 -77 2 -83 29 -111 27 -27 35
-29 101 -29 66 0 74 2 101 29 27 28 29 34 29 111 0 77 -2 83 -29 111 -27 27
-35 29 -101 29 -66 0 -74 -2 -101 -29z m192 -10 c27 -27 29 -35 29 -101 0 -66
-2 -74 -29 -101 -26 -26 -36 -29 -91 -29 -55 0 -65 3 -91 29 -27 27 -29 35
-29 101 0 66 2 74 29 101 26 26 36 29 91 29 55 0 65 -3 91 -29z"/>
<path d="M6169 2411 c-27 -28 -29 -34 -29 -111 0 -77 2 -83 29 -111 27 -27 35
-29 101 -29 66 0 74 2 101 29 27 28 29 34 29 111 0 77 -2 83 -29 111 -27 27
-35 29 -101 29 -66 0 -74 -2 -101 -29z m192 -10 c27 -27 29 -35 29 -101 0 -66
-2 -74 -29 -101 -26 -26 -36 -29 -91 -29 -55 0 -65 3 -91 29 -27 27 -29 35
-29 101 0 66 2 74 29 101 26 26 36 29 91 29 55 0 65 -3 91 -29z"/>
<path d="M6529 2411 c-27 -28 -29 -34 -29 -111 0 -77 2 -83 29 -111 27 -27 35
-29 101 -29 66 0 74 2 101 29 27 28 29 34 29 111 0 77 -2 83 -29 111 -27 27
-35 29 -101 29 -66 0 -74 -2 -101 -29z m192 -10 c27 -27 29 -35 29 -101 0 -66
-2 -74 -29 -101 -26 -26 -36 -29 -91 -29 -55 0 -65 3 -91 29 -27 27 -29 35
-29 101 0 66 2 74 29 101 26 26 36 29 91 29 55 0 65 -3 91 -29z"/>
<path d="M6889 2411 c-27 -28 -29 -34 -29 -111 0 -77 2 -83 29 -111 27 -27 35
-29 101 -29 66 0 74 2 101 29 27 28 29 34 29 111 0 77 -2 83 -29 111 -27 27
-35 29 -101 29 -66 0 -74 -2 -101 -29z m192 -10 c27 -27 29 -35 29 -101 0 -66
-2 -74 -29 -101 -26 -26 -36 -29 -91 -29 -55 0 -65 3 -91 29 -27 27 -29 35
-29 101 0 66 2 74 29 101 26 26 36 29 91 29 55 0 65 -3 91 -29z"/>
<path d="M7239 2411 c-27 -28 -29 -34 -29 -111 0 -77 2 -83 29 -111 27 -27 35
-29 101 -29 66 0 74 2 101 29 27 28 29 34 29 111 0 77 -2 83 -29 111 -27 27
-35 29 -101 29 -66 0 -74 -2 -101 -29z m192 -10 c27 -27 29 -35 29 -101 0 -66
-2 -74 -29 -101 -26 -26 -36 -29 -91 -29 -55 0 -65 3 -91 29 -27 27 -29 35
-29 101 0 66 2 74 29 101 26 26 36 29 91 29 55 0 65 -3 91 -29z"/>
<path d="M7589 2411 c-27 -28 -29 -34 -29 -111 0 -77 2 -83 29 -111 27 -27 35
-29 101 -29 66 0 74 2 101 29 27 28 29 34 29 111 0 77 -2 83 -29 111 -27 27
-35 29 -101 29 -66 0 -74 -2 -101 -29z m192 -10 c27 -27 29 -35 29 -101 0 -66
-2 -74 -29 -101 -26 -26 -36 -29 -91 -29 -55 0 -65 3 -91 29 -27 27 -29 35
-29 101 0 66 2 74 29 101 26 26 36 29 91 29 55 0 65 -3 91 -29z"/>
<path d="M6169 2061 c-27 -28 -29 -34 -29 -111 0 -77 2 -83 29 -111 27 -27 35
-29 101 -29 66 0 74 2 101 29 27 28 29 34 29 111 0 77 -2 83 -29 111 -27 27
-35 29 -101 29 -66 0 -74 -2 -101 -29z m192 -10 c27 -27 29 -35 29 -101 0 -66
-2 -74 -29 -101 -26 -26 -36 -29 -91 -29 -55 0 -65 3 -91 29 -27 27 -29 35
-29 101 0 66 2 74 29 101 26 26 36 29 91 29 55 0 65 -3 91 -29z"/>
<path d="M6529 2061 c-27 -28 -29 -34 -29 -111 0 -77 2 -83 29 -111 27 -27 35
-29 101 -29 66 0 74 2 101 29 27 28 29 34 29 111 0 77 -2 83 -29 111 -27 27
-35 29 -101 29 -66 0 -74 -2 -101 -29z m192 -10 c27 -27 29 -35 29 -101 0 -66
-2 -74 -29 -101 -26 -26 -36 -29 -91 -29 -55 0 -65 3 -91 29 -27 27 -29 35
-29 101 0 66 2 74 29 101 26 26 36 29 91 29 55 0 65 -3 91 -29z"/>
<path d="M6889 2061 c-27 -28 -29 -34 -29 -111 0 -77 2 -83 29 -111 27 -27 35
-29 101 -29 66 0 74 2 101 29 27 28 29 34 29 111 0 77 -2 83 -29 111 -27 27
-35 29 -101 29 -66 0 -74 -2 -101 -29z m192 -10 c27 -27 29 -35 29 -101 0 -66
-2 -74 -29 -101 -26 -26 -36 -29 -91 -29 -55 0 -65 3 -91 29 -27 27 -29 35
-29 101 0 66 2 74 29 101 26 26 36 29 91 29 55 0 65 -3 91 -29z"/>
<path d="M7239 2061 c-27 -28 -29 -34 -29 -111 0 -77 2 -83 29 -111 27 -27 35
-29 101 -29 66 0 74 2 101 29 27 28 29 34 29 111 0 77 -2 83 -29 111 -27 27
-35 29 -101 29 -66 0 -74 -2 -101 -29z m192 -10 c27 -27 29 -35 29 -101 0 -66
-2 -74 -29 -101 -26 -26 -36 -29 -91 -29 -55 0 -65 3 -91 29 -27 27 -29 35
-29 101 0 66 2 74 29 101 26 26 36 29 91 29 55 0 65 -3 91 -29z"/>
<path d="M7589 2061 c-27 -28 -29 -34 -29 -111 0 -77 2 -83 29 -111 27 -27 35
-29 101 -29 66 0 74 2 101 29 27 28 29 34 29 111 0 77 -2 83 -29 111 -27 27
-35 29 -101 29 -66 0 -74 -2 -101 -29z m192 -10 c27 -27 29 -35 29 -101 0 -66
-2 -74 -29 -101 -26 -26 -36 -29 -91 -29 -55 0 -65 3 -91 29 -27 27 -29 35
-29 101 0 66 2 74 29 101 26 26 36 29 91 29 55 0 65 -3 91 -29z"/>
<path d="M6179 1721 c-27 -28 -29 -34 -29 -111 0 -77 2 -83 29 -111 27 -27 35
-29 101 -29 66 0 74 2 101 29 27 28 29 34 29 111 0 77 -2 83 -29 111 -27 27
-35 29 -101 29 -66 0 -74 -2 -101 -29z m192 -10 c27 -27 29 -35 29 -101 0 -66
-2 -74 -29 -101 -26 -26 -36 -29 -91 -29 -55 0 -65 3 -91 29 -27 27 -29 35
-29 101 0 66 2 74 29 101 26 26 36 29 91 29 55 0 65 -3 91 -29z"/>
<path d="M6539 1721 c-27 -28 -29 -34 -29 -111 0 -77 2 -83 29 -111 27 -27 35
-29 101 -29 66 0 74 2 101 29 27 28 29 34 29 111 0 77 -2 83 -29 111 -27 27
-35 29 -101 29 -66 0 -74 -2 -101 -29z m192 -10 c27 -27 29 -35 29 -101 0 -66
-2 -74 -29 -101 -26 -26 -36 -29 -91 -29 -55 0 -65 3 -91 29 -27 27 -29 35
-29 101 0 66 2 74 29 101 26 26 36 29 91 29 55 0 65 -3 91 -29z"/>
<path d="M6899 1721 c-27 -28 -29 -34 -29 -111 0 -77 2 -83 29 -111 27 -27 35
-29 101 -29 66 0 74 2 101 29 27 28 29 34 29 111 0 77 -2 83 -29 111 -27 27
-35 29 -101 29 -66 0 -74 -2 -101 -29z m192 -10 c27 -27 29 -35 29 -101 0 -66
-2 -74 -29 -101 -26 -26 -36 -29 -91 -29 -55 0 -65 3 -91 29 -27 27 -29 35
-29 101 0 66 2 74 29 101 26 26 36 29 91 29 55 0 65 -3 91 -29z"/>
<path d="M7249 1721 c-27 -28 -29 -34 -29 -111 0 -77 2 -83 29 -111 27 -27 35
-29 101 -29 66 0 74 2 101 29 27 28 29 34 29 111 0 77 -2 83 -29 111 -27 27
-35 29 -101 29 -66 0 -74 -2 -101 -29z m192 -10 c27 -27 29 -35 29 -101 0 -66
-2 -74 -29 -101 -26 -26 -36 -29 -91 -29 -55 0 -65 3 -91 29 -27 27 -29 35
-29 101 0 66 2 74 29 101 26 26 36 29 91 29 55 0 65 -3 91 -29z"/>
<path d="M7599 1721 c-27 -28 -29 -34 -29 -111 0 -77 2 -83 29 -111 27 -27 35
-29 101 -29 66 0 74 2 101 29 27 28 29 34 29 111 0 77 -2 83 -29 111 -27 27
-35 29 -101 29 -66 0 -74 -2 -101 -29z m192 -10 c27 -27 29 -35 29 -101 0 -66
-2 -74 -29 -101 -26 -26 -36 -29 -91 -29 -55 0 -65 3 -91 29 -27 27 -29 35
-29 101 0 66 2 74 29 101 26 26 36 29 91 29 55 0 65 -3 91 -29z"/>
</g>
</svg>
