<?xml version="1.0" encoding="UTF-8" standalone="no"?>
<!-- Created with Inkscape (http://www.inkscape.org/) -->

<svg
   xmlns:dc="http://purl.org/dc/elements/1.1/"
   xmlns:cc="http://creativecommons.org/ns#"
   xmlns:rdf="http://www.w3.org/1999/02/22-rdf-syntax-ns#"
   xmlns:svg="http://www.w3.org/2000/svg"
   xmlns="http://www.w3.org/2000/svg"
   xmlns:sodipodi="http://sodipodi.sourceforge.net/DTD/sodipodi-0.dtd"
   xmlns:inkscape="http://www.inkscape.org/namespaces/inkscape"
   version="1.1"
   id="svg6787"
   width="144"
   height="150.39999"
   viewBox="0 0 144 150.39999"
   sodipodi:docname="starbucks2.svg"
   inkscape:version="0.92.2 (5c3e80d, 2017-08-06)"
   inkscape:export-filename="C:\Users\Nilaja\Desktop\Icons\Restaurants\starbucks2.png"
   inkscape:export-xdpi="96"
   inkscape:export-ydpi="96">
  <metadata
     id="metadata6793">
    <rdf:RDF>
      <cc:Work
         rdf:about="">
        <dc:format>image/svg+xml</dc:format>
        <dc:type
           rdf:resource="http://purl.org/dc/dcmitype/StillImage" />
        <dc:title></dc:title>
      </cc:Work>
    </rdf:RDF>
  </metadata>
  <defs
     id="defs6791">
    <inkscape:path-effect
       effect="bspline"
       id="path-effect7945"
       is_visible="true"
       weight="33.333333"
       steps="2"
       helper_size="0"
       apply_no_weight="true"
       apply_with_weight="true"
       only_selected="false" />
    <inkscape:path-effect
       effect="bspline"
       id="path-effect7941"
       is_visible="true"
       weight="33.333333"
       steps="2"
       helper_size="0"
       apply_no_weight="true"
       apply_with_weight="true"
       only_selected="false" />
    <inkscape:path-effect
       effect="bspline"
       id="path-effect7926"
       is_visible="true"
       weight="33.333333"
       steps="2"
       helper_size="0"
       apply_no_weight="true"
       apply_with_weight="true"
       only_selected="false" />
    <inkscape:path-effect
       effect="bspline"
       id="path-effect7922"
       is_visible="true"
       weight="33.333333"
       steps="2"
       helper_size="0"
       apply_no_weight="true"
       apply_with_weight="true"
       only_selected="false" />
    <inkscape:path-effect
       effect="bspline"
       id="path-effect7350"
       is_visible="true"
       weight="33.333333"
       steps="2"
       helper_size="0"
       apply_no_weight="true"
       apply_with_weight="true"
       only_selected="false" />
    <inkscape:path-effect
       effect="bspline"
       id="path-effect7346"
       is_visible="true"
       weight="33.333333"
       steps="2"
       helper_size="0"
       apply_no_weight="true"
       apply_with_weight="true"
       only_selected="false" />
  </defs>
  <sodipodi:namedview
     pagecolor="#ffffff"
     bordercolor="#666666"
     borderopacity="1"
     objecttolerance="10"
     gridtolerance="10"
     guidetolerance="10"
     inkscape:pageopacity="0"
     inkscape:pageshadow="2"
     inkscape:window-width="1355"
     inkscape:window-height="730"
     id="namedview6789"
     showgrid="false"
     inkscape:zoom="4.4382236"
     inkscape:cx="44.194614"
     inkscape:cy="55.911293"
     inkscape:window-x="0"
     inkscape:window-y="30"
     inkscape:window-maximized="0"
     inkscape:current-layer="svg6787" />
  <path
     style="fill:none;fill-rule:evenodd;stroke:#000000;stroke-width:0.5;stroke-linecap:butt;stroke-linejoin:miter;stroke-opacity:1;stroke-miterlimit:4;stroke-dasharray:none"
     d="m 40.707275,73.420906 c 11.392022,0.132775 34.175066,0.398312 45.645754,0.610732 11.470688,0.212419 11.630018,0.371749 11.683149,1.035069 0.05313,0.66332 2.4e-5,1.831682 0.02652,2.496001 0.0265,0.664319 0.13262,0.823498 1.489162,1.249063 1.356546,0.425566 3.955036,1.114961 6.397386,2.389246 2.44234,1.274285 4.72656,3.133532 6.13274,5.384994 1.40618,2.251461 1.93932,4.917169 1.59431,7.519582 -0.34501,2.602412 -1.56612,5.150828 -3.01366,7.393227 -1.44753,2.24239 -3.17246,4.23683 -5.27077,6.12276 -2.09831,1.88592 -4.593,3.69059 -7.302105,5.36392 -2.709106,1.67332 -5.628688,3.21274 -7.461048,4.19529 -1.832359,0.98254 -2.557194,1.39673 -3.48246,2.26724 -0.925266,0.8705 -1.960271,2.11251 -3.182752,3.4945 -1.22248,1.38199 -2.60209,2.86773 -4.115542,4.08937 -1.513452,1.22165 -3.16096,2.17827 -4.807287,3.1342 -1.964972,0.31864 -3.928325,0.63702 -7.035934,0.82303 -3.107609,0.18601 -7.353766,0.23908 -10.67427,-0.15924 -3.320504,-0.39833 -5.708101,-1.24725 -7.833918,-2.41638 -2.125818,-1.16912 -3.98344,-2.65522 -5.470573,-4.16892 -1.487134,-1.5137 -2.602365,-3.05378 -4.036324,-5.60309 -1.43396,-2.54932 -3.18647,-6.10745 -4.673471,-9.9313 -1.487001,-3.82384 -2.708469,-7.9131 -3.611262,-11.843141 -0.902793,-3.930036 -1.486973,-7.700656 -1.83212,-11.60412 -0.345147,-3.903463 -0.451362,-7.939622 -0.504456,-9.957215 -0.0531,-2.017592 -0.0531,-2.017592 11.338927,-1.884818 z"
     id="path7344"
     inkscape:connector-curvature="0"
     inkscape:path-effect="#path-effect7346"
     inkscape:original-d="m 29.315253,73.288132 c 22.784056,0.264537 45.5671,0.530074 68.34915,0.796611 0.160315,0.158314 0.319644,0.317644 0.477966,0.477966 -0.05211,1.167361 -0.105215,2.335723 -0.159322,3.505084 0.10731,0.158465 0.213429,0.317644 0.318644,0.477966 2.607029,0.690396 5.205519,1.379791 7.806779,2.071187 2.28401,1.857267 4.56823,3.716514 6.85085,5.576271 0.47894,2.654237 1.06314,5.309734 1.59322,7.966101 -1.22082,2.548891 -2.44194,5.097305 -3.66441,7.647462 -1.69924,1.91176 -3.39787,3.92894 -5.0983,5.89491 -2.4964,1.80563 -4.99109,3.6103 -7.488139,5.41695 -2.921228,1.53981 -5.840808,3.07923 -8.762711,4.62034 -0.742807,0.42403 -1.467641,0.83822 -2.230509,1.27457 -1.087383,1.30506 -2.122389,2.54707 -3.186441,3.82374 -1.380966,1.48727 -2.760578,2.973 -4.142372,4.46101 -1.645331,0.95493 -4.938982,2.8678 -4.938982,2.8678 0,0 -3.928457,0.63621 -5.894916,0.95593 -4.24864,0.0521 -8.494796,0.1052 -12.745762,0.15932 -2.389603,-0.85099 -4.7772,-1.69991 -7.169491,-2.54915 -1.858894,-1.48891 -3.716513,-2.97501 -5.576271,-4.46101 -1.114255,-1.54112 -2.229488,-3.0812 -3.345763,-4.62034 -1.751575,-3.55926 -3.504083,-7.11739 -5.257626,-10.67458 -1.22047,-4.09027 -2.441938,-8.17953 -3.664407,-12.267799 -0.583181,-3.771623 -1.167362,-7.542243 -1.752542,-11.311864 -0.105215,-4.037158 -0.21143,-8.073317 -0.318645,-12.108475 0.001,-0.001 0.001,-0.001 0,0 z"
     sodipodi:nodetypes="cccccccccccccccccccccccccc" />
  <path
     style="fill:none;fill-rule:evenodd;stroke:#000000;stroke-width:0.5;stroke-linecap:butt;stroke-linejoin:miter;stroke-miterlimit:4;stroke-dasharray:none;stroke-opacity:1"
     d="m 97.563128,90.327967 c -0.269954,1.386585 -0.482566,2.130727 -1.020726,4.041274 -0.538161,1.910546 -1.373711,4.887195 -2.276643,7.569559 -0.902932,2.68237 -1.85849,5.01818 -2.309633,6.18715 -0.451142,1.16896 -0.398067,1.16896 0.696778,0.54333 1.094845,-0.62564 3.313243,-1.92421 4.401354,-2.56116 1.088111,-0.63694 4.019252,-3.56808 4.019252,-3.56808 0,0 3.44174,-3.441739 3.94639,-4.238556 0.50465,-0.796817 1.51417,-2.39079 1.93867,-3.956754 0.4245,-1.565963 0.26506,-3.107203 -0.45146,-4.487188 -0.71653,-1.379984 -1.99093,-2.601282 -3.42078,-3.405408 -1.42985,-0.804127 -3.01111,-1.189302 -3.968128,-0.36608 -0.957022,0.823222 -1.28512,2.855327 -1.555074,4.241913 z"
     id="path7348"
     inkscape:connector-curvature="0"
     inkscape:path-effect="#path-effect7350"
     inkscape:original-d="m 97.505081,90.972878 c -0.211247,0.741863 -0.423859,1.486005 -0.637288,2.230508 -0.849061,3.080469 -1.698435,6.053237 -2.549153,9.081354 -0.955307,2.33664 -1.910864,4.67245 -2.867796,7.01017 0.05414,-0.001 0.107215,-0.001 0.159322,0 2.137401,-1.25158 4.355802,-2.55015 6.532203,-3.82373 l 2.931141,-2.93114 3.44174,-3.441739 c 1.00956,-1.59347 2.01908,-3.187441 3.02712,-4.779661 -0.15821,-1.539986 -0.31765,-3.081226 -0.47797,-4.620339 -1.27284,-1.221765 -2.54724,-2.443061 -3.82373,-3.664406 -1.5839,-0.387062 -3.16516,-0.772237 -4.751289,-1.157355 -0.327383,2.032868 -0.655482,4.064973 -0.9843,6.096338 z"
     sodipodi:nodetypes="ccccccccccccc" />
  <path
     style="fill:none;fill-rule:evenodd;stroke:#000000;stroke-width:0.5;stroke-linecap:butt;stroke-linejoin:miter;stroke-opacity:1;stroke-miterlimit:4;stroke-dasharray:none"
     d="m 53.55058,105.84388 c 0.676415,0.0562 1.727886,-0.0564 2.937549,-0.56903 1.209664,-0.51259 2.545653,-1.40325 3.591089,-2.4271 1.045436,-1.02385 1.808153,-2.20606 2.662122,-3.266364 0.853969,-1.060301 1.850067,-2.056399 2.90617,-2.892469 1.056103,-0.836069 2.248694,-1.567013 3.37473,-2.073625 1.126035,-0.506613 2.216156,-0.807336 2.91071,-0.995042 0.694554,-0.187705 0.995302,-0.262892 0.976574,-0.487353 -0.01873,-0.224461 -0.358024,-0.601456 -1.033719,-1.089479 -0.675696,-0.488022 -1.689765,-1.088951 -2.816244,-1.464536 -1.126479,-0.375585 -2.365345,-0.525751 -3.73873,-0.506741 -1.373385,0.01901 -2.869812,0.206062 -4.372438,0.769401 -1.502626,0.563339 -3.003621,1.501461 -4.205769,2.478059 -1.202148,0.976599 -2.102708,1.989729 -2.82432,3.018918 -0.721612,1.02919 -1.231439,2.012427 -1.588503,3.026971 -0.357065,1.01454 -0.544606,2.02726 -0.525893,3.02317 0.01871,0.9959 0.243773,1.97116 0.506917,2.57251 0.263144,0.60135 0.563341,0.8265 1.239755,0.88271 z"
     id="path7939"
     inkscape:connector-curvature="0"
     inkscape:path-effect="#path-effect7941"
     inkscape:original-d="m 53.174428,106.01287 c 1.052472,-0.11366 2.103943,-0.22632 3.154415,-0.33798 1.351485,-0.93883 2.704785,-1.80352 4.055677,-2.70378 0.713889,-1.16414 1.503102,-2.32926 2.253153,-3.49239 0.938878,-0.976393 1.953734,-1.953733 2.9291,-2.9291 1.126423,-0.713768 2.329259,-1.427997 3.492389,-2.140496 1.088927,-0.301118 2.179048,-0.601841 3.267073,-0.901262 0.301093,-0.07602 0.60184,-0.15121 0.901261,-0.225315 -0.33565,-0.375055 -0.674946,-0.752051 -1.013919,-1.126577 -1.01277,-0.601752 -2.026839,-1.202682 -3.041758,-1.802523 -1.238603,-0.151255 -2.477469,-0.30142 -3.717703,-0.450631 -1.502153,0.224473 -3.003205,0.374526 -4.506308,0.563289 -1.50221,0.938506 -3.003205,1.876628 -4.506307,2.816442 -0.900963,1.013708 -1.801523,2.026838 -2.703785,3.041758 -0.525283,1.051566 -1.050471,2.026838 -1.577207,3.041757 -0.186985,1.014118 -0.374526,2.026838 -0.563289,3.041758 0.22657,0.97647 0.451631,1.95173 0.675946,2.9291 0.301646,0.22448 0.601841,0.44963 0.901262,0.67595 z" />
  <path
     style="fill:none;fill-rule:evenodd;stroke:#000000;stroke-width:0.5;stroke-linecap:butt;stroke-linejoin:miter;stroke-miterlimit:4;stroke-dasharray:none;stroke-opacity:1"
     d="m 55.334589,108.92317 c 0.05607,0.31941 1.370406,0.73249 2.477971,1.05161 1.107564,0.31912 2.009376,0.54457 3.266961,0.54449 1.257585,-8e-5 2.873609,-0.22557 4.52537,-0.82634 1.65176,-0.60076 3.342794,-1.57781 4.731693,-2.7792 1.388898,-1.2014 2.478683,-2.6294 3.210542,-4.05587 0.731859,-1.42647 1.107677,-2.85458 1.25771,-3.868094 0.150033,-1.013512 0.07487,-1.614852 -0.112947,-2.290625 -0.187812,-0.675774 -0.487967,-1.426159 -1.351744,-1.407436 -0.863778,0.01872 -2.289509,0.806627 -3.585639,1.651867 -1.296131,0.84524 -2.459206,1.745685 -3.323304,2.553284 -0.864098,0.807604 -1.426846,1.520414 -2.018106,2.341484 -0.59126,0.82107 -1.173814,1.69491 -1.887681,2.48407 -0.713866,0.78917 -1.538964,1.46425 -2.365636,2.08429 -0.826672,0.62005 -1.651738,1.18259 -2.666494,1.57733 -1.014756,0.39474 -2.214764,0.61974 -2.158696,0.93914 z"
     id="path7943"
     inkscape:connector-curvature="0"
     inkscape:path-effect="#path-effect7945"
     inkscape:original-d="m 54.075689,108.8293 c 1.315344,0.41208 2.629682,0.82516 3.943019,1.23924 0.90171,0.22418 1.803523,0.44963 2.703785,0.67595 1.614495,-0.22614 3.23052,-0.45163 4.84428,-0.67595 1.689696,-0.97669 3.380731,-1.95373 5.069596,-2.9291 1.089262,-1.427 2.179049,-2.85499 3.267073,-4.28099 0.376232,-1.42688 0.752051,-2.85499 1.126577,-4.280992 -0.07404,-0.601343 -0.14921,-1.202682 -0.225315,-1.802523 -0.299421,-0.752051 -0.599575,-1.502436 -0.901262,-2.253154 -1.427264,0.788304 -2.852995,1.576208 -4.280992,2.365812 -1.164184,0.901078 -2.327259,1.801523 -3.492388,2.703784 -0.562825,0.713183 -1.125577,1.425993 -1.689866,2.140493 -0.600769,0.93927 -1.200682,1.80153 -1.802523,2.70379 -0.826214,0.67581 -1.651312,1.35089 -2.478469,2.02784 -0.826245,0.56303 -1.651312,1.12557 -2.478469,1.68986 -1.202353,0.22463 -2.40236,0.44963 -3.605046,0.67594 z"
     sodipodi:nodetypes="cccccccccccccccc" />
</svg>
