<?xml version="1.0" encoding="UTF-8" standalone="no"?>
<!-- Created with Inkscape (http://www.inkscape.org/) -->

<svg
   xmlns:dc="http://purl.org/dc/elements/1.1/"
   xmlns:cc="http://creativecommons.org/ns#"
   xmlns:rdf="http://www.w3.org/1999/02/22-rdf-syntax-ns#"
   xmlns:svg="http://www.w3.org/2000/svg"
   xmlns="http://www.w3.org/2000/svg"
   xmlns:sodipodi="http://sodipodi.sourceforge.net/DTD/sodipodi-0.dtd"
   xmlns:inkscape="http://www.inkscape.org/namespaces/inkscape"
   version="1.1"
   id="svg7947"
   width="1122"
   height="1454"
   viewBox="0 0 1122 1454"
   sodipodi:docname="vending machine2.svg"
   inkscape:version="0.92.2 (5c3e80d, 2017-08-06)"
   inkscape:export-filename="C:\Users\Nilaja\Desktop\Icons\Restaurants\vending machine2.png"
   inkscape:export-xdpi="96"
   inkscape:export-ydpi="96">
  <metadata
     id="metadata7953">
    <rdf:RDF>
      <cc:Work
         rdf:about="">
        <dc:format>image/svg+xml</dc:format>
        <dc:type
           rdf:resource="http://purl.org/dc/dcmitype/StillImage" />
        <dc:title></dc:title>
      </cc:Work>
    </rdf:RDF>
  </metadata>
  <defs
     id="defs7951">
    <inkscape:path-effect
       effect="bspline"
       id="path-effect8535"
       is_visible="true"
       weight="33.333333"
       steps="2"
       helper_size="0"
       apply_no_weight="true"
       apply_with_weight="true"
       only_selected="false" />
    <inkscape:path-effect
       effect="bspline"
       id="path-effect8531"
       is_visible="true"
       weight="33.333333"
       steps="2"
       helper_size="0"
       apply_no_weight="true"
       apply_with_weight="true"
       only_selected="false" />
    <inkscape:path-effect
       effect="bspline"
       id="path-effect8527"
       is_visible="true"
       weight="33.333333"
       steps="2"
       helper_size="0"
       apply_no_weight="true"
       apply_with_weight="true"
       only_selected="false" />
    <inkscape:path-effect
       effect="bspline"
       id="path-effect8523"
       is_visible="true"
       weight="33.333333"
       steps="2"
       helper_size="0"
       apply_no_weight="true"
       apply_with_weight="true"
       only_selected="false" />
    <inkscape:path-effect
       effect="bspline"
       id="path-effect8519"
       is_visible="true"
       weight="33.333333"
       steps="2"
       helper_size="0"
       apply_no_weight="true"
       apply_with_weight="true"
       only_selected="false" />
    <inkscape:path-effect
       effect="bspline"
       id="path-effect8506"
       is_visible="true"
       weight="33.333333"
       steps="2"
       helper_size="0"
       apply_no_weight="true"
       apply_with_weight="true"
       only_selected="false" />
  </defs>
  <sodipodi:namedview
     pagecolor="#ffffff"
     bordercolor="#666666"
     borderopacity="1"
     objecttolerance="10"
     gridtolerance="10"
     guidetolerance="10"
     inkscape:pageopacity="0"
     inkscape:pageshadow="2"
     inkscape:window-width="1352"
     inkscape:window-height="733"
     id="namedview7949"
     showgrid="false"
     inkscape:zoom="0.32462173"
     inkscape:cx="152.53153"
     inkscape:cy="719.86082"
     inkscape:window-x="0"
     inkscape:window-y="30"
     inkscape:window-maximized="0"
     inkscape:current-layer="svg7947" />
  <g
     id="g8541">
    <path
       sodipodi:nodetypes="ccccccccccccccccccccccccccccccccccccccccccccccccc"
       inkscape:original-d="m 70.851695,248.59357 c 10e-4,-7.7e-4 10e-4,-7.7e-4 0,0 173.538425,0.78291 347.070575,1.56654 520.605935,2.35097 27.72574,-0.78443 55.45015,-1.56807 83.17373,-2.35097 36.96572,1.56648 73.9332,3.13386 110.8983,4.70192 84.19942,-0.7844 170.4558,-3.13538 255.68224,-4.70192 1.0278,-0.7844 2.0546,-1.56807 3.0805,-2.35097 1.0268,18.78864 2.0546,37.61467 3.0805,56.42313 10e-4,3.13397 10e-4,6.26847 0,9.40386 -6.1615,14.10844 -12.3211,28.2108 -18.4831,42.31735 -17.4563,43.10302 -34.9114,86.20123 -52.36861,129.30298 10e-4,0.78292 10e-4,1.56657 0,2.35098 7.19585,12.54991 14.3767,25.07618 21.56356,37.61541 -4.10647,116.76712 -8.21369,233.52829 -12.32204,350.29357 -6.16006,48.58613 -12.32103,97.1724 -18.48305,145.75972 10e-4,3.9177 10e-4,7.8358 0,11.7548 12.32544,23.5135 24.64507,47.0185 36.96614,70.5289 10e-4,13.3216 10e-4,25.0762 0,37.6155 12.3237,28.2126 24.645,56.4224 36.9661,84.6346 1.0278,7.0523 2.0546,15.6723 3.0805,23.5096 10e-4,13.3226 10e-4,25.0763 0,37.6156 -1.0259,-7e-4 -2.0527,-1.5682 -3.0805,-2.3511 -51.34084,1.5666 -102.68265,3.134 -154.02546,4.702 -52.3687,-0.7845 -104.73629,-1.568 -157.10593,-2.3509 -18.4824,-2.3518 -36.9651,-4.7027 -55.44915,-7.053 -54.42371,1.5667 -108.84364,3.1339 -163.26695,4.7019 -33.88524,-0.7844 -67.77019,-1.568 -101.65678,-2.3509 -29.7781,0.7829 -61.60917,1.5665 -92.41526,2.3509 -33.88572,-7e-4 -67.77018,-7e-4 -101.65678,0 -18.48259,0.7829 -36.9651,1.5666 -55.44915,2.3511 -29.77894,-0.7845 -59.5555,-1.5682 -89.334745,-2.3511 -1.025869,-2.3518 -2.052672,-4.7026 -3.080509,-7.0528 2.054273,-11.7533 4.108345,-23.5105 6.161017,-35.2644 6.161572,-21.9415 12.323034,-43.8855 18.483051,-65.827 9.242156,-22.7258 18.484056,-45.4526 27.724576,-68.178 6.16177,-9.4042 12.32303,-18.8085 18.48305,-28.2115 2.05447,-10.1874 4.10835,-20.3758 6.16102,-30.5625 4.108,-29.7772 8.21569,-59.5586 12.32203,-89.33668 -3.07942,-46.23508 -6.16001,-92.47204 -9.24152,-138.70689 1.02782,-49.37023 2.05467,-98.74124 3.08051,-148.1107 -2.05264,-52.50481 -4.10635,-105.01047 -6.16102,-157.51457 -1.02582,-1.56804 -2.05267,-3.13538 -3.08051,-4.70194 -1.02564,-5.48527 -2.05267,-10.97191 -3.08051,-16.45673 0.001,-11.75422 0.001,-23.51041 0,-35.26446 -3.07931,-10.97122 -6.16002,-21.94309 -9.24152,-32.9135 -3.07935,-10.18773 -6.16002,-20.37577 -9.24153,-30.56252 -9.24002,-14.88939 -18.48205,-31.34693 -27.724576,-47.01928 -5.133066,-17.24078 -10.267361,-34.48156 -15.402542,-51.72118 -2.052606,-15.67335 -4.10637,-31.34713 -6.161017,-47.01928 z"
       inkscape:path-effect="#path-effect8506"
       inkscape:connector-curvature="0"
       id="path8504"
       d="m 71.878479,256.42972 c -1.026784,-7.83615 -1.026784,-7.83615 85.742431,-7.44431 86.76921,0.39183 260.30136,1.17547 360.93192,1.17546 100.63056,-2e-5 128.35497,-0.78367 160.69959,-0.39184 32.34463,0.39183 69.31211,1.95919 129.88736,1.96876 60.57525,0.01 146.84569,-1.57693 189.97281,-2.75277 43.12711,-1.17585 44.15391,-1.95949 45.17981,7.04339 1.0258,9.00288 2.0536,27.82891 2.5671,38.8001 0.5134,10.97119 0.5134,14.10569 -2.5676,22.72748 -3.0811,8.62179 -9.2406,22.72417 -21.0498,51.32894 -11.8092,28.60478 -29.2643,71.703 -37.99261,93.64545 -8.7283,21.94246 -8.7283,22.72611 -5.13092,29.39358 3.59739,6.66747 10.77824,19.19374 12.31849,83.84659 1.54025,64.65285 -2.56698,181.41402 -7.70114,264.08968 -5.13416,82.67567 -11.29513,131.26194 -14.3757,157.5145 -3.08056,26.25257 -3.08056,30.17067 3.08162,43.88717 6.16219,13.7166 18.48181,37.2216 24.64288,55.6373 6.16108,18.4157 6.16108,30.1703 12.32238,50.5465 6.1614,20.3761 18.4827,48.5859 25.1066,66.2247 6.624,17.6387 7.7518,26.2454 8.2652,36.8253 0.5135,10.5799 0.5135,22.3336 0.1892,28.3557 -0.3243,6.0222 -1.7291,4.95 -27.9131,5.3417 -26.18392,0.3917 -77.52573,1.959 -129.3815,2.3509 -51.85577,0.3919 -104.22336,-0.3918 -139.64943,-1.959 -35.42607,-1.5673 -53.90876,-3.9183 -90.36258,-4.3102 -36.45382,-0.3919 -90.87375,1.1754 -135.02804,1.5672 -44.1543,0.3919 -78.03925,-0.3917 -109.87191,-0.4048 -31.83266,-0.013 -63.66306,0.7966 -96.00898,1.1885 -32.34591,0.3918 -66.23037,0.3918 -92.41495,0.7836 -26.18458,0.3919 -44.66709,1.1756 -68.79861,1.1756 -24.13152,0 -53.90808,-0.7837 -69.311193,-2.3512 -15.403111,-1.5675 -16.429893,-3.9183 -15.916539,-10.9704 0.513354,-7.052 2.567445,-18.8092 6.67461,-35.657 4.107166,-16.8477 10.268649,-38.7917 17.969785,-61.1254 7.701137,-22.3336 16.942997,-45.0605 24.644287,-61.1253 7.70129,-16.0647 13.86259,-25.469 17.9696,-35.2642 4.10702,-9.7952 6.16087,-19.9836 9.24117,-39.9655 3.08031,-19.9819 7.188,-49.76332 7.70137,-87.76981 0.51337,-38.00648 -2.56722,-84.24344 -3.59403,-132.04603 -1.02681,-47.80258 4e-5,-97.17359 -0.51339,-148.1107 -0.51342,-50.9371 -2.56712,-103.44276 -4.10738,-130.47851 -1.54025,-27.03575 -2.56711,-28.60308 -3.59387,-32.12924 -1.02677,-3.52615 -2.05381,-9.01279 -2.56717,-17.63242 -0.51337,-8.61962 -0.51337,-20.37581 -2.05359,-31.73829 -1.54021,-11.36247 -4.62092,-22.33435 -7.70135,-32.9134 -3.08042,-10.57906 -6.1611,-20.7671 -12.15041,-33.4061 -5.98932,-12.639 -15.57419,-28.89439 -22.762015,-45.3511 -7.187827,-16.45671 -12.322122,-33.69749 -15.915991,-50.15408 -3.593869,-16.45658 -5.647632,-32.13036 -6.674415,-39.9665 z"
       style="fill:none;fill-rule:evenodd;stroke:#000000;stroke-width:0.87359828px;stroke-linecap:butt;stroke-linejoin:miter;stroke-opacity:1" />
    <path
       inkscape:original-d="m 706.99401,746.44414 c 20.88969,2.52923 41.77689,5.06092 62.66165,7.59532 23.41906,-0.63538 46.84047,-1.26831 70.25698,-1.89901 10.76139,-10.12851 21.52265,-21.52261 32.28025,-32.28009 -5.05994,-15.8226 -10.12466,-31.64989 -15.19071,-47.471 -12.02234,-3.16684 -24.04948,-7.59779 -36.0779,-11.39312 -15.82322,8.22702 -31.64483,16.4543 -47.47095,24.685 -20.88865,15.19117 -41.77197,30.37886 -62.66163,45.57199 -21.52059,20.88771 -44.30376,41.77197 -66.45933,62.66166 -29.11639,14.55699 -58.22857,29.11325 -87.34654,43.67346 -20.25387,3.79556 -40.50608,7.59285 -60.76281,11.39286 -30.38316,-2.53465 -60.76035,-5.06585 -91.1442,-7.59533 -22.15229,-22.79018 -44.30375,-45.57444 -66.45933,-68.35821 -18.35294,-27.21893 -36.70838,-54.43562 -55.0663,-81.64987 -7.59272,-31.01621 -15.18822,-62.0312 -22.78603,-93.04309 3.167,-14.55941 8.86369,-29.11799 13.29185,-43.67328 18.35418,5.69291 35.44742,11.39057 53.16746,17.08955 24.68524,18.35138 49.37224,36.70839 74.05466,55.0664 37.34566,18.98549 74.69008,37.97419 112.03143,56.9651 34.18068,6.32677 68.36062,12.65625 102.53724,18.9882 9.49612,1.8963 18.99085,3.79532 28.48257,5.69656 21.51832,-3.79926 41.77689,-7.5978 62.66164,-11.39288 16.45683,-3.79976 34.18154,-7.59804 51.26861,-11.39312 17.08913,-6.33096 34.18154,-12.66142 51.26864,-18.98844 6.33081,-0.63514 12.66138,-0.003 18.98837,0"
       inkscape:path-effect="#path-effect8527"
       inkscape:connector-curvature="0"
       id="path8525"
       d="m 706.99401,746.44414 c 20.88935,2.53203 41.77654,5.0638 63.92866,6.01306 22.15211,0.94925 45.57352,0.31618 62.50423,-5.22275 16.93072,-5.53892 28.00842,-16.61658 30.85575,-29.90616 2.84732,-13.28958 -2.21741,-29.11686 -10.6697,-38.89762 -8.45228,-9.78077 -20.66115,-13.63623 -34.5863,-11.42139 -13.92514,2.21484 -29.74676,10.44211 -48.10423,22.1528 -18.35748,11.71068 -39.24073,26.89847 -60.59498,44.78068 -21.35425,17.88221 -43.83942,39.08252 -69.47519,56.80633 -25.63576,17.7238 -54.74799,32.27998 -79.43396,41.45836 -24.68597,9.17838 -44.93819,12.97561 -70.25842,13.60872 -25.32024,0.6331 -55.69741,-1.89833 -81.96661,-14.55819 -26.26921,-12.65987 -48.42061,-35.44419 -68.67505,-60.44578 -20.25444,-25.00158 -38.60991,-52.21826 -51.58528,-81.33408 -12.97536,-29.11582 -20.57086,-60.13081 -22.20634,-82.74076 -1.63548,-22.60994 2.9027,-37.52111 14.26455,-41.85842 11.36185,-4.3373 28.51434,1.17601 49.71642,13.20111 21.20207,12.02511 45.88905,30.38214 76.90337,49.054 31.01432,18.67185 68.35875,37.66053 104.12027,50.31928 35.76152,12.65875 69.94144,18.98831 91.7778,23.10239 21.83635,4.11409 31.3311,6.01305 46.82644,5.00791 15.49534,-1.00514 35.77419,-4.69216 54.4599,-8.42262 18.68571,-3.73047 36.38065,-7.66271 53.4688,-12.726 17.08814,-5.06329 34.18053,-11.39382 45.88923,-14.55802 11.7087,-3.16419 18.03927,-3.16419 24.36626,-3.16419"
       style="fill:none;fill-rule:evenodd;stroke:#000000;stroke-width:1;stroke-linecap:butt;stroke-linejoin:miter;stroke-opacity:1;stroke-miterlimit:4;stroke-dasharray:none" />
    <path
       inkscape:original-d="m 70.851695,1219.8813 c 128.355515,3.0795 256.710035,6.16 385.063555,9.2415 20.53757,-8.2156 41.07445,-16.4303 61.61017,-24.644 14.37586,6.1596 28.75242,12.321 43.12712,18.483 51.34109,-1.0278 102.68462,-2.0547 154.02543,-3.0805 82.14626,2.0526 164.29478,2.0527 246.44067,3.0805 25.6716,-10e-4 53.39646,-10e-4 80.09326,0"
       inkscape:path-effect="#path-effect8531"
       inkscape:connector-curvature="0"
       id="path8529"
       d="m 70.851695,1219.8813 c 128.355495,3.0805 256.710015,6.161 331.155675,3.5937 74.44566,-2.5673 94.98252,-10.782 112.43795,-11.8087 17.45543,-1.0267 31.832,5.1347 64.69017,7.7017 32.85816,2.567 84.20169,1.5401 150.95163,1.5402 66.74993,10e-5 148.88562,1.0268 202.79437,1.5402 53.90875,0.5134 81.63361,0.5134 108.33041,0.5134"
       style="fill:none;fill-rule:evenodd;stroke:#000000;stroke-width:1px;stroke-linecap:butt;stroke-linejoin:miter;stroke-opacity:1" />
    <path
       inkscape:original-d="m 80.09322,308.05085 c 63.66485,1.02583 129.38236,4.10634 194.07204,6.16101 79.0662,-1.02782 156.08009,-2.05467 234.11864,-3.08051 46.20803,-10e-4 92.41626,-10e-4 138.62288,0 63.66347,2.05263 127.32869,4.10635 190.99153,6.16102 51.34203,-3.08146 102.68461,-6.16202 154.02542,-9.24152 20.53727,3.07944 41.07447,6.16001 61.61017,9.24152"
       inkscape:path-effect="#path-effect8535"
       inkscape:connector-curvature="0"
       id="path8533"
       d="m 80.09322,308.05085 c 63.63329,2.0201 129.38233,4.10737 201.2602,4.61402 71.87788,0.50665 148.89194,-0.5067 211.01523,-1.02011 62.12328,-0.51341 108.33151,-0.51341 163.26654,0.51342 54.93503,1.02683 118.60025,3.08055 176.10273,2.56711 57.50248,-0.51344 108.84506,-3.594 144.78398,-3.59394 35.9389,6e-5 56.4761,3.08064 77.012,6.16102"
       style="fill:none;fill-rule:evenodd;stroke:#000000;stroke-width:1px;stroke-linecap:butt;stroke-linejoin:miter;stroke-opacity:1" />
  </g>
</svg>
