<?xml version="1.0" standalone="no"?>
<!DOCTYPE svg PUBLIC "-//W3C//DTD SVG 20010904//EN"
 "http://www.w3.org/TR/2001/REC-SVG-20010904/DTD/svg10.dtd">
<svg version="1.0" xmlns="http://www.w3.org/2000/svg"
 width="1284.000000pt" height="588.000000pt" viewBox="0 0 1284.000000 588.000000"
 preserveAspectRatio="xMidYMid meet">

<g transform="translate(0.000000,588.000000) scale(0.100000,-0.100000)"
fill="#000000" stroke="none">
<path d="M6062 4061 c-226 -6 -245 -7 -258 -25 -16 -23 -19 -62 -4 -71 6 -3
10 -15 10 -26 0 -10 320 -521 710 -1134 391 -613 710 -1121 710 -1130 0 -8 4
-15 9 -15 5 0 12 -8 15 -17 23 -62 82 -124 135 -142 24 -8 219 -11 656 -11
702 0 684 -2 760 75 80 79 75 6 75 1205 0 1200 5 1126 -75 1205 -76 76 -38 73
-965 80 -454 3 -985 7 -1180 8 -195 2 -464 1 -598 -2z m2603 -109 c49 -14 102
-65 115 -113 14 -46 14 -2092 0 -2138 -13 -46 -65 -99 -110 -111 -47 -13
-1210 -13 -1244 0 -27 10 -115 134 -174 243 -18 33 -39 68 -46 76 -32 36
-1305 2044 -1301 2051 8 13 2713 5 2760 -8z"/>
</g>
</svg>
