<svg id="Icons" xmlns="http://www.w3.org/2000/svg" width="19.97" height="20" viewBox="0 0 19.97 20"><defs><style>.cls-1{fill:#fff;}</style></defs><title>arrow-right</title><path id="Left_Arrow" data-name="Left Arrow" class="cls-1" d="M11,7.77H3A1.39,1.39,0,0,0,1.43,9.31c0,0.53,0,1.07,0,1.6a1.32,1.32,0,0,0,1.41,1.32H11l-0.32.34-2.95,3a1.5,1.5,0,0,0,0,2.37c0.29,0.29.57,0.59,0.89,0.85a1.42,1.42,0,0,0,1.82,0,4.4,4.4,0,0,0,.33-0.3l7.21-7.22a1.52,1.52,0,0,0,0-2.43L10.63,1.46a1.49,1.49,0,0,0-2.29,0l-0.68.69a1.48,1.48,0,0,0,0,2.29c1,1,2,2,3,3Z"/></svg>