<svg id="Icons" xmlns="http://www.w3.org/2000/svg" width="19.97" height="20" viewBox="0 0 19.97 20"><defs><style>.cls-1{fill:#fff;}</style></defs><title>arrow-left</title><path id="Left_Arrow" data-name="Left Arrow" class="cls-1" d="M9,12.23H17a1.39,1.39,0,0,0,1.58-1.54c0-.53,0-1.07,0-1.6a1.32,1.32,0,0,0-1.41-1.32H9l0.32-.34,2.95-3a1.5,1.5,0,0,0,0-2.37C12,1.81,11.7,1.51,11.39,1.25a1.42,1.42,0,0,0-1.82,0,4.4,4.4,0,0,0-.33.3L2,8.78a1.52,1.52,0,0,0,0,2.43l7.32,7.33a1.49,1.49,0,0,0,2.29,0l0.68-.69a1.48,1.48,0,0,0,0-2.29c-1-1-2-2-3-3Z"/></svg>