<svg id="Icons" xmlns="http://www.w3.org/2000/svg" width="23.25" height="23.25" viewBox="0 0 23.25 23.25"><defs><style>.cls-1{fill:#00714a;}</style></defs><title>bars</title><g id="Bars"><path class="cls-1" d="M11.61,16.24H3.41a0.85,0.85,0,0,0-1,1c0,0.38,0,.77,0,1.15a0.81,0.81,0,0,0,.93.91H19.84a0.85,0.85,0,0,0,1-1c0-.35,0-0.69,0-1a0.85,0.85,0,0,0-1-1H11.61Z"/><path class="cls-1" d="M11.59,10.09H3.42a0.86,0.86,0,0,0-1,1c0,0.36,0,.72,0,1.08a0.82,0.82,0,0,0,1,1H19.79a0.88,0.88,0,0,0,1.07-1.08c0-.35,0-0.69,0-1a0.82,0.82,0,0,0-1-1H11.59Z"/><path class="cls-1" d="M11.63,3.94H3.43a0.86,0.86,0,0,0-1,1c0,0.4,0,.79,0,1.19A0.78,0.78,0,0,0,3.27,7H19.78a0.88,0.88,0,0,0,1.08-1.07q0-.48,0-1a0.86,0.86,0,0,0-1-1h-8.2Z"/></g></svg>