<svg id="Icons" xmlns="http://www.w3.org/2000/svg" width="20" height="20.03" viewBox="0 0 20 20.03"><defs><style>.cls-1{fill:#00714a;}</style></defs><title>search</title><path id="Search" class="cls-1" d="M14.92,13a7.89,7.89,0,0,0,1.16-2.57,7.63,7.63,0,0,0-4.77-9A7.42,7.42,0,0,0,3.24,3.15a7.66,7.66,0,0,0,9.38,12,0.42,0.42,0,0,1,.63.08c1.13,1.15,2.28,2.29,3.43,3.43a1.34,1.34,0,0,0,1.6.29A1.31,1.31,0,0,0,19,17.48a2,2,0,0,0-.52-0.91c-1.08-1.12-2.19-2.21-3.3-3.31C15.13,13.17,15,13.11,14.92,13ZM8.59,3.74A4.89,4.89,0,1,1,3.72,8.62,4.88,4.88,0,0,1,8.59,3.74Z"/></svg>