<?xml version="1.0" encoding="UTF-8" standalone="no"?>
<svg
   xmlns:dc="http://purl.org/dc/elements/1.1/"
   xmlns:cc="http://creativecommons.org/ns#"
   xmlns:rdf="http://www.w3.org/1999/02/22-rdf-syntax-ns#"
   xmlns:svg="http://www.w3.org/2000/svg"
   xmlns="http://www.w3.org/2000/svg"
   viewBox="0 0 682.66669 632.16931"
   height="632.16931"
   width="682.66669"
   xml:space="preserve"
   id="svg2"
   version="1.1"><metadata
     id="metadata8"><rdf:RDF><cc:Work
         rdf:about=""><dc:format>image/svg+xml</dc:format><dc:type
           rdf:resource="http://purl.org/dc/dcmitype/StillImage" /></cc:Work></rdf:RDF></metadata><defs
     id="defs6"><clipPath
       id="clipPath18"
       clipPathUnits="userSpaceOnUse"><path
         id="path16"
         d="M 0,474.127 H 512 V 0 H 0 Z" /></clipPath></defs><g
     transform="matrix(1.3333333,0,0,-1.3333333,0,632.16933)"
     id="g10"><g
       id="g12"><g
         clip-path="url(#clipPath18)"
         id="g14"><g
           transform="translate(134.7495,474.1133)"
           id="g20"><path
             id="path22"
             style="fill:#ff0000;fill-opacity:1;fill-rule:nonzero;stroke:none"
             d="m 0,0 c -80.862,-0.741 -152.916,-80.77 -131.216,-186.664 16.542,-80.723 102.505,-185.695 252.466,-287.449 149.962,101.754 235.922,206.726 252.467,287.449 C 395.417,-80.77 323.361,-0.741 242.499,0 200.942,0.638 148.958,-21.333 121.25,-74.409 93.543,-21.333 41.558,0.638 0,0" /></g><g
           transform="translate(199.6875,89.0059)"
           id="g24"><path
             id="path26"
             style="fill:#ffffff;fill-opacity:1;fill-rule:nonzero;stroke:none"
             d="m 0,0 c 0,2.349 9.043,23.598 25.203,59.258 3.548,7.823 6.456,15.484 6.456,16.966 0,1.522 5.086,13.3 11.304,26.19 6.222,12.888 11.307,24.007 11.307,24.666 0,0.7 -19.391,1.853 -43.093,2.554 l -43.094,1.316 12.567,13.92 c 6.91,7.657 25.795,28.824 41.962,46.984 82.58,92.949 100.654,112.234 95.466,101.915 -2.505,-4.976 -14.935,-31.433 -27.627,-58.797 -12.696,-27.347 -25.012,-53.29 -27.372,-57.613 -2.356,-4.325 -4.286,-8.812 -4.286,-10.007 0,-1.195 19.293,-2.717 42.866,-3.458 l 42.884,-1.277 -14.618,-15.936 C 121.891,137.91 104.13,117.608 90.446,101.548 76.767,85.489 62.52,69.101 58.788,65.104 55.058,61.151 47.097,51.929 41.101,44.68 20.906,20.22 -0.003,-2.512 -0.003,0.043 Z" /></g></g></g></g></svg>