<?xml version="1.0" encoding="utf-8"?>
<!-- Generator: Adobe Illustrator 22.0.1, SVG Export Plug-In . SVG Version: 6.00 Build 0)  -->
<svg version="1.1"
	 id="FE" inkscape:export-filename="C:\Users\Nilaja\Desktop\Icons\Safety\fire extinguisher2.png" inkscape:export-xdpi="96" inkscape:export-ydpi="96" inkscape:version="0.92.2 (5c3e80d, 2017-08-06)" sodipodi:docname="fire extinguisher2.svg" xmlns:cc="http://creativecommons.org/ns#" xmlns:dc="http://purl.org/dc/elements/1.1/" xmlns:inkscape="http://www.inkscape.org/namespaces/inkscape" xmlns:rdf="http://www.w3.org/1999/02/22-rdf-syntax-ns#" xmlns:sodipodi="http://sodipodi.sourceforge.net/DTD/sodipodi-0.dtd" xmlns:svg="http://www.w3.org/2000/svg"
	 xmlns="http://www.w3.org/2000/svg" xmlns:xlink="http://www.w3.org/1999/xlink" x="0px" y="0px" viewBox="0 0 256 256"
	 style="enable-background:new 0 0 256 256;" xml:space="preserve">
<style type="text/css">
	.st0{fill:#FF0000;stroke:#000000;}
	.st1{fill:#FFFFFF;stroke:#000000;}
</style>
<defs>
	
	
		<inkscape:path-effect  apply_no_weight="true" apply_with_weight="true" effect="bspline" helper_size="0" id="path-effect5930" is_visible="true" only_selected="false" steps="2" weight="33.333333">
		</inkscape:path-effect>
	
		<inkscape:path-effect  apply_no_weight="true" apply_with_weight="true" effect="bspline" helper_size="0" id="path-effect5358" is_visible="true" only_selected="false" steps="2" weight="33.333333">
		</inkscape:path-effect>
</defs>
<sodipodi:namedview  bordercolor="#666666" borderopacity="1" gridtolerance="10" guidetolerance="10" id="namedview4805" inkscape:current-layer="svg4803" inkscape:cx="38.456697" inkscape:cy="128.62601" inkscape:pageopacity="0" inkscape:pageshadow="2" inkscape:window-height="699" inkscape:window-maximized="0" inkscape:window-width="1318" inkscape:window-x="0" inkscape:window-y="30" inkscape:zoom="1.3037281" objecttolerance="10" pagecolor="#ffffff" showgrid="false">
	</sodipodi:namedview>
<g>
	
		<path id="path5356" inkscape:connector-curvature="0" inkscape:original-d="m 82.440677,45.016949 c 0.181791,3.79561 0.36252,7.590919 0.542373,11.389831 -4.158617,1.445823 -8.314181,2.891236 -12.474576,4.338982 -2.530806,3.254179 -5.061146,6.507475 -7.59322,9.762712 -2.169106,5.243424 -4.337983,10.484876 -6.508474,15.728814 -0.179833,2.530656 -0.360582,5.061147 -0.542373,7.59322 10e-4,46.662712 10e-4,93.648722 0,140.474572 10e-4,4.51888 10e-4,9.03855 0,13.55933 0.905155,1.98814 1.808909,3.9764 2.711864,5.9661 1.628489,0.72233 3.255238,1.44533 4.881356,2.16949 23.497125,-0.36248 47.006653,-0.72416 70.508473,-1.08475 1.44727,-0.72413 2.89366,-1.44732 4.33898,-2.16949 1.08485,-1.26548 2.1705,-2.53207 3.25424,-3.79661 10e-4,-46.42497 -0.36058,-92.92755 -0.54237,-139.38983 -0.17979,-7.23248 -0.36058,-14.464275 -0.54237,-21.694913 -0.72207,-4.158632 -1.44533,-8.317384 -2.1695,-12.474577 -4.87941,-5.423683 -9.76171,-10.848457 -14.64406,-16.271186 -3.61479,-2.351259 -7.23064,-4.701565 -10.84746,-7.050847 -0.72221,-10e-4 -1.44533,-10e-4 -2.16949,0 0.001,-2.354533 0.001,-4.701565 0,-7.050848 0.001,-1.265998 0.001,-2.532073 0,-3.79661 9.57535,0.721592 19.16484,1.445328 28.74576,2.169491 0.36255,-0.181773 1.08575,-0.362582 1.62712,-0.542372 0.18139,1.261736 0.36258,2.891655 0.54237,4.338983 10e-4,0.722594 10e-4,1.806909 0,2.711864 24.79676,3.79981 49.53773,7.953802 74.30509,11.932203 0.36257,-1.08571 0.72416,-1.808909 1.08474,-2.711864 -0.17955,-15.708813 -0.36058,-31.820209 -0.54237,-47.728814 -0.17978,-1.266458 -0.36058,-2.5320731 -0.54237,-3.7966098 -1.2637,0.3603419 -2.53008,0.7221639 -3.79661,1.0847458 -14.83779,2.713411 -30.0103,5.422729 -45.01695,8.135593 -6.32717,0.722219 -12.65437,1.445328 -18.98305,2.169492 -2.53052,0.360644 -5.06115,0.722164 -7.59322,1.084745 -0.36075,0.903355 -0.72217,1.80691 -1.08475,2.711865 0.5441,1.990356 1.08575,3.976401 1.62712,5.966102 -6.45523,-0.738855 -12.65436,-1.447328 -18.98305,-2.169492 -3.9764,-0.181791 -11.9322,-0.542373 -11.9322,-0.542373 0,0 0.001,-9.040574 -10e-6,-13.559322 C 108.47558,9.4001475 106.84846,6.3266836 105.22034,3.2542371 102.50947,1.9877004 99.798049,0.72236812 97.084746,-0.54237301 92.926882,-0.36255286 88.769361,-0.1817911 84.610169,-1.632842e-7 82.260887,1.9877002 79.911681,3.9754902 77.559322,5.9661015 c -1.626864,2.5312324 -3.252785,5.0604425 -4.881356,7.5932195 0.181842,3.615825 0.362506,7.22912 0.542373,10.847458 1.267068,1.807669 2.532011,3.614731 3.79661,5.423729 0.1818,1.083799 0.362447,2.167681 0.542373,3.254237 -7.416971,3.436596 -14.823859,6.869057 -22.237288,10.305085 -3.796546,4.339053 -7.59222,8.676967 -11.389831,13.01695 -1.264846,1.988187 -2.530073,3.976401 -3.79661,5.966101 0.543691,1.807969 1.085746,3.614819 1.627119,5.423729 2.171262,1.626697 4.339983,3.253237 6.508474,4.881356 1.989554,-0.904888 3.978402,-1.80891 5.966102,-2.711864 2.711221,-4.698716 5.424729,-9.40213 8.135593,-14.101695 4.338891,-3.435164 8.678966,-6.871057 13.01695,-10.305085 2.350686,-0.181745 4.701564,-0.362582 7.050846,-0.542373 z" inkscape:path-effect="#path-effect5358" sodipodi:nodetypes="ccccccccccccccccccccccccccccccccccccccccccccccccccccccc" class="st0" d="
		M125,123.3c0.1,0.1,0.1,0.3,0,0.5s-0.5,0.2-0.8,0.4c-0.3,0.1-0.5,0.3-0.7,0.5c-0.2,0.2-0.4,0.5-0.5,0.7c-0.1,0.2-0.1,0.4-0.1,1.7
		s0,3.9,0,5.3c0,1.4,0,1.7,0,1.8c0,0.2,0.1,0.3,0.2,0.4c0.1,0.1,0.2,0.1,1.2,0.1c1,0,2.9,0,3.9,0c1,0,1.1-0.1,1.2-0.1
		s0.2-0.1,0.2-1.4s0-3.9,0-5.3c0-1.5,0-1.9-0.1-2.2c0-0.3-0.1-0.5-0.3-0.8c-0.2-0.3-0.6-0.6-1-0.8c-0.3-0.2-0.6-0.3-0.8-0.4
		c-0.2-0.1-0.2-0.1-0.3-0.1s0-0.2,0-0.3c0-0.1,0-0.2,0.4-0.2c0.4,0,1.1,0,1.5,0c0.4,0,0.5,0,0.5,0c0,0,0,0.1,0.1,0.2
		c0,0.1,0,0.1,1,0.3c1,0.1,3,0.4,4,0.4c1,0.1,1,0,1-0.4c0-0.5,0-1.3,0-1.8s0-0.5-0.1-0.6c-0.1,0-0.2,0-0.8,0.1
		c-0.6,0.1-1.8,0.2-2.7,0.3s-1.4,0.1-1.7,0.2c-0.4,0-0.6,0-0.7,0.1c-0.1,0-0.1,0.1-0.1,0.2s0.1,0.2-0.2,0.2c-0.2,0-0.7,0-1.1,0
		c-0.4,0-0.7,0-1,0c0-0.2,0-0.5-0.1-0.7c-0.1-0.2-0.2-0.4-0.4-0.5c-0.2-0.1-0.4-0.2-0.7-0.2c-0.3,0-0.6,0-0.9,0
		c-0.3,0.1-0.4,0.2-0.6,0.3c-0.2,0.1-0.3,0.3-0.3,0.4s0,0.4,0,0.5s0.2,0.2,0.2,0.3s0.1,0.1-0.2,0.3c-0.3,0.1-0.9,0.3-1.3,0.5
		c-0.4,0.2-0.7,0.5-1,0.6c-0.2,0.2-0.3,0.3-0.3,0.4s0,0.2,0.1,0.3c0.1,0.1,0.3,0.2,0.4,0.2c0.2,0,0.3,0,0.5-0.2
		c0.2-0.2,0.4-0.4,0.7-0.6s0.6-0.4,0.9-0.5C124.7,123.2,124.9,123.2,125,123.3z"/>
	
		<path id="path5928" inkscape:connector-curvature="0" inkscape:original-d="m 92.235488,194.63751 c -1.980497,-0.32059 -3.961994,-0.64019 -5.944491,-0.95879 -3.196281,-1.4078 -6.390926,-2.81344 -9.587888,-4.21867 -2.648717,-2.14601 -5.368218,-4.34751 -8.053827,-6.51976 -0.638193,-3.83616 -1.277385,-7.67131 -1.917578,-11.50547 0.703971,-2.36553 1.407224,-4.73102 2.109336,-7.09503 1.214854,-2.17316 2.429932,-4.34751 3.643398,-6.51977 1.023149,-1.78976 2.046416,-3.58048 3.068124,-5.36922 0.320385,-1.53404 0.640193,-3.06912 0.958789,-4.60218 -0.126742,-1.981 -0.254677,-3.964 -0.383516,-5.94449 -0.382335,-1.59823 -0.766031,-3.19697 -1.150546,-4.79395 -0.254562,-0.51212 -0.510354,-1.02371 -0.767031,-1.53406 0.639692,0.63769 1.407223,1.27738 2.109335,1.91758 1.854529,1.21338 3.708317,2.42793 5.560975,3.64339 0.768032,2.42794 1.535062,4.85686 2.301094,7.2868 0.192798,2.74811 0.384515,5.49606 0.575273,8.24558 -0.126882,0.95812 -0.254677,1.91658 -0.383516,2.87637 1.024896,-1.02489 2.046417,-2.04642 3.068125,-3.06812 0.511854,-2.23599 1.023708,-4.73103 1.534062,-7.09504 -0.510103,-1.91764 -1.021708,-3.83616 -1.534062,-5.75273 -0.701861,-2.68465 -1.405224,-5.37022 -2.109336,-8.05383 0.0649,-3.13224 0.128839,-6.26509 0.191758,-9.39613 1.023375,-2.49304 2.046416,-4.9867 3.068124,-7.47855 1.598208,-1.85377 3.196963,-3.70832 4.793945,-5.56098 1.214766,-1.02312 2.429931,-2.04642 3.643397,-3.06812 1.022801,-0.63963 2.046417,-1.27939 3.068128,-1.91758 0.19254,-0.0648 0.51235,-0.12884 0.76703,-0.19176 -0.7625,2.16226 -1.533064,4.34551 -2.301095,6.51976 -0.254819,0.76646 -0.510355,1.53307 -0.767032,2.3011 -0.06302,2.87986 -0.126838,5.75173 -0.191757,8.6291 0.576477,2.23697 1.151546,4.47335 1.72582,6.71152 1.535544,3.00414 3.069124,6.00741 4.602184,9.01261 1.66312,1.98076 3.3248,3.962 4.9857,5.9445 0.83199,0.63822 1.6629,1.27738 2.49286,1.91757 0.0649,-0.19272 0.12883,-0.25667 0.19175,-0.38351 0.0643,-1.71062 0.12884,-3.45264 0.19176,-5.17746 0.57593,-1.47026 1.15155,-3.06913 1.72582,-4.60219 1.40612,-1.46999 2.81345,-2.94128 4.21867,-4.41043 1.15075,-0.83137 2.30209,-1.6629 3.45164,-2.49285 0.83113,-0.51185 1.6629,-1.02371 2.49285,-1.53406 -0.12666,0.31815 -0.25467,0.63819 -0.38351,0.95879 -0.64061,2.1163 -1.27739,4.21767 -1.91758,6.32801 0.12891,2.17348 0.25668,4.3455 0.38351,6.51976 0.70442,2.62082 1.40723,5.24038 2.10934,7.86207 0.96004,2.94005 1.91858,5.87957 2.87637,8.82086 0.95998,2.30057 1.91857,4.60118 2.87636,6.90328 -0.0629,2.49238 -0.12684,4.9847 -0.19175,7.47855 -0.95819,2.55682 -1.91658,5.11254 -2.87637,7.67031 -1.53379,1.21404 -3.06713,2.42793 -4.60219,3.6434 l -2.68461,2.68461 c -1.59876,0.83087 -3.3228,1.6609 -4.9857,2.49285 -1.15038,0.38279 -2.30009,0.76603 -3.45164,1.15054 -0.38291,0.063 -0.76603,0.12684 -1.15054,0.19176 0.89851,-1.15495 1.79073,-2.30209 2.6846,-3.45164 0.70344,-1.34201 1.40723,-2.68561 2.10934,-4.02691 -0.38217,-1.78915 -0.76603,-3.58048 -1.15055,-5.36922 -0.70181,-1.02328 -1.40522,-2.04642 -2.10933,-3.06812 -0.44634,-0.95959 -0.89387,-1.91858 -1.34231,-2.87637 0.0649,-1.2788 0.12884,-2.55777 0.19176,-3.83516 0.12873,-0.70353 0.25668,-1.40722 0.38352,-2.10933 -1.02005,0.8286 -2.04442,1.6609 -3.06813,2.49285 -0.31894,1.66267 -0.63819,3.3228 -0.95879,4.9857 0.25686,1.4062 0.51236,2.81145 0.76703,4.21867 0.19287,0.44669 0.38452,0.89387 0.57528,1.34231 -0.70287,-0.64089 -1.40523,-1.27939 -2.10934,-1.91758 -0.31862,-1.15163 -0.63819,-2.30209 -0.95879,-3.45164 -0.12676,-1.02311 -0.25467,-2.04642 -0.38351,-3.06813 0.44806,-2.17242 0.89587,-4.47534 1.3423,-6.71152 0.001,-1.21484 0.001,-2.55777 0,-3.83515 -0.70156,-1.53386 -1.40522,-3.06913 -2.10933,-4.60219 -0.82971,-1.02341 -1.6609,-2.04642 -2.49285,-3.06812 -0.70204,-0.25665 -1.405228,-0.51236 -2.10934,-0.76703 0.256881,0.76664 0.512354,1.53306 0.767031,2.30109 0.256877,2.04602 0.512359,4.08983 0.767029,6.13625 -0.63846,1.40581 -1.277383,2.81144 -1.917575,4.21867 -0.510793,1.21451 -1.021709,2.42793 -1.534063,3.6434 -1.278655,1.02272 -2.55577,2.04441 -3.835155,3.06812 -0.126948,0.2549 -0.254677,0.51035 -0.383516,0.76703 -0.127438,-1.41382 -0.254677,-2.94128 -0.383515,-4.41043 -0.573919,-0.76756 -1.149547,-1.53506 -1.72582,-2.30109 -0.574153,-0.44834 -1.149547,-0.89587 -1.72582,-1.3423 -0.318673,-0.19281 -0.638193,-0.38452 -0.958789,-0.57528 0.32089,0.76674 0.640193,1.53306 0.958789,2.3011 -0.126921,2.17366 -0.254677,4.3455 -0.383516,6.51976 -0.574552,1.27801 -1.277385,2.68361 -1.917577,4.02691 -0.510813,1.27853 -1.021708,2.55577 -1.534062,3.83516 -0.06298,1.02267 -0.126839,2.04441 -0.191758,3.06812 0.256941,1.08675 0.512354,2.17226 0.767031,3.25988 1.088352,1.15032 2.174255,2.3001 3.259882,3.45164 1.087655,0.8939 2.174255,1.78874 3.259882,2.68461 z" inkscape:path-effect="#path-effect5930" sodipodi:nodetypes="cccccccccccccccccccccccccccccccccccccccccccccccccccccccccccccccccccccccccccccccccccccccccc" class="st1" d="
		M125.8,131.3c0,0-0.2,0-0.4,0s-0.5-0.1-0.7-0.2c-0.2-0.1-0.4-0.2-0.6-0.4c-0.1-0.2-0.2-0.4-0.2-0.5c0-0.2,0.1-0.3,0.1-0.4
		s0.2-0.2,0.3-0.4c0.1-0.1,0.2-0.2,0.2-0.3c0.1-0.1,0.1-0.2,0.1-0.3s0-0.2,0-0.3s-0.1-0.2-0.1-0.2c0-0.1,0-0.1,0-0.1
		c0,0,0.1,0,0.2,0.1c0.1,0.1,0.2,0.1,0.4,0.2c0.1,0.1,0.2,0.2,0.2,0.4c0,0.1,0.1,0.3,0.1,0.4c0,0.1,0,0.2,0,0.2c0,0,0.1-0.1,0.2-0.1
		s0.1-0.2,0.1-0.3c0-0.1,0-0.2-0.1-0.3c0-0.1-0.1-0.3-0.1-0.4c0-0.2,0-0.3,0-0.5c0-0.2,0.1-0.3,0.2-0.4c0.1-0.1,0.2-0.2,0.3-0.3
		c0.1-0.1,0.2-0.1,0.3-0.2c0.1,0,0.2-0.1,0.2-0.1c0,0,0.1,0,0.1,0s-0.1,0.2-0.1,0.3s-0.1,0.1-0.1,0.2s0,0.3,0,0.4
		c0,0.1,0.1,0.3,0.2,0.4c0.1,0.1,0.2,0.3,0.3,0.4c0.1,0.1,0.3,0.2,0.4,0.3s0.2,0.1,0.2,0.1c0,0,0,0,0,0c0-0.1,0-0.1,0-0.2
		c0-0.1,0.1-0.2,0.2-0.3c0.1-0.1,0.2-0.2,0.3-0.2c0.1-0.1,0.2-0.1,0.3-0.1c0.1,0,0.1-0.1,0.2-0.1c0,0,0,0,0,0.1
		c0,0.1-0.1,0.2-0.1,0.3c0,0.1,0,0.2,0,0.4s0.1,0.3,0.2,0.4c0.1,0.2,0.1,0.3,0.2,0.5c0.1,0.1,0.2,0.3,0.2,0.4c0,0.1,0,0.3,0,0.4
		s-0.1,0.3-0.2,0.4c-0.1,0.1-0.2,0.2-0.3,0.2s-0.3,0.2-0.3,0.2s-0.2,0.1-0.3,0.1s-0.2,0.1-0.3,0.1c-0.1,0-0.1,0-0.1,0
		c0,0,0.1-0.1,0.2-0.2c0.1-0.1,0.1-0.1,0.1-0.2c0-0.1,0-0.2-0.1-0.3c0-0.1-0.1-0.1-0.1-0.2c0-0.1-0.1-0.1-0.1-0.2c0-0.1,0-0.1,0-0.2
		c0-0.1,0-0.1,0-0.1c0,0-0.1,0-0.2,0.1c-0.1,0.1-0.1,0.2-0.1,0.2c0,0.1,0,0.2,0,0.2c0,0.1,0,0.1,0,0.1c0,0-0.1,0-0.1-0.1
		c0,0-0.1-0.1-0.1-0.2c0-0.1,0-0.1,0-0.2c0-0.1,0-0.2,0.1-0.3c0-0.1,0-0.2,0-0.2c0-0.1-0.1-0.2-0.1-0.2c-0.1-0.1-0.1-0.1-0.2-0.2
		c-0.1,0-0.1,0-0.1,0c0,0,0,0.1,0,0.1c0,0.1,0,0.2,0,0.3s-0.1,0.2-0.1,0.2c0,0.1-0.1,0.1-0.2,0.2c-0.1,0.1-0.2,0.1-0.2,0.2
		c-0.1,0-0.1,0-0.1,0c0,0,0-0.1,0-0.2s-0.1-0.1-0.1-0.1c0,0-0.1-0.1-0.1-0.1c0,0-0.1,0-0.1,0c0,0,0,0.1,0,0.1c0,0.1,0,0.2,0,0.3
		c0,0.1-0.1,0.2-0.1,0.2c0,0.1-0.1,0.1-0.1,0.2c0,0.1,0,0.1,0,0.2c0,0.1,0,0.1,0.1,0.2c0.1,0.1,0.1,0.1,0.2,0.2
		C125.7,131.3,125.8,131.3,125.8,131.3L125.8,131.3z"/>
</g>
</svg>
