<?xml version="1.0" encoding="UTF-8" standalone="no"?>
<svg
   xmlns:dc="http://purl.org/dc/elements/1.1/"
   xmlns:cc="http://creativecommons.org/ns#"
   xmlns:rdf="http://www.w3.org/1999/02/22-rdf-syntax-ns#"
   xmlns:svg="http://www.w3.org/2000/svg"
   xmlns="http://www.w3.org/2000/svg"
   viewBox="0 0 682.66669 682.66669"
   height="682.66669"
   width="682.66669"
   xml:space="preserve"
   id="svg2"
   version="1.1"><metadata
     id="metadata8"><rdf:RDF><cc:Work
         rdf:about=""><dc:format>image/svg+xml</dc:format><dc:type
           rdf:resource="http://purl.org/dc/dcmitype/StillImage" /></cc:Work></rdf:RDF></metadata><defs
     id="defs6"><clipPath
       id="clipPath18"
       clipPathUnits="userSpaceOnUse"><path
         id="path16"
         d="M 0,512 H 512 V 0 H 0 Z" /></clipPath></defs><g
     transform="matrix(1.3333333,0,0,-1.3333333,0,682.66667)"
     id="g10"><g
       id="g12"><g
         clip-path="url(#clipPath18)"
         id="g14"><g
           transform="translate(410.5,256)"
           id="g20"><path
             id="path22"
             style="fill:#ff0000;fill-opacity:1;fill-rule:nonzero;stroke:none"
             d="m 0,0 c 0,-85.328 -69.172,-154.5 -154.5,-154.5 -85.328,0 -154.5,69.172 -154.5,154.5 0,85.328 69.172,154.5 154.5,154.5 C -69.172,154.5 0,85.328 0,0" /></g><g
           transform="translate(234.9854,134.4873)"
           id="g24"><path
             id="path26"
             style="fill:#ffffff;fill-opacity:1;fill-rule:nonzero;stroke:none"
             d="m 0,0 c -0.774,-1.396 -6.355,-0.776 -13.336,1.241 -6.98,2.016 -15.348,5.426 -22.327,9.613 -6.979,4.187 -12.56,9.147 -17.366,15.195 -4.808,6.048 -8.84,13.18 -11.01,21.089 -2.169,7.908 -2.481,16.591 -1.395,24.188 1.086,7.597 3.568,14.112 7.443,20.933 3.875,6.82 9.15,13.957 12.25,20.776 3.1,6.821 4.031,13.336 4.496,19.072 0.465,5.736 0.465,10.7 0.154,14.575 -0.309,3.876 -0.93,6.668 -1.24,8.528 -0.31,1.861 -0.31,2.792 2.009,1.246 2.318,-1.545 6.985,-5.589 10.705,-9.775 3.721,-4.186 6.513,-8.528 8.839,-14.265 2.325,-5.736 4.185,-12.867 4.962,-18.45 0.775,-5.582 0.464,-9.612 0.621,-11.007 0.155,-1.395 0.775,-0.154 2.322,3.558 1.547,3.712 4.035,9.932 4.655,16.131 0.62,6.2 -0.621,12.405 -2.172,19.846 -1.55,7.441 -3.411,16.128 -4.497,24.5 -1.085,8.372 -1.396,16.437 0.931,25.428 2.325,8.992 7.289,18.919 12.561,26.825 5.271,7.907 10.855,13.801 15.506,17.676 4.651,3.875 8.374,5.737 10.544,6.511 2.169,0.774 2.789,0.464 2.016,-3.249 -0.774,-3.712 -2.947,-10.858 -4.344,-17.682 -1.396,-6.824 -2.015,-13.333 -1.706,-20.468 0.31,-7.135 1.551,-14.883 3.721,-22.173 2.172,-7.289 5.271,-14.109 9.614,-21.243 4.341,-7.133 9.923,-14.575 13.645,-19.226 3.721,-4.652 5.582,-6.513 6.977,-5.426 1.397,1.087 2.327,5.118 3.704,9.72 1.378,4.601 3.275,9.974 6.618,14.701 3.344,4.726 7.823,8.606 11.884,11.49 4.062,2.883 8.032,4.868 10.668,6.264 2.635,1.395 4.187,2.326 4.034,0.935 -0.154,-1.39 -2.019,-5.12 -3.098,-9.775 -1.078,-4.655 -1.404,-10.851 -0.784,-18.141 0.622,-7.29 2.169,-15.969 4.497,-24.343 2.326,-8.374 5.425,-16.434 8.216,-23.413 2.792,-6.977 5.273,-12.868 6.513,-19.381 1.241,-6.512 1.241,-13.643 1.241,-19.536 0,-5.893 0,-10.542 -1.085,-14.885 -1.085,-4.343 -3.255,-8.372 -6.357,-13.026 C 97.526,29.923 93.499,24.656 89.155,20.469 84.814,16.28 80.166,13.182 75.046,10.544 69.928,7.907 64.35,5.739 60.628,4.343 56.906,2.947 55.046,2.326 54.427,2.794 c -0.622,0.469 -0.003,2.016 1.855,4.957 1.858,2.941 4.965,7.292 6.67,12.561 1.704,5.269 2.015,11.477 1.55,15.662 -0.465,4.184 -1.706,6.357 -3.566,9.301 -1.861,2.946 -4.343,6.668 -5.739,10.544 -1.395,3.878 -1.705,7.91 -2.479,10.39 -0.775,2.479 -2.016,3.409 -3.722,1.551 -1.705,-1.861 -3.875,-6.511 -4.651,-10.39 -0.777,-3.877 -0.156,-6.975 0.464,-10.389 0.62,-3.412 1.241,-7.131 0.458,-8.718 -0.785,-1.588 -3.556,-0.895 -5.73,2.519 -2.171,3.415 -4.031,9.613 -4.031,15.814 10e-4,6.203 1.862,12.406 2.791,17.211 0.931,4.805 0.931,8.218 0.156,12.402 -0.776,4.185 -2.327,9.15 -4.032,12.716 -1.705,3.565 -3.567,5.736 -4.805,6.822 -1.239,1.084 -1.859,1.084 -2.327,-0.939 -0.468,-2.023 -0.775,-6.036 -1.396,-10.69 -0.621,-4.653 -1.55,-9.92 -3.254,-14.264 C 20.931,75.512 18.452,72.104 16.281,69.001 14.11,65.897 12.25,63.109 10.389,61.093 8.527,59.075 6.669,57.837 5.426,58.147 4.184,58.46 3.564,60.316 2.325,63.416 c -1.24,3.099 -3.102,7.444 -4.651,10.079 -1.551,2.635 -2.791,3.565 -3.567,2.017 -0.776,-1.55 -1.086,-5.58 -1.395,-10.389 -0.311,-4.809 -0.621,-10.388 -1.551,-14.728 -0.93,-4.342 -2.48,-7.443 -3.875,-9.769 -1.396,-2.327 -2.635,-3.875 -2.79,-7.292 -0.156,-3.417 0.773,-8.678 2.324,-13.177 1.551,-4.497 3.721,-8.218 6.822,-11.784 C -3.257,4.805 0.774,1.394 0,0" /></g><g
           transform="translate(0,512)"
           id="g28"><path
             id="path30"
             style="fill:#ff0000;fill-opacity:1;fill-rule:nonzero;stroke:none"
             d="M 0,0 H 512 V -512 H 380.271 l -24.853,49.137 H 462.291 V -49.136 H 49.709 V -462.863 H 156.583 L 131.728,-512 H 0 Z" /></g></g></g></g></svg>