<?xml version="1.0" encoding="UTF-8" standalone="no"?>
<svg
   xmlns:dc="http://purl.org/dc/elements/1.1/"
   xmlns:cc="http://creativecommons.org/ns#"
   xmlns:rdf="http://www.w3.org/1999/02/22-rdf-syntax-ns#"
   xmlns:svg="http://www.w3.org/2000/svg"
   xmlns="http://www.w3.org/2000/svg"
   viewBox="0 0 468.91467 682.66669"
   height="682.66669"
   width="468.91467"
   xml:space="preserve"
   id="svg2"
   version="1.1"><metadata
     id="metadata8"><rdf:RDF><cc:Work
         rdf:about=""><dc:format>image/svg+xml</dc:format><dc:type
           rdf:resource="http://purl.org/dc/dcmitype/StillImage" /></cc:Work></rdf:RDF></metadata><defs
     id="defs6"><clipPath
       id="clipPath18"
       clipPathUnits="userSpaceOnUse"><path
         id="path16"
         d="M 0,512 H 351.686 V 0 H 0 Z" /></clipPath></defs><g
     transform="matrix(1.3333333,0,0,-1.3333333,0,682.66667)"
     id="g10"><g
       id="g12"><g
         clip-path="url(#clipPath18)"
         id="g14"><g
           transform="translate(94.2334,404.8838)"
           id="g20"><path
             id="path22"
             style="fill:#ff0000;fill-opacity:1;fill-rule:nonzero;stroke:none"
             d="m 0,0 c -16.505,-3.131 -61.944,-29.908 -61.944,-81.925 v -302.273 c 0,-7.503 3.501,-20.008 18.505,-20.008 H 89.707 c 15.005,0 18.506,12.505 18.506,20.008 V -81.925 C 108.213,-29.908 64.379,-3.131 47.68,0 l 0.077,21.02 h 60.834 V 8.016 L 257.452,-14.491 V 87.667 L 108.591,66.036 V 52.03 H 48.048 V 74.017 H 30.543 c 0,13.67 -14.85,31.21 -35.97,31.21 -20.561,0 -39.178,-16.048 -39.178,-40.277 0,-11.506 6.61,-21.789 12.446,-25.291 -23.124,-8.544 -54.135,-37.831 -60.253,-55.672 -8.502,-17.005 14.852,-31.258 26.856,-14.253 12.004,17.005 25.475,37.874 65.488,47.878 z" /></g><g
           transform="translate(88.2529,454.7671)"
           id="g24"><path
             id="path26"
             style="fill:#ffffff;fill-opacity:1;fill-rule:nonzero;stroke:none"
             d="m 0,0 c 9.521,0 17.24,7.722 17.24,17.243 0,9.522 -7.719,17.243 -17.24,17.243 -9.523,0 -17.246,-7.721 -17.246,-17.243 C -17.246,7.722 -9.523,0 0,0" /></g><g
           transform="translate(103.9424,137.7344)"
           id="g28"><path
             id="path30"
             style="fill:#ffffff;fill-opacity:1;fill-rule:nonzero;stroke:none"
             d="m 0,0 c -0.833,-0.536 -4.523,0.06 -9.347,1.667 -4.824,1.608 -10.775,4.227 -16.219,7.534 -5.445,3.308 -10.511,7.408 -13.606,13.006 -3.097,5.597 -4.287,12.741 -4.227,18.514 0.06,5.775 1.37,10.181 3.156,14.407 1.785,4.226 4.048,8.275 6.132,11.966 2.083,3.69 3.988,7.025 5.238,10.12 1.25,3.095 1.846,5.954 2.024,9.227 0.179,3.272 -0.06,6.966 -0.536,10.299 -0.476,3.333 -1.191,6.311 -1.786,8.276 -0.595,1.963 -1.072,2.916 -0.688,2.827 0.384,-0.09 1.759,-1.341 4.141,-3.067 2.381,-1.726 5.834,-3.989 8.275,-7.382 2.44,-3.391 3.869,-7.916 4.762,-12.74 0.893,-4.82 1.25,-9.939 1.309,-13.393 0.06,-3.452 -0.178,-5.238 0.658,-5.178 0.836,0.062 2.738,1.965 4.142,5.003 1.403,3.041 2.405,7.677 2.405,11.664 0,3.986 -0.954,7.562 -2.083,11.848 -1.132,4.285 -2.443,9.287 -3.038,14.704 -0.595,5.417 -0.476,11.252 0.537,16.49 1.012,5.239 2.917,9.883 5.358,13.931 2.44,4.047 5.418,7.502 8.037,10.179 2.619,2.679 4.882,4.585 6.966,6.132 2.082,1.547 3.989,2.739 5.124,3.379 1.134,0.64 1.723,0.788 1.249,-1.167 -0.474,-1.954 -1.909,-6.02 -2.862,-8.759 -0.953,-2.739 -1.429,-4.168 -1.727,-7.565 -0.298,-3.397 -0.417,-8.748 0.06,-13.511 0.476,-4.764 1.547,-8.93 3.512,-13.812 1.965,-4.882 4.822,-10.478 7.798,-15.12 2.977,-4.645 6.073,-8.335 8.395,-10.777 2.322,-2.44 3.87,-3.631 4.727,-4.058 0.858,-0.428 0.929,-0.285 1.048,1.426 0.117,1.711 0.238,4.956 0.814,7.94 0.575,2.983 1.687,5.947 3.531,8.744 1.846,2.796 4.467,5.536 6.847,7.679 2.381,2.142 4.526,3.692 6.371,4.941 1.844,1.25 3.394,2.203 4.048,2.382 0.654,0.181 0.415,-0.417 -0.301,-2.686 -0.717,-2.27 -1.903,-6.185 -2.379,-10.174 -0.477,-3.989 -0.24,-8.036 0.535,-12.501 0.774,-4.467 2.083,-9.347 3.631,-14.526 1.549,-5.181 3.334,-10.655 5.12,-15.537 1.786,-4.884 3.573,-9.169 4.407,-13.634 0.834,-4.466 0.713,-9.107 -0.239,-13.81 C 70.367,30.184 68.581,25.423 66.259,21.91 63.937,18.396 61.081,16.135 59.651,15.004 58.221,13.871 53.221,8.871 51.72,8.12 50.22,7.369 47.032,5.776 44.412,4.645 41.792,3.514 39.65,2.798 38.221,2.383 36.792,1.966 36.078,1.846 36.556,2.862 c 0.479,1.016 2.141,3.153 3.628,5.474 1.488,2.321 2.798,4.823 3.096,7.738 0.297,2.915 -0.418,6.252 -1.43,8.87 -1.011,2.619 -2.322,4.525 -3.393,6.37 -1.072,1.845 -1.906,3.633 -2.262,5.716 -0.358,2.083 -0.238,4.465 -0.06,6.311 0.179,1.846 0.418,3.156 -0.414,3.038 -0.83,-0.117 -2.739,-1.668 -3.991,-3.991 -1.251,-2.325 -1.845,-5.417 -1.905,-8.275 -0.059,-2.859 0.416,-5.476 0.834,-7.204 0.416,-1.726 0.773,-2.559 0.297,-2.382 -0.478,0.179 -1.786,1.369 -2.738,3.037 -0.953,1.668 -1.549,3.811 -1.966,5.834 -0.416,2.024 -0.654,3.931 -0.368,6.909 0.286,2.977 1.143,7.262 1.56,10.475 0.416,3.215 0.416,5.715 -0.238,8.334 -0.655,2.617 -1.965,5.478 -3.394,7.858 -1.429,2.38 -2.977,4.286 -4.405,5.476 -1.428,1.191 -2.738,1.667 -3.155,1.191 -0.418,-0.477 0.059,-1.904 0.536,-4.524 0.476,-2.621 0.951,-6.428 0.595,-9.643 C 17.025,56.259 15.836,53.641 14.764,51.199 13.692,48.757 12.74,46.497 11.073,44.412 9.405,42.327 7.026,40.424 5.716,39.234 4.405,38.043 4.167,37.566 3.934,38.645 3.699,39.722 3.452,42.567 2.798,44.649 2.143,46.731 1.071,48.161 0,49.292 c -1.072,1.132 -2.144,1.964 -2.977,2.562 -0.833,0.594 -1.428,0.951 -1.428,0.416 -10e-4,-0.538 0.594,-1.964 0.773,-4.704 0.178,-2.739 -0.059,-6.784 -0.739,-9.987 -0.681,-3.203 -1.939,-5.847 -3.011,-8.288 -1.072,-2.442 -2.024,-4.82 -2.559,-6.965 -0.538,-2.144 -0.656,-4.048 -0.477,-6.014 0.178,-1.964 0.654,-3.988 1.905,-6.073 C -7.262,8.154 -5.24,6.013 -3.215,4.107 -1.191,2.202 0.833,0.536 0,0" /></g></g></g></g></svg>