<?xml version="1.0" encoding="utf-8"?>
<!-- Generator: Adobe Illustrator 22.0.1, SVG Export Plug-In . SVG Version: 6.00 Build 0)  -->
<svg version="1.1"
	 id="SW" inkscape:export-filename="C:\Users\Nilaja\Desktop\Icons\Safety\severe weather.png" inkscape:export-xdpi="96" inkscape:export-ydpi="96" inkscape:version="0.92.2 (5c3e80d, 2017-08-06)" sodipodi:docname="severe weather.svg" xmlns:cc="http://creativecommons.org/ns#" xmlns:dc="http://purl.org/dc/elements/1.1/" xmlns:inkscape="http://www.inkscape.org/namespaces/inkscape" xmlns:rdf="http://www.w3.org/1999/02/22-rdf-syntax-ns#" xmlns:sodipodi="http://sodipodi.sourceforge.net/DTD/sodipodi-0.dtd" xmlns:svg="http://www.w3.org/2000/svg"
	 xmlns="http://www.w3.org/2000/svg" xmlns:xlink="http://www.w3.org/1999/xlink" x="0px" y="0px" viewBox="0 0 512 512"
	 style="enable-background:new 0 0 512 512;" xml:space="preserve">
<style type="text/css">
	.st0{fill:#FF0000;stroke:#000000;}
	.st1{fill:#FFFFFF;stroke:#000000;}
</style>
<defs>
	
	
		<inkscape:path-effect  apply_no_weight="true" apply_with_weight="true" effect="bspline" helper_size="0" id="path-effect3140" is_visible="true" only_selected="false" steps="2" weight="33.333333">
		</inkscape:path-effect>
	
		<inkscape:path-effect  apply_no_weight="true" apply_with_weight="true" effect="bspline" helper_size="0" id="path-effect2557" is_visible="true" only_selected="false" steps="2" weight="33.333333">
		</inkscape:path-effect>
</defs>
<sodipodi:namedview  bordercolor="#666666" borderopacity="1" gridtolerance="10" guidetolerance="10" id="namedview1380" inkscape:current-layer="svg1378" inkscape:cx="256" inkscape:cy="256" inkscape:pageopacity="0" inkscape:pageshadow="2" inkscape:window-height="733" inkscape:window-maximized="0" inkscape:window-width="1354" inkscape:window-x="0" inkscape:window-y="30" inkscape:zoom="0.4609375" objecttolerance="10" pagecolor="#ffffff" showgrid="false">
	</sodipodi:namedview>
<g>
	
		<path id="path2555" inkscape:connector-curvature="0" inkscape:original-d="m 73.762712,91.118644 c 7.232638,8.676966 14.464277,17.354936 21.694915,26.033896 7.955893,7.95389 17.356933,17.35493 26.033903,26.0339 5.06314,5.06115 10.12529,10.12329 15.18644,15.18644 0.001,5.78431 0.001,11.56962 0,17.35593 -2.89216,4.33874 -7.23064,10.1233 -10.84746,15.18644 -11.57222,10.84889 -23.14024,21.69392 -34.711866,32.54238 -5.061598,12.29388 -10.123294,24.58657 -15.186441,36.88135 -1.445469,17.35664 -2.891655,34.71087 -4.338983,52.0678 3.617044,11.57034 7.232639,24.58657 10.847458,36.88136 17.35785,14.46304 34.712862,28.92555 52.067792,43.38983 16.63368,7.23059 33.26654,15.9086 49.89831,23.8644 20.24907,5.78417 40.49817,11.56962 60.74576,17.35594 10.84811,6.50726 21.69592,13.01594 32.54238,19.52542 4.33986,10.84616 8.67896,21.69391 13.01694,32.54237 1.4474,4.33819 2.89366,8.67697 4.33899,13.01695 5.06384,-9.40343 10.12529,-18.80326 15.18644,-28.20339 1.44714,-10.12401 2.89365,-20.24959 4.33898,-30.37288 -7.22984,-12.29343 -14.46228,-24.58857 -21.69491,-36.88136 -15.18507,-8.67875 -30.37189,-15.9106 -45.55933,-23.8644 -10.12354,-5.06327 -20.24758,-10.1253 -30.37288,-15.18644 -2.89177,-7.23293 -5.78431,-14.46428 -8.67796,-21.69492 6.50901,-10.12457 13.01795,-20.24959 19.52542,-30.37288 12.29337,-10.12413 24.58857,-20.24959 36.88136,-30.37288 19.52469,-12.2937 39.05184,-24.58857 58.57627,-36.88136 26.03334,-18.07901 52.06879,-36.15919 78.10169,-54.23729 10.12485,-7.23232 20.24959,-14.46427 30.37288,-21.69491 13.73958,-15.90882 28.92756,-31.82021 43.38983,-47.72881 3.61659,-13.74022 7.23264,-28.927558 10.84746,-43.389835 -5.06073,-8.67826 -10.12329,-17.356932 -15.18644,-26.033898 -15.90803,-7.955518 -31.81821,-15.910605 -47.72881,-23.864407 -17.35537,-3.61691 -34.71087,-7.232639 -52.0678,-10.847458 -20.97167,-2.170586 -41.9425,-4.339983 -62.91525,-6.508474 -22.41803,1.445389 -44.83516,2.891655 -67.25424,4.338983 -23.14134,2.168594 -46.28149,4.337983 -69.42373,6.508474 -15.90935,4.338187 -33.26454,8.676966 -49.8983,13.016949 -13.01688,6.507937 -26.032903,13.01595 -39.050852,19.525424 -4.338383,5.061614 -8.676966,10.123294 -13.016949,15.186441 1.447633,7.232168 2.893655,14.462277 4.338983,21.694915 z" inkscape:path-effect="#path-effect2557" class="st0" d="
		M269.9,248c0.1,0.2,0.4,0.5,0.7,0.7c0.3,0.2,0.6,0.5,0.8,0.7c0.2,0.2,0.4,0.3,0.5,0.5c0.1,0.2,0.1,0.3,0,0.5s-0.2,0.3-0.5,0.5
		c-0.3,0.2-0.7,0.5-0.9,0.9s-0.5,0.7-0.6,1.1s-0.2,0.9-0.1,1.4c0,0.4,0.2,0.8,0.5,1.2c0.4,0.4,1,0.8,1.5,1.1
		c0.6,0.3,1.2,0.6,1.8,0.8c0.6,0.2,1.3,0.4,1.9,0.5c0.5,0.2,0.9,0.4,1.2,0.6s0.4,0.6,0.5,0.8c0.1,0.2,0.1,0.3,0.3,0.3
		c0.1-0.1,0.3-0.3,0.4-0.6c0.1-0.3,0.2-0.6,0.1-0.9s-0.3-0.7-0.7-1c-0.4-0.3-0.9-0.5-1.3-0.7c-0.4-0.2-0.8-0.3-1-0.5
		s-0.3-0.4-0.3-0.6c0.1-0.3,0.3-0.5,0.6-0.8c0.3-0.3,0.7-0.6,1.3-0.9s1.2-0.7,2-1.1c0.8-0.4,1.7-1,2.3-1.3c0.6-0.4,1-0.6,1.4-0.9
		c0.4-0.3,0.9-0.8,1.2-1.2c0.3-0.4,0.4-0.9,0.4-1.2c0-0.3-0.2-0.6-0.6-0.8c-0.4-0.2-0.9-0.5-1.5-0.6s-1.2-0.3-1.8-0.4
		c-0.7-0.1-1.4-0.1-2.1-0.2s-1.5,0-2.3,0.1c-0.8,0.1-1.6,0.1-2.2,0.2c-0.7,0.1-1.3,0.2-1.8,0.4c-0.5,0.2-1,0.3-1.2,0.5
		c-0.3,0.2-0.4,0.3-0.5,0.5C269.7,247.6,269.8,247.8,269.9,248L269.9,248z"/>
	
		<path id="path3138" inkscape:connector-curvature="0" inkscape:original-d="m 106.30508,69.423729 c 5.06315,-5.063147 10.1253,-10.125294 15.18645,-15.186441 20.24558,-6.508189 40.49817,-14.464277 60.74576,-21.694915 38.3264,-1.447242 75.21004,-2.893655 112.81356,-4.338983 24.58789,0.722144 49.17614,1.445328 73.76271,2.169491 22.4182,7.230354 43.39083,14.462277 65.08475,21.694916 6.50929,5.78415 13.01794,13.015949 19.52542,19.525423 -8.67697,7.953803 -17.35493,15.908605 -26.0339,23.864407 -34.71503,8.678003 -69.42273,17.354933 -104.13559,26.033903 -33.26567,-1.44738 -66.53008,-1.44733 -99.79661,-2.1695 -29.64959,-5.06329 -59.29844,-10.12529 -88.94916,-15.18644 -9.40038,-11.571933 -18.80126,-23.14224 -28.20339,-34.711861 z" inkscape:path-effect="#path-effect3140" class="st1" d="
		M271.2,247.5c-0.1-0.2,0.1-0.4,0.5-0.6s1.1-0.4,2.1-0.5c1-0.1,2.3-0.2,3.3-0.2c1.1,0,1.9,0,2.7,0.1c0.8,0.1,1.5,0.3,2,0.5
		c0.5,0.2,0.7,0.4,0.7,0.6c0,0.2-0.3,0.4-1.1,0.7c-0.7,0.2-1.9,0.5-3.1,0.6c-1.2,0.1-2.3,0.1-3.4,0c-1.1-0.1-2.1-0.2-2.8-0.5
		S271.2,247.7,271.2,247.5z"/>
</g>
</svg>
