<?xml version="1.0" encoding="UTF-8" standalone="no"?>
<svg
   xmlns:dc="http://purl.org/dc/elements/1.1/"
   xmlns:cc="http://creativecommons.org/ns#"
   xmlns:rdf="http://www.w3.org/1999/02/22-rdf-syntax-ns#"
   xmlns:svg="http://www.w3.org/2000/svg"
   xmlns="http://www.w3.org/2000/svg"
   viewBox="0 0 577.80402 682.66669"
   height="682.66669"
   width="577.80402"
   xml:space="preserve"
   id="svg2"
   version="1.1"><metadata
     id="metadata8"><rdf:RDF><cc:Work
         rdf:about=""><dc:format>image/svg+xml</dc:format><dc:type
           rdf:resource="http://purl.org/dc/dcmitype/StillImage" /></cc:Work></rdf:RDF></metadata><defs
     id="defs6"><clipPath
       id="clipPath18"
       clipPathUnits="userSpaceOnUse"><path
         id="path16"
         d="M 0,512 H 433.353 V 0 H 0 Z" /></clipPath></defs><g
     transform="matrix(1.3333333,0,0,-1.3333333,0,682.66667)"
     id="g10"><g
       id="g12"><g
         clip-path="url(#clipPath18)"
         id="g14"><g
           transform="translate(5.1597,426.0649)"
           id="g20"><path
             id="path22"
             style="fill:#ff0000;fill-opacity:1;fill-rule:nonzero;stroke:none"
             d="m 0,0 c 4.587,-8.41 12.231,-17.583 20.258,-26.375 8.027,-8.792 17.966,-18.729 25.227,-25.992 7.263,-7.262 12.615,-12.614 15.29,-18.346 2.676,-5.734 2.676,-11.849 1.075,-17.149 -1.601,-5.3 -6.043,-11.518 -14.071,-19.93 -8.029,-8.41 -20.257,-19.874 -29.049,-32.106 -8.792,-12.231 -14.143,-25.227 -17.583,-40.899 -3.44,-15.672 -4.969,-34.018 -3.926,-49.339 1.043,-15.32 5.072,-29.019 16.157,-43.162 11.086,-14.144 29.432,-29.432 47.249,-41.21 17.816,-11.778 35.697,-20.329 55.19,-27.593 19.494,-7.262 40.899,-13.377 57.335,-19.875 16.437,-6.498 27.904,-13.379 35.93,-22.552 8.026,-9.174 12.614,-20.64 15.672,-28.667 3.058,-8.027 4.587,-12.614 8.026,-9.937 3.442,2.675 8.792,12.613 12.233,22.932 3.439,10.321 4.967,21.025 1.91,32.873 -3.057,11.848 -10.702,24.845 -22.709,35.629 -12.005,10.785 -27.745,19.031 -41.123,25.91 -13.379,6.88 -24.081,12.231 -30.962,18.73 -6.881,6.498 -9.938,14.143 -8.027,23.316 1.912,9.174 8.793,19.877 18.73,30.578 9.938,10.703 22.935,21.407 39.752,33.255 16.817,11.849 37.461,24.846 61.54,40.9 24.08,16.053 51.603,35.165 70.713,48.543 19.113,13.379 29.815,21.023 42.638,33.064 12.822,12.04 28.459,29.241 37.924,44.935 9.465,15.693 13.468,31.703 12.703,43.933 -0.764,12.232 -6.116,21.406 -17.201,30.197 -11.083,8.791 -27.903,17.2 -45.485,23.316 -17.583,6.116 -35.93,9.938 -56.188,12.996 -20.259,3.058 -42.428,5.351 -65.362,5.733 -22.935,0.383 -46.633,-1.146 -70.714,-3.057 C 149.071,78.739 124.609,76.446 103.944,73.1 83.279,69.753 64.981,64.979 49.309,59.246 33.636,53.512 19.877,46.632 10.703,40.517 1.529,34.401 -3.057,29.05 -4.586,22.551 -6.115,16.052 -4.587,8.409 0,0" /></g><g
           transform="translate(44.1484,446.3232)"
           id="g24"><path
             id="path26"
             style="fill:#ffffff;fill-opacity:1;fill-rule:nonzero;stroke:none"
             d="m 0,0 c -2.293,8.792 3.058,14.143 16.313,20.597 13.255,6.454 34.906,14.186 65.866,18.788 30.958,4.6 69.95,6.1 102.822,6.482 32.872,0.383 58.865,-0.382 83.67,-4.701 24.807,-4.319 47.054,-11.735 61.769,-18.806 14.716,-7.071 21.979,-14.334 20.833,-21.978 -1.147,-7.644 -10.32,-16.053 -33.256,-24.845 -22.936,-8.792 -59.627,-17.965 -95.566,-22.17 -35.939,-4.205 -71.086,-3.441 -104.341,-0.383 -33.255,3.059 -64.598,8.41 -85.239,17.202 C 12.23,-21.023 2.292,-8.792 0,0" /></g></g></g></g></svg>