<?xml version="1.0" encoding="utf-8"?>
<!-- Generator: Adobe Illustrator 16.0.0, SVG Export Plug-In . SVG Version: 6.00 Build 0)  -->
<!DOCTYPE svg PUBLIC "-//W3C//DTD SVG 1.1//EN" "http://www.w3.org/Graphics/SVG/1.1/DTD/svg11.dtd">
<svg version="1.1" id="Layer_1" xmlns="http://www.w3.org/2000/svg" xmlns:xlink="http://www.w3.org/1999/xlink" x="0px" y="0px"
	 width="25px" height="25px" viewBox="0 0 25 25" enable-background="new 0 0 25 25" xml:space="preserve">
<path fill="none" stroke="#010101" stroke-width="0.75" stroke-linecap="square" stroke-miterlimit="10" stroke-dasharray="8,3,2,3,2,3" d="
	M13.416,13.499h8.415c0,0,0.3,8.918-8.415,8.918V13.499z"/>
<path fill="none" stroke="#010101" stroke-width="0.75" stroke-linecap="square" stroke-miterlimit="10" stroke-dasharray="8,3,2,3,2,3" d="
	M11.416,13.499H3.001c0,0-0.3,8.918,8.415,8.918V13.499z"/>
<path fill="none" stroke="#010101" stroke-width="0.75" stroke-linecap="square" stroke-miterlimit="10" stroke-dasharray="8,3,2,3,2,3" d="
	M13.583,11.499h8.415c0,0,0.3-8.916-8.415-8.916V11.499z"/>
<path fill="none" stroke="#010101" stroke-width="0.75" stroke-linecap="square" stroke-miterlimit="10" stroke-dasharray="8,3,2,3,2,3" d="
	M11.416,11.499H3.001c0,0-0.3-8.916,8.415-8.916V11.499z"/>
<path fill="none" stroke="#010101" stroke-width="0.75" stroke-linecap="square" stroke-miterlimit="10" stroke-dasharray="8,3,2,3,2,3" d="
	M-16.756,11.357V2.395c0,0,8.318-0.319,8.318,8.963H-16.756z"/>
<path fill="none" stroke="#010101" stroke-width="0.75" stroke-linecap="square" stroke-miterlimit="10" stroke-dasharray="8,3,2,3,2,3" d="
	M-18.757,13.642v8.963c0,0-8.318,0.318-8.318-8.963H-18.757z"/>
<path fill="none" stroke="#010101" stroke-width="0.75" stroke-linecap="square" stroke-miterlimit="10" stroke-dasharray="8,3,2,3,2,3" d="
	M-18.757,11.357V2.395c0,0-8.319-0.319-8.319,8.963H-18.757z"/>
<path fill="none" stroke="#010101" stroke-width="0.75" stroke-linecap="square" stroke-miterlimit="10" stroke-dasharray="8,3,2,3,2,3" d="
	M-16.756,13.357v8.963c0,0,8.318,0.319,8.318-8.963H-16.756z"/>
</svg>
