<?xml version="1.0" encoding="UTF-8" standalone="no"?>
<!-- Created with Inkscape (http://www.inkscape.org/) -->

<svg
   xmlns:dc="http://purl.org/dc/elements/1.1/"
   xmlns:cc="http://creativecommons.org/ns#"
   xmlns:rdf="http://www.w3.org/1999/02/22-rdf-syntax-ns#"
   xmlns:svg="http://www.w3.org/2000/svg"
   xmlns="http://www.w3.org/2000/svg"
   xmlns:sodipodi="http://sodipodi.sourceforge.net/DTD/sodipodi-0.dtd"
   xmlns:inkscape="http://www.inkscape.org/namespaces/inkscape"
   version="1.1"
   id="svg8543"
   width="626"
   height="626"
   viewBox="0 0 626 626"
   sodipodi:docname="AEC2.svg"
   inkscape:version="0.92.2 (5c3e80d, 2017-08-06)"
   inkscape:export-filename="C:\Users\Nilaja\Desktop\Icons\Places\AEC2.png"
   inkscape:export-xdpi="96"
   inkscape:export-ydpi="96">
  <metadata
     id="metadata8549">
    <rdf:RDF>
      <cc:Work
         rdf:about="">
        <dc:format>image/svg+xml</dc:format>
        <dc:type
           rdf:resource="http://purl.org/dc/dcmitype/StillImage" />
        <dc:title></dc:title>
      </cc:Work>
    </rdf:RDF>
  </metadata>
  <defs
     id="defs8547">
    <inkscape:path-effect
       effect="bspline"
       id="path-effect9106"
       is_visible="true"
       weight="33.333333"
       steps="2"
       helper_size="0"
       apply_no_weight="true"
       apply_with_weight="true"
       only_selected="false" />
    <inkscape:path-effect
       effect="bspline"
       id="path-effect9100"
       is_visible="true"
       weight="33.333333"
       steps="2"
       helper_size="0"
       apply_no_weight="true"
       apply_with_weight="true"
       only_selected="false" />
  </defs>
  <sodipodi:namedview
     pagecolor="#ffffff"
     bordercolor="#666666"
     borderopacity="1"
     objecttolerance="10"
     gridtolerance="10"
     guidetolerance="10"
     inkscape:pageopacity="0"
     inkscape:pageshadow="2"
     inkscape:window-width="1356"
     inkscape:window-height="702"
     id="namedview8545"
     showgrid="false"
     inkscape:zoom="0.53315399"
     inkscape:cx="-101.26756"
     inkscape:cy="276.42965"
     inkscape:window-x="0"
     inkscape:window-y="30"
     inkscape:window-maximized="0"
     inkscape:current-layer="svg8543" />
  <g
     id="g822">
    <g
       id="g9110">
      <path
         style="fill:none;fill-rule:evenodd;stroke:#000000;stroke-width:1;stroke-linecap:butt;stroke-linejoin:miter;stroke-opacity:1;stroke-miterlimit:4;stroke-dasharray:none"
         d="m 309.22608,628.70276 c -3.68137,-2.8243 -8.79025,-17.43343 -14.30046,-30.47693 -5.51022,-13.04351 -11.42105,-24.52 -17.19031,-35.5733 -5.76925,-11.0533 -11.39594,-21.68149 -16.55486,-29.63435 -5.15891,-7.95287 -10.4712,-13.92919 -17.66066,-17.68034 -7.18945,-3.75114 -16.56771,-5.62679 -28.44711,-5.31426 -11.87939,0.31253 -26.25805,2.81317 -38.45018,3.43848 -12.19214,0.62532 -22.19471,-0.62501 -29.74921,-2.38467 -7.55451,-1.75966 -13.70305,-4.49234 -17.76732,-7.61877 -4.06428,-3.12642 -6.56492,-6.87737 -5.89124,-15.65218 0.67368,-8.77482 4.52187,-22.5739 3.30934,-31.47137 -1.21254,-8.89746 -4.97646,-11.29638 -9.96003,-16.05373 -4.98358,-4.75735 -5.49135,-6.43607 -4.64465,-9.93187 0.84671,-3.49581 3.38548,-7.68917 1.89479,-11.77134 -1.4907,-4.08217 -7.01031,-8.05448 -9.41958,-11.89794 -2.40926,-3.84347 -1.7082,-7.55681 -1.35778,-13.27518 0.35042,-5.71838 0.35042,-13.44195 -0.67181,-18.07907 -1.02224,-4.63711 -3.06686,-6.18889 -6.243591,-7.462 -3.176731,-1.2731 -7.488072,-2.26803 -11.301565,-3.6497 -3.813493,-1.38167 -7.128615,-3.14973 -9.228864,-5.74765 -2.100248,-2.59791 -2.984333,-6.02374 -1.271339,-13.1516 1.712994,-7.12787 6.024247,-17.96128 11.273777,-29.78648 5.24953,-11.8252 11.439485,-24.64725 15.418092,-34.15189 3.97861,-9.50465 5.74714,-15.6945 5.2008,-22.50574 -0.54635,-6.81125 -6.15614,-21.38998 -8.808597,-31.77903 -2.65246,-10.38906 -3.722452,-20.16148 -3.815275,-29.91011 -0.09282,-9.74863 0.791437,-19.4755 2.294572,-29.4312 1.503134,-9.9557 3.802097,-20.99071 8.8302,-33.05148 5.02809,-12.06077 13.09805,-25.95902 23.26572,-39.663163 10.16768,-13.704143 22.54728,-27.410129 38.68294,-39.788044 16.13566,-12.377914 36.03125,-23.431019 51.76608,-30.069972 15.73484,-6.638952 27.1479,-8.833772 39.74081,-11.079939 12.59291,-2.246167 25.42685,-4.3851574 41.35171,-5.0477134 15.92487,-0.662556 34.47326,0.2207009 53.70359,2.6521504 19.23033,2.43145 39.12542,6.410467 55.92441,11.715448 16.799,5.304981 30.50433,11.936593 44.42982,20.778184 13.92549,8.841591 28.07281,19.89419 40.23014,31.609418 12.15732,11.715227 22.3255,24.093878 31.83043,38.461761 9.50493,14.36788 18.34666,30.72508 24.04186,44.00074 5.6952,13.27565 8.45171,24.30168 10.22015,35.35422 1.76845,11.05253 2.65257,22.54612 1.76843,34.92506 -0.88413,12.37895 -3.53647,25.64059 -7.73638,37.79854 -4.19991,12.15794 -9.94659,23.20924 -16.01521,33.75626 -6.06863,10.54702 -12.05696,19.95725 -18.46766,29.9049 -6.4107,9.94764 -13.04127,20.11451 -19.67304,30.94637 -6.63177,10.83186 -13.26236,22.3249 -17.90466,33.81985 -4.64229,11.49494 -7.29456,22.98811 -8.62096,32.27245 -1.32641,9.28434 -1.32641,17.24125 -0.66326,24.53632 0.66315,7.29507 1.98924,14.36758 2.87352,18.12576 0.88428,3.75819 1.32632,4.20023 -2.70791,6.04233 -4.03424,1.84211 -14.09026,5.67298 -23.59585,10.31518 -9.50559,4.6422 -19.23032,10.38863 -29.17801,17.24143 -9.94768,6.8528 -20.11454,14.80946 -30.50431,24.53599 -10.38977,9.72652 -20.99878,21.21962 -31.49604,33.51336 -10.49725,12.29374 -20.44916,24.8418 -27.19122,33.68379 -6.74207,8.84199 -10.05672,13.70347 -12.84222,20.61639 -2.78551,6.91291 -5.03866,15.87093 -8.72002,13.04663 z"
         id="path9098"
         inkscape:connector-curvature="0"
         inkscape:path-effect="#path-effect9100"
         inkscape:original-d="m 310.65363,640.48771 c -5.10772,-14.60967 -10.2166,-29.2188 -15.32663,-43.82739 -5.91041,-11.47861 -11.82123,-22.95511 -17.73366,-34.43177 -5.62609,-10.62995 -11.25278,-21.25814 -16.88067,-31.88572 -5.00051,-5.00251 -10.00237,-11.25478 -15.00505,-16.88067 -9.37705,-1.87661 -18.75531,-3.75227 -28.13446,-5.6269 -14.38001,2.50005 -28.75867,5.00068 -43.13951,7.50253 -10.00315,-1.25152 -20.00572,-2.50185 -30.01009,-3.75127 -5.00111,-2.50205 -11.25278,-5.00268 -16.88067,-7.50252 -2.50005,-3.75257 -5.00069,-7.50352 -7.50253,-11.25378 3.84872,-13.79841 7.6969,-27.5975 11.54386,-41.39475 -6.27194,-3.99903 -10.03587,-6.39794 -18.81883,-11.99407 -1.18373,-3.91777 -1.69151,-5.59649 -2.53876,-8.39322 2.53976,-4.19434 5.07853,-8.3877 7.61629,-12.58005 -5.51862,-3.97331 -11.03824,-7.94561 -16.55886,-11.91692 0.70206,-3.71434 1.40312,-7.42768 2.10318,-11.14001 10e-4,-7.72457 10e-4,-15.44814 0,-23.17071 -2.04362,-1.55278 -4.088243,-3.10456 -6.133863,-4.65534 -4.30842,-0.99548 -8.61976,-1.99041 -12.93114,-2.98411 -3.31524,-1.76966 -6.63036,-3.53773 -9.94704,-5.30509 -0.88328,-3.42757 -1.76736,-6.8534 -2.65254,-10.2786 4.31051,-10.83002 8.62176,-21.66343 12.93114,-32.49364 6.18958,-12.8202 12.37953,-25.64225 18.567803,-38.46187 1.76919,-6.18968 3.53772,-12.37953 5.30508,-18.56779 -2.65103,-7.5151 -8.46929,-22.01361 -12.705433,-33.01891 -1.06889,-9.77247 -2.13888,-19.54489 -3.20982,-29.31584 0.8851,-9.72611 1.76936,-19.45298 2.65254,-29.17797 2.21121,-10.16794 4.42191,-21.22134 6.631363,-31.83051 7.51571,-13.7043 15.91625,-27.4106 23.87288,-41.114399 12.37846,-13.70462 24.75806,-27.410605 37.13559,-41.114407 19.89355,-11.052414 39.78914,-22.10552 59.68221,-33.156779 11.49466,-2.653384 22.9897,-4.421905 34.48305,-6.631357 13.70443,-2.211231 26.52642,-4.4219043 39.78813,-6.6313563 18.56721,1.325158 37.1366,1.767362 55.70339,2.6525433 19.89405,3.97761 39.78914,7.956627 59.68221,11.936441 13.70527,6.630099 27.4106,13.261712 41.1144,19.894068 14.14746,11.050922 28.29479,22.103519 42.44068,33.156779 10.16898,12.377412 20.33716,24.756062 30.50424,37.135587 8.84288,16.35649 17.68461,32.71369 26.52542,49.07204 2.6536,10.1673 5.30609,21.21934 7.95763,31.83051 0.88524,11.49411 1.76936,22.9877 2.65254,34.48305 -2.65175,13.26277 -5.30408,26.52442 -7.95763,39.78813 -5.74667,11.05222 -11.49335,22.10352 -17.24152,33.15678 -6.18894,10.16818 -12.37753,19.45098 -18.5678,29.17797 -6.63115,10.16829 -13.26171,20.33516 -19.89407,30.50424 -6.63111,11.49466 -13.26171,22.9877 -19.89406,34.48305 -2.65182,11.49453 -5.30409,22.9877 -7.95763,34.48305 0.001,7.07316 0.001,15.03007 0,22.54661 1.32745,7.07338 2.65354,14.14589 3.97881,21.22034 0.44314,0.44114 0.88518,0.88318 1.32627,1.32627 -8.39871,3.53572 -18.56679,7.07244 -27.85169,10.61017 -9.72625,5.74692 -19.45098,11.49335 -29.17797,17.24152 -10.16831,7.95759 -20.33516,15.91426 -30.50423,23.87288 -10.61033,11.4946 -21.21934,22.9877 -31.83051,34.48305 -10.168,13.26291 -20.33516,25.64025 -30.50424,38.46187 -3.31496,4.86241 -6.62961,9.72389 -9.94704,14.58898 -2.25309,8.96077 -4.50624,17.91879 -6.76076,26.87926 z"
         sodipodi:nodetypes="ccccccccccccccccccccccccccccccccccccccccccccccccccccccccc" />
      <path
         style="fill:none;fill-rule:evenodd;stroke:#000000;stroke-width:1px;stroke-linecap:butt;stroke-linejoin:miter;stroke-opacity:1"
         d="m 149.74178,157.48079 c -0.44202,-2.98421 -0.44202,-3.86839 -0.3316,-7.51203 0.11041,-3.64364 0.33171,-10.0612 1.54747,-16.47108 1.21576,-6.40988 3.42656,-12.82122 8.2891,-20.44639 4.86254,-7.62516 12.37949,-16.468628 21.77855,-25.011815 9.39907,-8.543186 21.10539,-17.097804 33.15177,-23.728742 12.04639,-6.630937 24.6472,-11.494413 35.47797,-15.03094 10.83076,-3.536528 19.89448,-5.747189 32.16141,-6.962787 12.26692,-1.215598 27.74209,-1.436673 42.88811,-1.2154 15.14602,0.221273 29.94714,0.884011 45.53018,3.315441 15.58303,2.431429 31.94143,6.631557 46.08788,12.047027 14.14646,5.415471 26.08341,12.047111 37.13538,20.004534 11.05197,7.957424 21.22034,17.241586 31.60935,29.067362 10.38902,11.82578 20.99923,26.19378 29.04954,39.63681 8.05032,13.44302 13.61204,26.12376 17.14,41.055 3.52796,14.93123 5.09293,32.59305 4.20885,48.17695 -0.88409,15.58391 -4.19959,29.288 -10.05739,41.99862 -5.85779,12.71062 -14.25679,24.42501 -22.93624,33.45148 -8.67945,9.02647 -17.84564,15.50987 -27.46749,20.24355 -9.62185,4.73367 -17.05593,6.96559 -24.46141,8.51307 -7.40548,1.54749 -13.40721,1.99781 -19.94596,1.67039 -6.53875,-0.32741 -13.61093,-1.43244 -20.57462,-4.859 -6.96369,-3.42656 -13.81529,-9.17307 -19.78366,-15.80462 -5.96838,-6.63156 -11.05235,-14.14699 -15.47571,-18.21822 -4.42335,-4.07123 -8.61735,-4.77023 -13.59156,-5.98613 -4.9742,-1.2159 -10.9412,-2.9839 -16.79951,-6.41044 -5.8583,-3.42654 -11.60485,-8.51003 -16.57853,-16.0259 -4.97368,-7.51587 -9.17349,-17.46279 -11.826,-23.87305 -2.65252,-6.41027 -3.75779,-9.284 -6.74122,-12.26747 -2.98342,-2.98347 -7.84732,-6.07867 -17.68401,-9.50497 -9.83668,-3.42629 -24.64592,-7.18386 -38.24037,-9.39439 -13.59446,-2.21054 -25.9724,-2.87364 -37.24619,-4.31046 -11.27379,-1.43683 -21.44109,-3.64711 -30.00178,-7.90278 -8.56068,-4.25568 -15.75499,-10.77552 -21.17072,-16.96496 -5.41573,-6.18944 -9.17347,-12.15762 -11.49441,-17.6839 -2.32094,-5.52629 -3.20516,-10.61055 -3.64718,-13.59476 z"
         id="path9104"
         inkscape:connector-curvature="0"
         inkscape:path-effect="#path-effect9106"
         inkscape:original-d="m 149.29976,155.38176 c 0.001,-0.88518 0.001,-1.76936 0,-2.65255 0.2218,-6.40406 0.44309,-12.82162 0.66314,-19.23093 2.21109,-6.41028 4.4219,-12.82162 6.63135,-19.23093 7.51513,-8.84115 15.03208,-17.684609 22.54661,-26.525419 11.49396,-7.95766 22.9897,-16.80044 34.48305,-25.19915 12.59934,-4.86352 25.20016,-9.72699 37.79873,-14.58899 9.06299,-2.21124 18.12671,-4.4219 27.18856,-6.63135 15.47216,-0.22202 30.94733,-0.44309 46.41949,-0.66314 14.81006,0.88312 29.62106,1.32527 44.43009,1.98941 16.35729,4.19859 32.71569,8.39871 49.07203,12.59957 11.93693,6.63008 23.87388,13.26172 35.80932,19.89407 10.16879,9.28264 20.33716,18.5668 30.50424,27.851699 10.61112,14.36687 21.22134,28.73487 31.83051,43.10381 5.30615,12.59872 11.05326,25.19815 16.57839,37.79873 1.76943,17.24117 3.09563,34.92414 4.64195,52.38771 -3.31485,13.70451 -6.63036,27.4086 -9.94704,41.11441 -8.39943,11.71539 -16.79843,23.42979 -25.19915,35.14618 -9.06273,6.18887 -18.1247,12.81962 -27.18856,19.23093 -10.16835,3.09403 -17.61397,5.28751 -26.42246,7.93276 -6.00235,0.44944 -12.00408,0.89976 -18.00762,1.35114 -7.07371,-1.10642 -14.14589,-2.21145 -21.22034,-3.31567 -6.8522,-5.74885 -13.7038,-11.49536 -20.5572,-17.24153 -5.08311,-7.51664 -10.16708,-15.03207 -15.25212,-22.54661 -3.75666,-0.66412 -7.95663,-1.32727 -11.93644,-1.98941 -5.96844,-1.76972 -11.93544,-3.53772 -17.90467,-5.30508 -5.74679,-5.08559 -11.49335,-10.16908 -17.24152,-15.25212 -4.19891,-9.94815 -8.39872,-19.89507 -12.59958,-29.8411 -1.10417,-2.87445 -2.20945,-5.74818 -3.31567,-8.62077 -4.86109,-3.09505 -9.72499,-6.19026 -14.58899,-9.28389 -14.80981,-3.75897 -29.61905,-7.51654 -44.43008,-11.27331 -12.37812,-0.66417 -24.75606,-1.32727 -37.1356,-1.98941 -10.16785,-2.21162 -20.33515,-4.4219 -30.50423,-6.63135 -6.85191,-6.41178 -14.1459,-12.82162 -21.22034,-19.23093 -3.7568,-5.96927 -7.51454,-11.93744 -11.27331,-17.90466 -0.88314,-5.08482 -1.76736,-10.16908 -2.65254,-15.25212 z" />
    </g>
  </g>
</svg>
