<?xml version="1.0" encoding="UTF-8" standalone="no"?>
<!-- Created with Inkscape (http://www.inkscape.org/) -->

<svg
   xmlns:dc="http://purl.org/dc/elements/1.1/"
   xmlns:cc="http://creativecommons.org/ns#"
   xmlns:rdf="http://www.w3.org/1999/02/22-rdf-syntax-ns#"
   xmlns:svg="http://www.w3.org/2000/svg"
   xmlns="http://www.w3.org/2000/svg"
   xmlns:sodipodi="http://sodipodi.sourceforge.net/DTD/sodipodi-0.dtd"
   xmlns:inkscape="http://www.inkscape.org/namespaces/inkscape"
   version="1.1"
   id="svg9112"
   width="133.12"
   height="133.12"
   viewBox="0 0 133.12 133.12"
   sodipodi:docname="atm2.svg"
   inkscape:version="0.92.2 (5c3e80d, 2017-08-06)"
   inkscape:export-filename="C:\Users\Nilaja\Desktop\Icons\Places\atm2.png"
   inkscape:export-xdpi="96"
   inkscape:export-ydpi="96">
  <metadata
     id="metadata9118">
    <rdf:RDF>
      <cc:Work
         rdf:about="">
        <dc:format>image/svg+xml</dc:format>
        <dc:type
           rdf:resource="http://purl.org/dc/dcmitype/StillImage" />
        <dc:title></dc:title>
      </cc:Work>
    </rdf:RDF>
  </metadata>
  <defs
     id="defs9116">
    <inkscape:path-effect
       effect="bspline"
       id="path-effect9695"
       is_visible="true"
       weight="33.333333"
       steps="2"
       helper_size="0"
       apply_no_weight="true"
       apply_with_weight="true"
       only_selected="false" />
    <inkscape:path-effect
       effect="bspline"
       id="path-effect9691"
       is_visible="true"
       weight="33.333333"
       steps="2"
       helper_size="0"
       apply_no_weight="true"
       apply_with_weight="true"
       only_selected="false" />
    <inkscape:path-effect
       effect="bspline"
       id="path-effect9687"
       is_visible="true"
       weight="33.333333"
       steps="2"
       helper_size="0"
       apply_no_weight="true"
       apply_with_weight="true"
       only_selected="false" />
    <inkscape:path-effect
       effect="bspline"
       id="path-effect9683"
       is_visible="true"
       weight="33.333333"
       steps="2"
       helper_size="0"
       apply_no_weight="true"
       apply_with_weight="true"
       only_selected="false" />
    <inkscape:path-effect
       effect="bspline"
       id="path-effect9679"
       is_visible="true"
       weight="33.333333"
       steps="2"
       helper_size="0"
       apply_no_weight="true"
       apply_with_weight="true"
       only_selected="false" />
    <inkscape:path-effect
       effect="bspline"
       id="path-effect9675"
       is_visible="true"
       weight="33.333333"
       steps="2"
       helper_size="0"
       apply_no_weight="true"
       apply_with_weight="true"
       only_selected="false" />
    <inkscape:path-effect
       effect="bspline"
       id="path-effect9671"
       is_visible="true"
       weight="33.333333"
       steps="2"
       helper_size="0"
       apply_no_weight="true"
       apply_with_weight="true"
       only_selected="false" />
  </defs>
  <sodipodi:namedview
     pagecolor="#ffffff"
     bordercolor="#666666"
     borderopacity="1"
     objecttolerance="10"
     gridtolerance="10"
     guidetolerance="10"
     inkscape:pageopacity="0"
     inkscape:pageshadow="2"
     inkscape:window-width="1366"
     inkscape:window-height="715"
     id="namedview9114"
     showgrid="false"
     inkscape:zoom="2.5071696"
     inkscape:cx="-13.358171"
     inkscape:cy="82.844953"
     inkscape:window-x="-8"
     inkscape:window-y="22"
     inkscape:window-maximized="1"
     inkscape:current-layer="svg9112" />
  <g
     id="g9703"
     transform="translate(-0.39885615,8.7748353)">
    <path
       sodipodi:nodetypes="ccccccccccccccccccc"
       inkscape:original-d="m 59.628994,43.177933 c 0.001,-0.001 0.001,-0.001 0,0 -1.793853,-0.931664 -3.593731,-1.864934 -5.384558,-2.791993 10e-4,-10e-4 10e-4,-10e-4 0,0 -0.132238,-2.39928 -0.264935,-4.787832 -0.398856,-7.17941 0.06746,0.06546 0.133952,0.131952 0.199428,0.199428 15.22401,8.773835 30.44702,17.54867 45.669029,26.324506 0.200424,0.06547 0.399853,0.131952 0.598283,0.199428 -0.0653,2.053556 -0.13195,4.120513 -0.19943,6.18227 -0.0655,0.06551 -0.131948,0.131952 -0.199424,0.199428 -2.090757,-1.148092 -4.120514,-2.261185 -6.182271,-3.390277 0.06749,0.06549 0.133952,0.131952 0.199428,0.199428 -10.70164,6.646602 -20.805929,12.922558 -32.10792,19.942807 -1.262464,0.27977 -2.392136,0.530809 -3.589705,0.797713 C 57.102373,83.660562 55.973813,83.461404 54.842721,83.262976 44.86527,77.540998 34.900913,71.8281 24.928509,66.112162 c -0.33139,-0.665782 -0.66376,-1.330521 -0.99714,-1.994281 3.654982,-2.060517 7.313363,-4.255465 10.968544,-6.381698 8.241363,-4.852182 16.487054,-9.7065 24.729081,-14.55825 z"
       inkscape:path-effect="#path-effect9671"
       inkscape:connector-curvature="0"
       id="path9669"
       d="m 55.50807,45.603961 c 4.120924,-2.426028 4.120924,-2.426028 3.223687,-2.891262 -0.897236,-0.465234 -2.697114,-1.398504 -3.592218,-1.862631 -0.895103,-0.464128 -0.895103,-0.464128 -0.961748,-1.663739 -0.06665,-1.199611 -0.199342,-3.588163 -0.232547,-4.750751 -0.0332,-1.162588 0.03329,-1.096096 7.67819,3.324651 7.644902,4.420748 22.867911,13.195583 30.579269,17.616246 7.711357,4.420663 7.910787,4.48714 7.977077,5.547041 0.0663,1.059902 -3.8e-4,3.126858 -0.0664,4.190505 -0.066,1.063647 -0.132449,1.130092 -1.211891,0.59038 -1.079443,-0.539713 -3.1092,-1.652805 -4.106507,-2.184702 -0.997307,-0.531896 -0.930845,-0.465434 -6.248342,2.891242 -5.317497,3.356676 -15.421786,9.632631 -21.704016,13.282875 -6.28223,3.650243 -7.411902,3.901282 -8.576182,3.934584 -1.16428,0.0333 -2.29284,-0.165855 -7.847351,-3.126036 -5.55451,-2.960182 -15.518867,-8.67308 -20.671025,-11.864232 -5.152158,-3.191152 -5.484527,-3.855891 -3.837474,-5.24299 1.647053,-1.3871 5.334312,-3.532414 11.282583,-7.021625 5.948271,-3.48921 14.193962,-8.343529 18.314885,-10.769556 z"
       style="fill:none;fill-rule:evenodd;stroke:#000000;stroke-width:1px;stroke-linecap:butt;stroke-linejoin:miter;stroke-opacity:1" />
    <path
       inkscape:original-d="m 49.857019,44.175074 c -0.796712,0.530808 -1.594425,1.062616 -2.393137,1.595424 -0.132145,-0.06757 -0.131952,-0.133952 -0.199428,-0.199428 -0.663761,-0.865188 -1.328521,-1.729376 -1.994281,-2.592565 0.06746,-1.928481 0.133952,-3.856609 0.199428,-5.783414 0.001,-3.522341 0.001,-7.047459 0,-10.569688 0.001,-1.263686 0.001,-2.527089 0,-3.789133 0.465964,-1.063775 0.931664,-2.128233 1.395997,-3.190849 1.196211,0.0654 2.394136,0.131952 3.589705,0.199428 3.587881,2.190982 7.180411,4.386417 10.769116,6.581126 6.913961,3.920776 13.828013,7.843171 20.74052,11.766256 6.315923,3.655009 12.631445,7.311363 18.945671,10.968545 1.52987,0.863145 3.05889,1.727376 4.58684,2.592565 0.79854,0.79654 1.59643,1.594424 2.39314,2.393136 0.33338,1.594425 0.66576,3.18985 0.99714,4.786274 -0.0655,4.854058 -0.13195,9.7045 -0.19943,14.55825 0.001,1.461778 0.001,2.923945 0,4.387417 -0.39813,0.664215 -0.79671,1.328521 -1.19657,1.994281 -0.79812,0.132187 -1.59442,0.264904 -2.39313,0.398856 -1.06413,-0.466994 -2.12624,-0.931664 -3.19085,-1.395996 -2.326698,-1.331111 -4.652325,-2.792993 -6.979986,-4.18799 -1.461658,-0.865297 -2.923945,-1.729376 -4.387418,-2.592565 -0.663898,-0.466428 -1.328521,-0.931664 -1.994281,-1.395996 1.131435,-0.532969 2.261185,-1.064617 3.390278,-1.595425 0.200215,-0.13381 0.399856,-0.266904 0.598284,-0.398856 3.437753,2.047834 6.914506,4.120513 10.370263,6.18227 0.46629,0.06547 0.93166,0.131952 1.39599,0.199428 0.20007,-0.399136 0.39986,-0.931664 0.59829,-1.395996 0.001,-4.973771 0.001,-9.972404 0,-14.957106 -0.0655,-0.798552 -0.13195,-1.729376 -0.19943,-2.592565 -1.12789,-0.665054 -2.25919,-1.33052 -3.39028,-1.994281 C 92.400264,48.958944 83.494887,43.775218 74.5861,38.591088 68.670526,35.26617 62.754368,31.942485 56.837001,28.619684 55.109527,27.621487 53.381248,26.624403 51.651871,25.628263 51.054477,25.36131 50.456303,25.095455 49.857019,24.83055 c -0.198583,0.398166 -0.397856,0.796713 -0.598285,1.196569 0.001,2.265985 0.001,4.51937 0,6.780554 -0.0655,2.526207 -0.131952,5.051178 -0.199428,7.578267 0.0675,0.930043 0.133952,1.727377 0.199428,2.592565 0.20064,0.39828 0.399857,0.796713 0.598285,1.196569 z"
       inkscape:path-effect="#path-effect9675"
       inkscape:connector-curvature="0"
       id="path9673"
       d="m 49.358926,44.240965 c -0.298465,0.465148 -1.096178,0.996956 -1.54554,1.213316 -0.449362,0.21636 -0.482456,0.183265 -0.84813,-0.28214 -0.365674,-0.465404 -1.030434,-1.329592 -1.329508,-2.725871 -0.299075,-1.396279 -0.232587,-3.324407 -0.199367,-6.048964 0.03322,-2.724556 0.03322,-6.249674 0.03322,-8.642631 0,-2.392958 0,-3.656361 0.232746,-4.819374 0.232746,-1.163012 0.698447,-2.22747 1.528925,-2.725449 0.830479,-0.497978 2.028404,-0.431427 4.419799,0.697863 2.391396,1.12929 5.983926,3.324724 11.235281,6.382473 5.251355,3.057749 12.165408,6.980143 18.779617,10.769188 6.614209,3.789046 12.929731,7.4454 16.851786,9.705566 3.922055,2.260165 5.451075,3.124395 6.614155,3.955167 1.16308,0.830771 1.96097,1.628658 2.52594,2.824846 0.56496,1.196188 0.89734,2.791613 1.03036,6.016727 0.13303,3.225113 0.0666,8.075555 0.0333,11.233326 -0.0332,3.157771 -0.0332,4.619938 -0.23246,5.683693 -0.19921,1.063756 -0.5978,1.72806 -1.19657,2.127528 -0.59877,0.399468 -1.39507,0.532185 -2.32683,0.365862 -0.93175,-0.166324 -1.99386,-0.630996 -3.67493,-1.553182 -1.681072,-0.922187 -4.03604,-2.335167 -5.930695,-3.465313 -1.894655,-1.130145 -3.356943,-1.994224 -4.420679,-2.659052 -1.063736,-0.664827 -1.72836,-1.130063 -1.495021,-1.629068 0.233339,-0.499004 1.363089,-1.030651 2.027718,-1.363062 0.664629,-0.33241 0.86427,-0.465504 2.681933,0.49291 1.817662,0.958414 5.294416,3.031093 7.255714,4.094678 1.96129,1.063585 2.42666,1.130067 2.74669,0.958425 0.32002,-0.171642 0.54384,-0.693873 0.64329,-3.412821 0.0995,-2.718948 0.0995,-7.717581 0.0687,-10.609364 -0.0307,-2.891782 -0.10229,-3.822212 -0.69979,-4.585785 -0.59749,-0.763572 -1.72879,-1.429041 -6.748934,-4.354686 C 92.399576,48.960126 83.494199,43.7764 76.082029,39.521878 68.669859,35.267357 62.753701,31.943673 58.931272,29.783172 c -3.822428,-2.160501 -5.550707,-3.157585 -6.714019,-3.789121 -1.163312,-0.631535 -1.761486,-0.89739 -2.160351,-0.831463 -0.398866,0.06593 -0.59814,0.464475 -0.698154,1.797495 -0.100014,1.333021 -0.100014,3.586406 -0.133253,5.980089 -0.03324,2.393682 -0.09969,4.918653 -0.09718,6.647078 0.0025,1.728424 0.06387,2.526149 0.196865,3.158142 0.132993,0.631993 0.33221,1.030426 0.03374,1.495573 z"
       style="fill:none;fill-rule:evenodd;stroke:#000000;stroke-width:1px;stroke-linecap:butt;stroke-linejoin:miter;stroke-opacity:1" />
    <path
       sodipodi:nodetypes="ccccccccccccc"
       inkscape:original-d="m 48.261594,57.536755 c 0.931664,0.397856 1.862329,0.796712 2.791993,1.196568 1.794922,1.062065 3.590706,2.126233 5.384558,3.190849 0.732114,0.464254 1.596425,0.929665 2.393137,1.395997 -0.397701,0.464151 -0.796712,0.929664 -1.196568,1.395996 -2.864046,1.664725 -5.582986,3.322802 -8.37598,4.985702 -0.730544,0.132008 -1.461472,0.264904 -2.193708,0.398856 -0.864541,-0.3339 -1.727377,-0.66576 -2.592565,-0.99714 -2.061036,-1.065276 -4.120232,-2.128087 -6.18227,-3.190849 -0.597366,-0.665851 -1.195569,-1.330521 -1.794853,-1.994281 0.798712,-0.399856 1.596424,-0.798711 2.393137,-1.196568 1.592808,-0.929555 3.191849,-1.995281 4.786273,-2.991421 1.528829,-0.731701 3.058898,-1.463473 4.586846,-2.193709 z"
       inkscape:path-effect="#path-effect9679"
       inkscape:connector-curvature="0"
       id="path9677"
       d="m 47.963295,58.101617 c 1.229446,-0.165799 2.160111,0.233057 3.522313,0.964003 1.362203,0.730947 3.157986,1.795115 4.429411,2.545087 1.271425,0.749973 2.118862,1.244311 2.318671,1.708927 0.199809,0.464615 -0.199202,0.930128 -1.822308,2.010484 -1.623105,1.080355 -4.359477,2.709147 -6.121262,3.606848 -1.761786,0.897701 -2.492714,1.030597 -3.291406,0.93083 -0.798693,-0.09977 -1.661529,-0.431627 -3.124718,-1.12996 -1.463189,-0.698332 -3.522385,-1.761143 -4.852303,-2.625576 -1.329918,-0.864432 -1.928121,-1.529102 -1.827782,-2.061183 0.100339,-0.53208 0.898051,-0.930936 2.077891,-1.618554 1.17984,-0.687618 2.808691,-1.705649 4.370334,-2.569492 1.561644,-0.863843 3.091713,-1.595615 4.321159,-1.761414 z"
       style="fill:none;fill-rule:evenodd;stroke:#000000;stroke-width:1px;stroke-linecap:butt;stroke-linejoin:miter;stroke-opacity:1" />
    <path
       inkscape:original-d="m 43.47532,61.724744 c 1.131093,-0.33338 2.261185,-0.66576 3.390278,-0.99714 1.063495,0.06541 1.862328,0.131952 2.791993,0.199428 0.93074,0.46387 1.862328,0.929664 2.791993,1.395997 0.200342,0.729922 0.399856,1.461472 0.598284,2.193708 -0.664376,0.531301 -1.328521,1.062617 -1.994281,1.595425 -0.997787,0.265343 -1.993281,0.530808 -2.991421,0.797712 -1.063878,-0.200664 -2.126233,-0.532808 -3.190849,-0.797712 -0.863762,-0.599681 -1.727377,-1.197568 -2.592565,-1.794853 0.399952,-0.865396 0.798712,-1.729376 1.196568,-2.592565 z"
       inkscape:path-effect="#path-effect9683"
       inkscape:connector-curvature="0"
       id="path9681"
       d="m 43.841812,61.989871 c 0.764792,-0.597857 1.894884,-0.930237 2.990708,-1.058297 1.095823,-0.12806 1.89533,-0.07095 2.82527,0.194788 0.929941,0.26574 1.861529,0.731534 2.42624,1.329223 0.564712,0.597689 0.764225,1.329239 0.531892,1.960907 -0.232333,0.631668 -0.896477,1.162984 -1.728208,1.562341 -0.831731,0.399357 -1.827225,0.664822 -2.850643,0.666867 -1.023417,0.002 -2.101432,-0.267458 -3.06587,-0.699766 -0.964438,-0.432309 -1.828053,-1.030197 -2.060497,-1.762211 -0.232444,-0.732015 0.166316,-1.595995 0.931108,-2.193852 z"
       style="fill:none;fill-rule:evenodd;stroke:#000000;stroke-width:1px;stroke-linecap:butt;stroke-linejoin:miter;stroke-opacity:1" />
    <path
       inkscape:original-d="m 55.441005,53.348765 c 1.6629,-0.99814 3.324801,-1.995281 4.985702,-2.991421 1.462437,-0.864577 2.925945,-1.729377 4.387417,-2.592565 0.465957,-0.26669 0.931665,-0.532808 1.395997,-0.797712 0.664068,0.330534 1.33052,0.66376 1.994281,0.99714 0.33318,0.131872 0.66576,0.264904 0.99714,0.398856 -1.060961,0.662726 -2.126233,1.328521 -3.190849,1.994281 -1.39653,0.930687 -2.790993,1.860329 -4.18799,2.791993 -1.130026,0.66431 -2.259185,1.328521 -3.390277,1.994281 -0.06555,0.06555 -0.131952,0.131952 -0.199428,0.199428 -0.606284,-0.473332 -1.195569,-0.931664 -1.794853,-1.395997 -0.331457,-0.200474 -0.66376,-0.399856 -0.99714,-0.598284 z"
       inkscape:path-effect="#path-effect9691"
       inkscape:connector-curvature="0"
       id="path9689"
       d="m 56.43888,52.949644 c 0.665202,-0.598725 2.327103,-1.595865 3.888773,-2.526219 1.56167,-0.930354 3.025178,-1.795155 3.988896,-2.360084 0.963717,-0.564929 1.429425,-0.831047 1.993232,-0.797794 0.563808,0.03325 1.23026,0.36648 1.728789,0.599109 0.498529,0.23263 0.831109,0.365662 0.466644,0.763532 -0.364465,0.39787 -1.429737,1.063666 -2.660317,1.86187 -1.23058,0.798203 -2.625043,1.727845 -3.888542,2.52587 -1.263498,0.798025 -2.392657,1.462236 -2.991068,1.827738 -0.598411,0.365502 -0.664813,0.431904 -1.002124,0.22953 -0.337311,-0.202374 -0.926595,-0.660707 -1.391888,-0.993076 -0.465293,-0.332369 -0.797596,-0.531751 -0.132395,-1.130476 z"
       style="fill:none;fill-rule:evenodd;stroke:#000000;stroke-width:1px;stroke-linecap:butt;stroke-linejoin:miter;stroke-opacity:1" />
    <path
       inkscape:original-d="m 63.2187,57.736183 c 2.394137,-1.330521 4.787274,-2.660041 7.17941,-3.988562 0.864759,-0.466101 1.862329,-0.931664 2.791993,-1.395996 0.399342,-0.332952 0.798713,-0.66576 1.196569,-0.997141 0.46507,0.396775 0.931664,0.796713 1.395996,1.196569 0.46625,0.264857 0.931665,0.530808 1.395997,0.797712 -0.929018,0.530439 -1.993281,1.062617 -2.991421,1.595425 -1.330112,0.797667 -2.658041,1.594424 -3.988562,2.393137 -0.930488,0.531278 -1.860328,1.062616 -2.791993,1.595424 -0.531485,0.331803 -1.062616,0.663761 -1.595424,0.997141 C 65.34591,59.662403 64.8816,59.397083 64.415268,59.132179 64.017135,58.665524 63.618556,58.200515 63.2187,57.736183 Z"
       inkscape:path-effect="#path-effect9695"
       inkscape:connector-curvature="0"
       id="path9693"
       d="m 64.615256,57.303717 c 0.99777,-0.897715 3.390906,-2.227236 5.026004,-3.111228 1.635098,-0.883992 2.619379,-1.376132 3.283823,-1.774925 0.664444,-0.398792 1.063815,-0.731601 1.494778,-0.698418 0.430964,0.03318 0.897558,0.433121 1.362969,0.765535 0.465411,0.332414 0.930826,0.598365 0.691563,0.982834 -0.239263,0.384469 -1.288815,0.94423 -2.45295,1.609433 -1.164134,0.665203 -2.492063,1.46196 -3.622564,2.126971 -1.1305,0.66501 -2.060341,1.196347 -2.791923,1.628626 -0.731583,0.432279 -1.262715,0.764236 -1.762219,0.79764 -0.499504,0.0334 -0.963814,-0.231917 -1.396243,-0.59783 -0.43243,-0.365913 -0.831009,-0.830922 0.166762,-1.728638 z"
       style="fill:none;fill-rule:evenodd;stroke:#000000;stroke-width:1px;stroke-linecap:butt;stroke-linejoin:miter;stroke-opacity:1" />
  </g>
</svg>
