<?xml version="1.0" encoding="UTF-8" standalone="no"?>
<!-- Created with Inkscape (http://www.inkscape.org/) -->

<svg
   xmlns:dc="http://purl.org/dc/elements/1.1/"
   xmlns:cc="http://creativecommons.org/ns#"
   xmlns:rdf="http://www.w3.org/1999/02/22-rdf-syntax-ns#"
   xmlns:svg="http://www.w3.org/2000/svg"
   xmlns="http://www.w3.org/2000/svg"
   xmlns:sodipodi="http://sodipodi.sourceforge.net/DTD/sodipodi-0.dtd"
   xmlns:inkscape="http://www.inkscape.org/namespaces/inkscape"
   version="1.1"
   id="svg10264"
   width="210"
   height="210"
   viewBox="0 0 210 210"
   sodipodi:docname="book store2.svg"
   inkscape:version="0.92.2 (5c3e80d, 2017-08-06)"
   inkscape:export-filename="C:\Users\Nilaja\Desktop\Icons\Places\book store2.png"
   inkscape:export-xdpi="96"
   inkscape:export-ydpi="96">
  <metadata
     id="metadata10270">
    <rdf:RDF>
      <cc:Work
         rdf:about="">
        <dc:format>image/svg+xml</dc:format>
        <dc:type
           rdf:resource="http://purl.org/dc/dcmitype/StillImage" />
        <dc:title></dc:title>
      </cc:Work>
    </rdf:RDF>
  </metadata>
  <defs
     id="defs10268">
    <inkscape:path-effect
       effect="bspline"
       id="path-effect10827"
       is_visible="true"
       weight="33.333333"
       steps="2"
       helper_size="0"
       apply_no_weight="true"
       apply_with_weight="true"
       only_selected="false" />
    <inkscape:path-effect
       effect="bspline"
       id="path-effect10823"
       is_visible="true"
       weight="33.333333"
       steps="2"
       helper_size="0"
       apply_no_weight="true"
       apply_with_weight="true"
       only_selected="false" />
    <inkscape:path-effect
       effect="bspline"
       id="path-effect10819"
       is_visible="true"
       weight="33.333333"
       steps="2"
       helper_size="0"
       apply_no_weight="true"
       apply_with_weight="true"
       only_selected="false" />
  </defs>
  <sodipodi:namedview
     pagecolor="#ffffff"
     bordercolor="#666666"
     borderopacity="1"
     objecttolerance="10"
     gridtolerance="10"
     guidetolerance="10"
     inkscape:pageopacity="0"
     inkscape:pageshadow="2"
     inkscape:window-width="1323"
     inkscape:window-height="699"
     id="namedview10266"
     showgrid="false"
     inkscape:zoom="1.5893067"
     inkscape:cx="76.249677"
     inkscape:cy="124.65787"
     inkscape:window-x="0"
     inkscape:window-y="30"
     inkscape:window-maximized="0"
     inkscape:current-layer="svg10264" />
  <path
     style="fill:none;fill-rule:evenodd;stroke:#000000;stroke-width:1px;stroke-linecap:butt;stroke-linejoin:miter;stroke-opacity:1"
     d="m 52.8007,150.11994 c -0.366939,-11.43086 -0.471806,-33.03357 -0.472247,-49.9694 -4.4e-4,-16.935836 0.105321,-29.415629 0.10711,-37.07088 0.0018,-7.655251 -0.106698,-10.801391 0.591238,-13.447018 0.697936,-2.645626 2.13429,-4.800157 3.602247,-6.37272 1.467957,-1.572562 2.936872,-2.516865 4.718682,-2.935979 1.781811,-0.419114 3.880822,-0.314164 7.235608,-0.471443 3.354786,-0.15728 7.971042,-0.576939 11.431335,-0.734182 3.460294,-0.157243 5.76792,-0.05235 10.590328,0.05248 4.822408,0.104831 12.166169,0.209742 16.622969,0.209706 4.4568,-3.5e-5 6.03002,-0.104916 6.816,-0.105417 0.78598,-5e-4 0.78598,0.104439 0.83956,4.49744 0.0536,4.393 0.15614,12.700418 0.3658,17.314885 0.20965,4.614466 0.52422,5.348452 1.19246,5.56248 0.66824,0.214028 1.74511,-0.109034 3.63107,-1.680768 1.88596,-1.571734 4.61561,-4.406374 5.9784,-5.717247 1.36279,-1.310874 1.36279,-1.101063 2.67991,0.216051 1.31711,1.317114 3.9263,3.717567 5.82735,5.267824 1.90106,1.550256 3.23773,2.329984 4.18191,2.591887 0.94417,0.261904 1.57353,0.05212 1.83517,-0.995029 0.26164,-1.047146 0.15657,-2.938361 0.15552,-6.397795 -0.001,-3.459435 0.10599,-8.705278 0.10835,-12.375497 0.002,-3.670219 -0.10729,-6.082394 -0.0123,-7.309138 0.0949,-1.226743 0.22091,-1.289726 1.31616,-1.237544 1.09525,0.05218 3.09913,0.263115 4.9861,0.839728 1.88696,0.576613 3.6705,1.52084 5.22379,2.858466 1.55328,1.337627 2.95553,3.171333 3.83726,5.11299 0.88174,1.941658 1.32045,4.244896 1.47782,9.437174 0.15736,5.192277 0.0525,13.369043 0.053,23.279752 4.7e-4,9.910709 0.10437,21.339843 0.20877,32.875763 0.1044,11.53593 0.2102,23.2801 0.21022,30.88313 1e-5,7.60302 -0.10484,11.16821 -0.47177,13.8425 -0.36693,2.6743 -0.99595,4.45654 -1.93992,6.03009 -0.94396,1.57355 -2.20152,2.93591 -3.77513,3.98515 -1.57361,1.04924 -3.45979,1.78276 -6.03019,2.15003 -2.57039,0.36727 -5.81921,0.36727 -10.95879,0.41971 -5.13959,0.0524 -12.16355,0.15728 -19.19018,0.20972 -7.02664,0.0524 -14.05175,0.0524 -20.973495,0.0524 -6.921744,0 -13.737163,0 -18.771043,0 -5.03388,0 -8.284297,0 -10.749168,-0.3146 -2.464871,-0.31459 -4.142234,-0.94361 -5.820664,-2.09753 -1.678429,-1.15392 -3.355761,-2.83125 -4.509404,-4.2996 -1.153642,-1.46834 -1.782848,-2.72675 -2.149786,-14.15761 z"
     id="path10817"
     inkscape:connector-curvature="0"
     inkscape:path-effect="#path-effect10819"
     inkscape:original-d="M 52.538633,160.29279 C 52.434766,138.68908 52.329898,117.08637 52.224031,95.484656 52.329893,83.21472 52.434766,70.734919 52.538633,58.36155 c -0.103859,-2.937052 -0.208735,-6.083317 -0.314602,-9.123475 1.573514,-2.20252 2.93729,-4.405437 4.404436,-6.606655 1.468376,-0.944313 2.937291,-1.888615 4.404436,-2.831423 2.09669,0.103784 4.195701,0.208735 6.292052,0.314602 4.613087,-0.42028 9.229343,-0.83994 13.842514,-1.25841 2.307545,0.103843 4.615171,0.208735 6.921257,0.314603 7.338697,0.103824 14.682454,0.208735 22.022184,0.314602 1.5738,-0.105853 3.14702,-0.210735 4.71904,-0.314602 0.001,0.103796 0.001,0.208735 0,0.314602 0.10686,8.680138 0.21073,16.98754 0.3146,25.48281 0.31564,0.733158 0.6302,1.467146 0.94381,2.202219 1.05036,-0.210873 2.09835,-0.630206 3.14602,-0.943808 2.72446,-2.829203 5.45411,-5.663847 8.17967,-8.49427 10e-4,0.208659 10e-4,0.41847 0,0.629205 2.63519,2.422453 5.24438,4.822906 7.86507,7.23586 1.15452,0.73306 2.51782,1.467145 3.77523,2.202218 0.63005,-0.210684 1.25941,-0.42047 1.88761,-0.629205 -0.10367,-1.885016 -0.20873,-3.776232 -0.3146,-5.662847 0.10581,-5.032131 0.21073,-10.278018 0.3146,-15.415527 -0.10384,-2.202781 -0.20873,-4.615172 -0.3146,-6.921257 0.31547,-0.105825 0.42047,-0.210735 0.6292,-0.314603 1.98209,0.207535 3.98597,0.41847 5.97745,0.629205 1.78296,0.942389 3.5665,1.886616 5.34825,2.831424 1.25915,1.78138 2.72755,3.564496 4.08983,5.348244 0.42051,2.096525 0.83994,4.403436 1.25841,6.606654 -0.1039,8.181569 -0.20873,16.358335 -0.3146,24.539002 0.10588,11.640737 0.21073,23.069862 0.3146,34.606282 0.10588,11.53542 0.21074,23.2796 0.3146,34.92089 -0.10387,3.5648 -0.20873,7.12999 -0.3146,10.69649 -0.62838,1.78226 -1.25741,3.5645 -1.88761,5.34824 -1.25826,1.3632 -2.51582,2.72556 -3.77523,4.08984 -1.88806,0.73363 -3.77424,1.46714 -5.66285,2.20222 -3.25197,-0.001 -6.50079,-0.001 -9.75268,0 -7.02729,0.1039 -14.05125,0.20873 -21.07838,0.3146 -7.02613,-0.001 -14.05124,-0.001 -21.078369,0 -6.81636,-0.001 -13.631779,-0.001 -20.449169,0 -3.25037,-0.001 -6.500787,-0.001 -9.75268,0 -1.677397,-0.6304 -3.354761,-1.25941 -5.033642,-1.88762 -1.677428,-1.67943 -3.354761,-3.35676 -5.033641,-5.03364 -0.628206,-1.25941 -1.257411,-2.51782 -1.887616,-3.77523 z" />
  <path
     style="fill:none;fill-rule:evenodd;stroke:#000000;stroke-width:1px;stroke-linecap:butt;stroke-linejoin:miter;stroke-opacity:1"
     d="m 78.651258,99.364132 c 0.839451,-1.257946 2.307595,-1.467682 7.910204,-1.624826 5.602609,-0.157144 15.370788,-0.262178 24.230998,-0.367032 8.8602,-0.104854 16.83234,-0.209751 20.974,0.366595 4.14165,0.576346 4.45629,1.834915 4.61368,5.192061 0.15739,3.35714 0.15739,8.80719 0.15739,13.63148 0,4.82429 0,9.01823 -1.15334,11.06366 -1.15335,2.04542 -3.45932,1.94061 -10.12001,1.88814 -6.66069,-0.0525 -17.66909,-0.0525 -26.00633,0.15724 -8.337239,0.20972 -13.998515,0.62907 -17.198155,-0.21026 -3.19964,-0.83934 -3.933584,-2.93632 -4.30052,-7.18278 -0.366937,-4.24646 -0.366937,-10.64516 -0.262037,-14.99702 0.1049,-4.35186 0.314669,-6.65931 1.15412,-7.917258 z"
     id="path10821"
     inkscape:connector-curvature="0"
     inkscape:path-effect="#path-effect10823"
     inkscape:original-d="m 78.021443,98.316082 c 1.469145,-0.21074 2.93729,-0.42047 4.404437,-0.629208 9.73818,-0.105701 19.50636,-0.210735 29.25804,-0.314602 7.97011,-10e-4 15.94087,-0.210735 23.9098,-0.314603 0.31556,1.257253 0.6302,2.515823 0.94381,3.775231 0.001,5.45517 0.001,10.90522 0,16.35933 0.001,4.19447 0.001,8.38841 0,12.58411 -2.30664,-0.10589 -4.61261,-0.21071 -6.92126,-0.3146 -11.01278,-0.001 -22.02118,-0.001 -33.033274,-1e-5 -5.662453,0.41852 -11.323729,0.83787 -16.98854,1.25841 -0.733198,-2.09871 -1.467143,-4.19569 -2.202218,-6.29205 10e-4,-6.39614 10e-4,-12.79484 0,-19.19076 0.210702,-2.30772 0.42047,-4.61517 0.629205,-6.921248 z"
     sodipodi:nodetypes="ccccccccccccc" />
  <path
     style="fill:none;fill-rule:evenodd;stroke:#000000;stroke-width:1px;stroke-linecap:butt;stroke-linejoin:miter;stroke-opacity:1"
     d="m 114.20074,39.170792 c 0.73507,0 1.46915,0 5.97282,-0.05237 4.50366,-0.05237 12.79948,-0.157379 21.083,-0.262234"
     id="path10825"
     inkscape:connector-curvature="0"
     inkscape:path-effect="#path-effect10827"
     inkscape:original-d="m 114.20074,39.170792 c 0.73507,-10e-4 1.46915,-10e-4 2.20222,0 8.27425,-0.105725 16.57007,-0.210735 24.8536,-0.314603" />
</svg>
