<?xml version="1.0" encoding="UTF-8" standalone="no"?>
<!-- Created with Inkscape (http://www.inkscape.org/) -->

<svg
   xmlns:dc="http://purl.org/dc/elements/1.1/"
   xmlns:cc="http://creativecommons.org/ns#"
   xmlns:rdf="http://www.w3.org/1999/02/22-rdf-syntax-ns#"
   xmlns:svg="http://www.w3.org/2000/svg"
   xmlns="http://www.w3.org/2000/svg"
   xmlns:sodipodi="http://sodipodi.sourceforge.net/DTD/sodipodi-0.dtd"
   xmlns:inkscape="http://www.inkscape.org/namespaces/inkscape"
   version="1.1"
   id="svg10829"
   width="826.66669"
   height="682.66669"
   viewBox="0 0 826.66669 682.66669"
   sodipodi:docname="den2.svg"
   inkscape:version="0.92.2 (5c3e80d, 2017-08-06)"
   inkscape:export-filename="C:\Users\Nilaja\Desktop\Icons\Places\den2.png"
   inkscape:export-xdpi="96"
   inkscape:export-ydpi="96">
  <metadata
     id="metadata10835">
    <rdf:RDF>
      <cc:Work
         rdf:about="">
        <dc:format>image/svg+xml</dc:format>
        <dc:type
           rdf:resource="http://purl.org/dc/dcmitype/StillImage" />
        <dc:title></dc:title>
      </cc:Work>
    </rdf:RDF>
  </metadata>
  <defs
     id="defs10833">
    <inkscape:path-effect
       effect="bspline"
       id="path-effect11421"
       is_visible="true"
       weight="33.333333"
       steps="2"
       helper_size="0"
       apply_no_weight="true"
       apply_with_weight="true"
       only_selected="false" />
    <inkscape:path-effect
       effect="bspline"
       id="path-effect11392"
       is_visible="true"
       weight="33.333333"
       steps="2"
       helper_size="0"
       apply_no_weight="true"
       apply_with_weight="true"
       only_selected="false" />
    <inkscape:path-effect
       effect="bspline"
       id="path-effect11388"
       is_visible="true"
       weight="33.333333"
       steps="2"
       helper_size="0"
       apply_no_weight="true"
       apply_with_weight="true"
       only_selected="false" />
    <inkscape:path-effect
       effect="bspline"
       id="path-effect11384"
       is_visible="true"
       weight="33.333333"
       steps="2"
       helper_size="0"
       apply_no_weight="true"
       apply_with_weight="true"
       only_selected="false" />
  </defs>
  <sodipodi:namedview
     pagecolor="#ffffff"
     bordercolor="#666666"
     borderopacity="1"
     objecttolerance="10"
     gridtolerance="10"
     guidetolerance="10"
     inkscape:pageopacity="0"
     inkscape:pageshadow="2"
     inkscape:window-width="1354"
     inkscape:window-height="734"
     id="namedview10831"
     showgrid="false"
     inkscape:zoom="0.68709676"
     inkscape:cx="301.73604"
     inkscape:cy="333.24631"
     inkscape:window-x="0"
     inkscape:window-y="30"
     inkscape:window-maximized="0"
     inkscape:current-layer="svg10829" />
  <g
     id="g11427">
    <path
       inkscape:original-d="m 218.17399,142.37734 c 6.17573,-0.001 12.35047,-0.001 18.5242,0 67.22612,-0.001 135.1591,-0.001 202.73715,0 52.48547,0.34203 104.9715,0.68508 157.45575,1.02912 6.17562,0.68507 12.35047,1.37116 18.52421,2.05824 3.77391,2.74294 7.5479,5.48766 11.32035,8.23299 1.71612,5.48739 3.4314,10.9763 5.14561,16.46596 10e-4,17.83916 10e-4,35.67525 0,53.51437 10e-4,25.38545 10e-4,50.76905 0,76.15507 10e-4,27.44335 10e-4,54.88554 0,82.32981 10e-4,16.80861 10e-4,33.617 0,50.427 -0.68512,6.86023 -1.37116,13.72064 -2.05825,20.58245 -2.40066,3.08686 -4.80157,6.17374 -7.20385,9.26211 -5.48963,0.68532 -10.97631,1.37116 -16.46597,2.05824 -29.16335,-0.001 -58.31594,-0.001 -87.47541,0 -13.72111,-0.001 -27.44227,-0.001 -41.16491,0 -4.45885,-0.34406 -8.91806,-0.68708 -13.37859,-1.02912 -0.34211,0.34211 -0.68508,0.68508 -1.02912,1.02912 -2.40729,5.50366 -4.80157,10.29023 -7.20386,15.43684 0.34412,7.89079 0.68708,16.46496 1.02912,24.69894 0.68716,5.83137 1.37317,10.97631 2.05825,16.46596 1.71647,1.37138 3.43141,2.74333 5.14561,4.11649 3.43116,0.34202 6.86182,0.68509 10.29123,1.02913 1.02985,-10e-4 2.05924,-10e-4 3.08736,0 -0.3417,3.08336 -0.68508,6.17373 -1.02912,9.2621 0.001,1.37165 0.001,2.05724 0,3.08737 0.34437,-10e-4 0.68708,-10e-4 1.02912,0 -5.81369,-10e-4 -11.66239,-10e-4 -17.49508,0 -13.72299,-10e-4 -27.44227,-10e-4 -41.1649,0 -14.40777,-10e-4 -28.81444,-10e-4 -43.22315,0 -7.20336,-10e-4 -15.0928,-10e-4 -22.6407,0 -2.4006,-10e-4 -4.80157,-10e-4 -7.20386,0 10e-4,-2.06011 10e-4,-4.11749 0,-6.17474 10e-4,-2.05824 10e-4,-4.11749 0,-6.17473 1.02963,-10e-4 2.05925,-0.68709 3.08737,-1.02913 4.79797,-10e-4 9.60615,-10e-4 14.40772,0 1.37288,-1.71584 2.74532,-3.43141 4.11649,-5.14561 1.37228,-4.45768 2.74532,-9.60614 4.11649,-14.40772 10e-4,-9.94672 10e-4,-19.89737 0,-29.84455 -1.02802,-3.43106 -2.05725,-6.86182 -3.08737,-10.29123 -1.02793,-0.34397 -2.05724,-0.68708 -3.08737,-1.02912 -11.32595,-0.34424 -22.63969,-0.68708 -33.96104,-1.02912 -20.92629,0.34207 -41.84999,0.68508 -62.77648,1.02912 -14.75047,-0.001 -29.50051,-0.001 -44.25227,0 -3.7727,-0.68713 -7.5459,-1.37316 -11.32035,-2.05824 -4.11635,-2.74591 -8.23198,-5.48966 -12.34947,-8.23298 -1.02818,-3.08854 -2.05724,-6.86182 -3.08737,-10.29123 0.001,-5.48863 0.001,-10.97831 0,-16.46596 -0.34197,-25.03842 -0.68508,-50.08497 -1.02912,-75.12595 0.34403,-30.1874 0.68708,-61.06227 1.02912,-91.59191 0.001,-21.61186 0.001,-43.22415 0,-64.83472 0.001,-8.91965 0.001,-18.52521 0,-27.78631 1.37302,-5.14606 2.74533,-10.29222 4.11649,-15.43684 2.7447,-2.40173 5.48966,-4.80357 8.23298,-7.20386 2.74427,-1.02972 5.48966,-2.05924 8.23299,-3.08736 z"
       inkscape:path-effect="#path-effect11384"
       inkscape:connector-curvature="0"
       id="path11382"
       d="m 219.89029,142.89167 c 4.45943,-0.51433 10.63417,-0.51433 47.33409,-0.51433 36.69993,0 104.63291,0 164.66467,0.17152 60.03175,0.17152 112.51778,0.51457 141.84766,1.02917 29.32988,0.51459 35.50473,1.20069 40.4782,2.91571 4.97348,1.71503 8.74747,4.45975 11.49157,8.57573 2.7441,4.11598 4.45938,9.60489 5.31708,21.26912 0.8577,11.66422 0.8577,29.50031 0.8577,51.11259 0,21.61229 0,46.99589 0,73.41058 0,26.41468 0,53.85687 0,75.98331 0,22.12644 0,38.93483 -0.34301,50.7699 -0.34301,11.83507 -1.02905,18.69548 -2.57254,23.66981 -1.5435,4.97432 -3.94441,8.0612 -7.89024,9.94854 -3.94583,1.88733 -9.43251,2.57316 -26.75907,2.91627 -17.32656,0.34311 -46.47915,0.34311 -67.91944,0.34311 -21.44029,0 -35.16145,0 -44.25224,-0.1715 -9.09078,-0.17149 -13.54999,-0.51451 -15.95127,-0.51501 -2.40128,-5e-4 -2.74425,0.34247 -4.18605,3.23546 -1.44181,2.89298 -3.70425,7.74107 -4.74077,14.2602 -1.03652,6.51912 -0.67929,15.09269 -0.14361,22.12278 0.53568,7.03008 1.17946,12.1803 2.38035,15.61129 1.20089,3.431 2.91583,4.80295 5.4889,5.66053 2.57306,0.85759 6.00372,1.20066 8.23341,1.37213 2.22968,0.17148 3.25907,0.17148 3.60184,1.71311 0.34277,1.54163 -6.1e-4,4.632 -0.17219,6.86206 -0.17158,2.23006 -0.17158,2.91565 6e-4,3.43072 0.17219,0.51506 0.5149,0.51506 -2.22093,0.51506 -2.73582,0 -8.58452,0 -18.36236,0 -9.77784,0 -23.49712,0 -37.56232,0 -14.0652,0 -28.47187,0 -39.27791,0 -10.80603,0 -18.69547,0 -23.66972,0 -4.97425,0 -7.37522,0 -8.57637,-1.03005 -1.20114,-1.03006 -1.20114,-3.08744 -1.20114,-5.14518 0,-2.05775 0,-4.117 0.46348,-5.30012 0.46349,-1.18311 1.59597,-1.56061 4.50892,-1.73193 2.91294,-0.17132 7.72112,-0.17132 10.80828,-1.02929 3.08716,-0.85797 4.45961,-2.57353 5.78579,-5.67246 1.32618,-3.09892 2.78977,-8.22151 3.47569,-15.59556 0.68591,-7.37406 0.68591,-17.32471 0.1713,-24.01365 -0.5146,-6.68894 -1.54383,-10.1197 -2.57246,-12.00597 -1.02863,-1.88628 -2.05794,-2.22938 -8.2358,-2.5726 -6.17785,-0.34323 -17.49159,-0.68607 -33.61539,-0.68608 -16.12379,-1e-5 -37.04749,0.343 -54.88598,0.51453 -17.83849,0.17153 -32.58853,0.17153 -41.85086,-0.17146 -9.26234,-0.34299 -13.03554,-1.02903 -16.98122,-2.74451 -3.94568,-1.71549 -8.06131,-4.45924 -10.58715,-7.38973 -2.52583,-2.9305 -3.64932,-6.67545 -4.16378,-11.13465 -0.51447,-4.4592 -0.51447,-9.94888 -0.68597,-25.21191 -0.17149,-15.26303 -0.51459,-40.30958 -0.51651,-67.9238 -0.002,-27.61422 0.34498,-58.48905 0.5165,-84.5598 0.17151,-26.07074 0.17151,-47.68303 0.17151,-62.94814 0,-15.26511 0,-24.87067 0.68617,-32.07434 0.68616,-7.20367 2.05847,-12.34983 4.11677,-16.12288 2.05831,-3.77305 4.80327,-6.17489 7.54714,-7.88966 2.74386,-1.71476 5.48926,-2.74428 9.94868,-3.25862 z"
       style="fill:none;fill-rule:evenodd;stroke:#000000;stroke-width:1px;stroke-linecap:butt;stroke-linejoin:miter;stroke-opacity:1" />
    <path
       sodipodi:nodetypes="cc"
       inkscape:original-d="m 355.56185,464.4927 c 38.07854,-0.17252 76.15607,-0.34404 114.2326,-0.51456"
       inkscape:path-effect="#path-effect11388"
       inkscape:connector-curvature="0"
       id="path11386"
       d="m 355.56185,464.4927 c 38.07854,-0.17152 76.15607,-0.34304 114.2326,-0.51456"
       style="fill:none;fill-rule:evenodd;stroke:#000000;stroke-width:1px;stroke-linecap:butt;stroke-linejoin:miter;stroke-opacity:1" />
    <path
       inkscape:original-d="m 217.14486,367.75518 c 0.001,-4.11749 0.001,-8.23398 0,-12.34947 0.001,-29.83831 0.001,-59.69011 0,-89.53366 0.001,-22.98397 0.001,-45.96848 0,-68.95122 0.34403,-7.89059 0.68708,-15.78088 1.02913,-23.66982 1.02998,-2.05897 2.05924,-4.11749 3.08736,-6.17473 4.80078,-1.37236 9.60615,-2.74533 14.40772,-4.11649 28.8093,0.34195 57.63186,0.68508 86.44629,1.02912 46.65296,0.34203 93.30812,0.68508 139.96067,1.02912 35.33346,-0.001 70.66742,-0.001 105.99963,0 8.57678,-0.34403 17.15304,-0.68708 25.72806,-1.02912 4.45999,1.714 8.92007,3.42941 13.3786,5.14561 2.05899,4.458 3.43141,8.91807 5.14561,13.3786 10e-4,7.20372 10e-4,14.40671 0,21.61157 -0.34209,21.95666 -0.68508,43.90823 -1.02912,65.86385 10e-4,25.38519 10e-4,50.76904 0,76.15507 10e-4,12.34895 10e-4,25.38402 0,38.07753 -1.71434,3.08661 -4.11549,6.17374 -6.17474,9.2621 -7.20555,0.68534 -14.40671,1.37117 -21.61157,2.05825 -31.22042,-0.34409 -62.43244,-0.68708 -93.65016,-1.02912 -41.85131,-10e-4 -84.38705,-10e-4 -126.58207,0 -33.96085,-10e-4 -67.92109,-10e-4 -101.88314,0 -10.63358,-0.34405 -21.26753,-10e-4 -31.9028,0 -3.7728,-3.08866 -7.5459,-6.17574 -11.32034,-9.26211 -0.34206,-2.40235 -0.68509,-4.80357 -1.02913,-7.20385 0.001,-3.43021 0.001,-6.86182 0,-10.29123 z"
       inkscape:path-effect="#path-effect11392"
       inkscape:connector-curvature="0"
       id="path11390"
       d="m 217.14486,367.41114 c 0,-3.77345 0,-7.88994 0,-24.86684 0,-16.9769 0,-46.8287 0,-73.24246 0,-26.41376 0,-49.39827 0.17154,-64.83496 0.17153,-15.43668 0.51459,-23.32697 1.20088,-28.301 0.68629,-4.97404 1.71555,-7.03256 4.63029,-8.74693 2.91475,-1.71437 7.72012,-3.08734 24.52545,-3.60177 16.80534,-0.51442 45.6279,-0.1713 83.3616,0.17173 37.73369,0.34304 84.38885,0.68609 125.38186,0.8576 40.99301,0.17152 76.32697,0.17152 98.28148,-2e-5 21.95452,-0.17153 30.53078,-0.51458 37.04803,0.17152 6.51726,0.6861 10.97734,2.40151 14.08633,5.5457 3.10899,3.14419 4.7802,7.48934 5.63791,13.32124 0.8577,5.83189 0.8577,13.03488 0.68616,27.61563 -0.17153,14.58075 -0.51452,36.53232 -0.68605,60.20274 -0.17153,23.67041 -0.17153,49.05426 -0.17153,67.92175 0,18.86749 0,31.90256 -0.97604,39.71337 -0.97604,7.81082 -3.13969,11.05628 -7.77193,12.94366 -4.63223,1.88738 -11.83339,2.5732 -31.04608,2.74476 -19.21269,0.17155 -50.42471,-0.17144 -86.95922,-0.34296 -36.53451,-0.17153 -79.07025,-0.17153 -117.14819,-0.17153 -38.07793,0 -72.03817,0 -94.33599,0 -22.29781,0 -32.93176,0 -40.13624,-1.54379 -7.20448,-1.54378 -10.97758,-4.63086 -13.03594,-7.37569 -2.05836,-2.74482 -2.4014,-5.14604 -2.57286,-8.06137 -0.17146,-2.91532 -0.17146,-6.34693 -0.17146,-10.12038 z"
       style="fill:none;fill-rule:evenodd;stroke:#000000;stroke-width:1px;stroke-linecap:butt;stroke-linejoin:miter;stroke-opacity:1" />
    <path
       inkscape:original-d="m 413.19271,428.98797 c 2.40229,1.02813 4.80357,2.05725 7.20386,3.08737 1.02992,2.74278 2.05925,5.48765 3.08737,8.23298 -1.37144,2.40077 -2.74333,4.80157 -4.11649,7.20386 -1.88666,0.51381 -4.11549,1.02812 -6.17474,1.54368 -1.8868,-0.68747 -3.77245,-1.7162 -5.66017,-2.5728 -1.37149,-1.88818 -2.74333,-3.77445 -4.11649,-5.66018 0.68702,-2.74506 1.37316,-5.48965 2.05824,-8.23298 1.20113,-0.68679 2.40229,-1.37316 3.60193,-2.05824 1.37181,-0.51506 2.74533,-1.03013 4.11649,-1.54369 z"
       inkscape:path-effect="#path-effect11421"
       inkscape:connector-curvature="0"
       id="path11419"
       d="m 413.70812,429.75969 c 1.88636,0.25761 4.28764,1.28673 6.0024,3.17281 1.71476,1.88607 2.74409,4.63094 2.57287,7.20367 -0.17121,2.57274 -1.5431,4.97354 -3.17781,6.41185 -1.63471,1.4383 -3.85344,1.99299 -5.79451,1.83616 -1.94106,-0.15682 -3.89136,-1.04332 -5.52125,-2.4159 -1.6299,-1.37258 -3.00174,-3.25885 -3.3446,-5.57474 -0.34286,-2.3159 0.34328,-5.06049 1.28683,-6.7753 0.94356,-1.7148 2.14471,-2.40118 3.43045,-3.00113 1.28574,-0.59996 2.65926,-1.11503 4.54562,-0.85742 z"
       style="fill:none;fill-rule:evenodd;stroke:#000000;stroke-width:1px;stroke-linecap:butt;stroke-linejoin:miter;stroke-opacity:1" />
  </g>
</svg>
