<?xml version="1.0" encoding="UTF-8" standalone="no"?>
<svg
   xmlns:dc="http://purl.org/dc/elements/1.1/"
   xmlns:cc="http://creativecommons.org/ns#"
   xmlns:rdf="http://www.w3.org/1999/02/22-rdf-syntax-ns#"
   xmlns:svg="http://www.w3.org/2000/svg"
   xmlns="http://www.w3.org/2000/svg"
   viewBox="0 0 512 512"
   height="512"
   width="512"
   id="svg827"
   version="1.1">
  <metadata
     id="metadata833">
    <rdf:RDF>
      <cc:Work
         rdf:about="">
        <dc:format>image/svg+xml</dc:format>
        <dc:type
           rdf:resource="http://purl.org/dc/dcmitype/StillImage" />
        <dc:title></dc:title>
      </cc:Work>
    </rdf:RDF>
  </metadata>
  <defs
     id="defs831" />
  <g
     id="g1406">
    <path
       style="fill:none;fill-rule:evenodd;stroke:#000000;stroke-width:1px;stroke-linecap:butt;stroke-linejoin:miter;stroke-opacity:1"
       d="m 145.4812,137.81635 c 10.48258,-1.66144 23.01075,0.63965 32.34237,4.98588 9.33161,4.34623 15.46825,10.73855 23.6502,15.98005 8.18195,5.24151 18.40899,9.33232 30.68134,11.76116 12.27235,2.42883 26.59098,3.1959 38.09629,2.04522 11.50531,-1.15068 20.1989,-4.21901 28.63565,-8.69315 8.43674,-4.47414 16.61953,-10.35552 24.16154,-15.59656 7.542,-5.24103 14.44624,-9.84386 21.34887,-12.14457 6.90262,-2.30071 13.80706,-2.30071 21.98772,0.25579 8.18065,2.55649 17.64208,7.67078 27.10168,18.40865 9.4596,10.73787 18.92001,27.10182 26.42596,44.11585 7.50595,17.01403 13.20387,35.14378 16.27209,52.78562 3.06821,17.64185 3.57955,35.02728 2.04555,51.0074 -1.53401,15.98012 -5.11328,30.55289 -10.09879,39.502 -4.9855,8.94911 -11.37691,12.27264 -18.28097,14.06269 -6.90406,1.79006 -14.31731,2.04569 -21.34925,0.25579 -7.03193,-1.7899 -13.67861,-5.62452 -21.86063,-11.76102 -8.18202,-6.13651 -17.89728,-14.57345 -25.56761,-21.22107 -7.67033,-6.64762 -13.29518,-11.50545 -22.5083,-15.69145 -9.21312,-4.186 -22.49024,-7.8307 -35.14641,-9.74837 -12.65618,-1.91766 -24.92804,-2.17333 -36.94528,-1.78983 -12.01724,0.3835 -23.77745,1.40613 -33.23777,3.5793 -9.46031,2.17318 -16.61861,5.49667 -24.35305,10.79391 -7.73443,5.29724 -15.78799,12.34411 -22.56384,18.86419 -6.77584,6.52009 -12.14436,12.3999 -18.66468,17.00265 -6.52031,4.60274 -14.18926,7.92595 -21.98809,10.09947 -7.79882,2.17353 -15.72356,3.19608 -22.75561,1.15042 -7.032057,-2.04567 -13.167442,-7.15849 -18.153329,-14.44566 -4.985886,-7.28717 -8.820981,-16.74707 -10.738455,-29.14724 -1.917474,-12.40016 -1.917474,-27.74161 -0.894728,-41.03652 1.022746,-13.29491 3.068295,-24.54543 6.903257,-38.73467 3.834963,-14.18923 9.460429,-31.32133 16.107945,-45.76665 6.64752,-14.44532 14.31837,-26.20729 22.37197,-34.89984 8.05361,-8.69254 16.49178,-14.31799 26.97436,-15.97944 z"
       id="path1386" />
    <path
       style="fill:none;fill-rule:evenodd;stroke:#000000;stroke-width:1px;stroke-linecap:butt;stroke-linejoin:miter;stroke-opacity:1"
       d="m 127.71096,241.74906 c 2.93987,-3.06862 1.66148,-10.99462 1.53414,-14.9572 -0.12735,-3.96258 0.89551,-3.96258 5.62145,-4.34577 4.72593,-0.38319 13.17153,-1.15097 16.62276,1.91662 3.45123,3.06759 1.91744,9.96963 1.27791,13.93357 -0.63952,3.96394 -0.38389,4.98645 2.43102,5.37021 2.81492,0.38376 8.18043,0.12826 11.37612,0.12835 3.1957,8e-5 4.2186,0.25581 4.60186,4.3433 0.38327,4.0875 0.12742,12.01896 -0.25565,16.23768 -0.38306,4.21872 -0.89435,4.73 -4.09611,4.73004 -3.20175,4e-5 -9.07082,-0.51031 -12.01157,-1.02225 -2.94074,-0.51193 -2.94074,-1.0232 -2.94074,2.42119 0,3.44439 0,10.87352 0,14.83655 0,3.96303 0,3.96296 -3.97801,3.96298 -3.978,1e-5 -11.87299,-0.25467 -15.96443,-0.76638 -4.09143,-0.51172 -4.34707,-1.27866 -4.34705,-4.47264 2e-5,-3.19398 0.2559,-8.82328 0.2558,-12.01895 -1e-4,-3.19567 -0.25582,-3.96285 -3.32103,-4.21835 -3.0652,-0.2555 -8.95037,3.8e-4 -12.01911,-0.51145 -3.06875,-0.51183 -3.32438,-1.78999 -3.45215,-6.00662 -0.12776,-4.21663 -0.12776,-11.37989 0.12838,-15.21501 0.25615,-3.83512 0.76757,-4.34655 4.59558,-3.70852 3.82801,0.63803 11.00097,2.43128 13.94083,-0.63735 z"
       id="path1390" />
    <path
       style="fill:none;fill-rule:evenodd;stroke:#000000;stroke-width:1px;stroke-linecap:butt;stroke-linejoin:miter;stroke-opacity:1"
       d="m 343.75876,259.26259 c 3.19612,-1.91713 7.28695,-2.68416 11.12109,-1.66168 3.83415,1.02247 7.41463,3.83571 9.20431,8.18155 1.78967,4.34585 1.78967,10.22664 -0.38336,14.31785 -2.17303,4.09121 -6.5188,6.39191 -10.73846,6.39201 -4.21966,9e-5 -8.30937,-2.30037 -11.08544,-5.76419 -2.77606,-3.46383 -4.38341,-8.5538 -3.99953,-12.51685 0.38389,-3.96305 2.68527,-7.03156 5.88139,-8.94869 z"
       id="path1394" />
    <path
       style="fill:none;fill-rule:evenodd;stroke:#000000;stroke-width:1px;stroke-linecap:butt;stroke-linejoin:miter;stroke-opacity:1"
       d="m 372.77772,224.74596 c 2.55732,-3.45148 7.41519,-6.51961 12.01634,-6.39174 4.60116,0.12787 8.94871,3.45246 10.35503,8.30958 1.40631,4.85711 -0.1278,11.24926 -3.32379,14.8293 -3.19598,3.58004 -8.05295,4.34693 -12.0169,2.94034 -3.96395,-1.40659 -7.03136,-4.98523 -8.43752,-8.693 -1.40616,-3.70776 -1.15048,-7.543 1.40684,-10.99448 z"
       id="path1398" />
  </g>
</svg>
