<?xml version="1.0" encoding="UTF-8" standalone="no"?>
<!-- Created with Inkscape (http://www.inkscape.org/) -->

<svg
   xmlns:dc="http://purl.org/dc/elements/1.1/"
   xmlns:cc="http://creativecommons.org/ns#"
   xmlns:rdf="http://www.w3.org/1999/02/22-rdf-syntax-ns#"
   xmlns:svg="http://www.w3.org/2000/svg"
   xmlns="http://www.w3.org/2000/svg"
   xmlns:sodipodi="http://sodipodi.sourceforge.net/DTD/sodipodi-0.dtd"
   xmlns:inkscape="http://www.inkscape.org/namespaces/inkscape"
   version="1.1"
   id="svg1965"
   width="256"
   height="256"
   viewBox="0 0 256 256"
   sodipodi:docname="help desk2.svg"
   inkscape:version="0.92.2 (5c3e80d, 2017-08-06)"
   inkscape:export-filename="C:\Users\Nilaja\Desktop\Icons\Places\help desk2.png"
   inkscape:export-xdpi="96"
   inkscape:export-ydpi="96">
  <metadata
     id="metadata1971">
    <rdf:RDF>
      <cc:Work
         rdf:about="">
        <dc:format>image/svg+xml</dc:format>
        <dc:type
           rdf:resource="http://purl.org/dc/dcmitype/StillImage" />
        <dc:title></dc:title>
      </cc:Work>
    </rdf:RDF>
  </metadata>
  <defs
     id="defs1969">
    <inkscape:path-effect
       effect="bspline"
       id="path-effect3104"
       is_visible="true"
       weight="33.333333"
       steps="2"
       helper_size="0"
       apply_no_weight="true"
       apply_with_weight="true"
       only_selected="false" />
    <inkscape:path-effect
       effect="bspline"
       id="path-effect3100"
       is_visible="true"
       weight="33.333333"
       steps="2"
       helper_size="0"
       apply_no_weight="true"
       apply_with_weight="true"
       only_selected="false" />
    <inkscape:path-effect
       effect="bspline"
       id="path-effect3096"
       is_visible="true"
       weight="33.333333"
       steps="2"
       helper_size="0"
       apply_no_weight="true"
       apply_with_weight="true"
       only_selected="false" />
    <inkscape:path-effect
       effect="bspline"
       id="path-effect3092"
       is_visible="true"
       weight="33.333333"
       steps="2"
       helper_size="0"
       apply_no_weight="true"
       apply_with_weight="true"
       only_selected="false" />
    <inkscape:path-effect
       effect="bspline"
       id="path-effect2520"
       is_visible="true"
       weight="33.333333"
       steps="2"
       helper_size="0"
       apply_no_weight="true"
       apply_with_weight="true"
       only_selected="false" />
  </defs>
  <sodipodi:namedview
     pagecolor="#ffffff"
     bordercolor="#666666"
     borderopacity="1"
     objecttolerance="10"
     gridtolerance="10"
     guidetolerance="10"
     inkscape:pageopacity="0"
     inkscape:pageshadow="2"
     inkscape:window-width="1354"
     inkscape:window-height="733"
     id="namedview1967"
     showgrid="false"
     inkscape:zoom="1.84375"
     inkscape:cx="79.024511"
     inkscape:cy="71.926977"
     inkscape:window-x="0"
     inkscape:window-y="30"
     inkscape:window-maximized="0"
     inkscape:current-layer="svg1965" />
  <g
     id="g3118">
    <path
       sodipodi:nodetypes="ccccccccccccccccccccc"
       inkscape:original-d="M 4.3389831,155.66102 C 3.9784011,154.93685 3.6168192,154.21369 3.2542373,153.49153 1.6290186,138.31249 9.9997343e-4,123.11764 -1.6271187,107.9322 3.4360283,94.191087 8.4981748,80.450977 13.559322,66.711865 21.515125,57.490524 29.469927,48.270187 37.423729,39.050847 47.284116,29.728245 57.311734,20.247588 67.254237,10.847458 85.153542,6.6882655 103.05184,2.5300739 120.94915,-1.6271188 c 19.34564,3.0724467 38.69026,6.145892 58.0339,9.220339 13.92191,9.9425048 27.84281,19.8860068 41.76271,29.8305088 8.49817,12.473574 16.99535,24.948152 25.49153,37.423729 2.71286,11.750411 5.42473,23.501824 8.13559,35.254232 0.7242,13.37823 1.44727,26.75507 2.16949,40.1356 -5.24233,14.28255 -10.48442,28.56273 -15.72881,42.84746 -7.59288,8.85852 -15.18544,17.71651 -22.77966,26.57627 -9.03963,7.05069 -18.0781,14.10069 -27.11865,21.15254 -13.55998,5.06176 -27.11645,10.12285 -40.67796,15.18644 -11.20902,-0.36262 -22.41708,-0.72417 -33.62712,-1.08475 -14.78551,-2.52553 -29.64796,-5.06302 -44.474577,-7.59322 C 59.661379,237.73862 47.187624,228.15733 34.711864,218.57627 26.577151,206.6429 18.441678,194.71087 10.305085,182.77967 8.3173842,173.73912 6.328683,164.69957 4.3389831,155.66102 Z"
       inkscape:path-effect="#path-effect2520"
       inkscape:connector-curvature="0"
       id="path2518"
       d="M 5.1523593,159.81864 C 3.9771985,154.93745 3.6156179,154.21429 2.6217712,146.26345 1.6279244,138.31261 -9.4963887e-5,123.11776 1.7176888,108.65432 3.4354725,94.190882 8.4976189,80.450772 15.006333,68.970614 21.515047,57.490456 29.469848,48.270119 38.376995,38.999196 47.284143,29.728274 57.311761,20.247617 71.232736,13.468305 85.153711,6.6889939 103.05201,2.5308031 121.67331,1.988631 c 18.6213,-0.5421721 37.96592,2.5312722 54.59838,9.039752 16.63246,6.508479 30.55336,16.45198 41.76223,27.66084 11.20887,11.20886 19.70604,23.683439 25.31055,35.796177 5.60451,12.112738 8.31638,23.864152 10.03397,36.42936 1.71759,12.56522 2.44066,25.94206 0.18085,39.77347 -2.25981,13.83141 -7.5019,28.11159 -13.92029,39.68328 -6.4184,11.57169 -14.01096,20.42968 -22.32779,28.38501 -8.31683,7.95533 -17.3553,15.00533 -28.65552,21.06234 -11.30021,6.05702 -24.85668,11.1181 -37.24207,13.46883 -12.38538,2.35073 -23.59344,1.98917 -36.5913,0.54617 -12.99785,-1.443 -27.860305,-3.98049 -41.51105,-10.03731 C 59.660525,237.73973 47.186769,228.15844 36.881388,217.40106 26.576006,206.64368 18.44053,194.71165 13.378375,184.22551 8.3162207,173.73938 6.32752,164.69983 5.1523593,159.81864 Z"
       style="fill:none;fill-rule:evenodd;stroke:#000000;stroke-width:1px;stroke-linecap:butt;stroke-linejoin:miter;stroke-opacity:1" />
    <path
       inkscape:original-d="m 32,211.52542 c 10e-4,-10.30608 10e-4,-20.61117 0,-30.91525 1.266414,-6.32807 2.532073,-12.65637 3.79661,-18.98305 4.158434,-6.14677 8.317384,-12.29479 12.474576,-18.44068 6.3275,-4.33917 12.656368,-8.67897 18.983051,-13.01695 7.412087,-0.90479 14.825859,-1.80891 22.237288,-2.71186 27.115605,-10e-4 54.238285,-10e-4 81.355935,0 5.60531,0.54135 11.21004,1.08374 16.81356,1.62712 7.05072,2.89119 14.10269,5.78431 21.15254,8.67796 4.70123,5.7839 9.40213,11.56962 14.10169,17.35593 2.89372,5.78443 5.78632,11.56963 8.67797,17.35594 0.1818,7.95435 0.36258,15.9086 0.54237,23.8644 -0.17981,2.34957 -0.36058,4.69957 -0.54237,7.05085"
       inkscape:path-effect="#path-effect3092"
       inkscape:connector-curvature="0"
       id="path3090"
       d="m 32,211.52542 c 0,-10.30608 0,-20.61117 0.632822,-28.92732 0.632823,-8.31615 1.898483,-14.64445 4.610241,-20.88118 2.711758,-6.23672 6.870711,-12.38474 12.11324,-17.62709 5.242529,-5.24235 11.571399,-9.58214 18.440763,-12.2032 6.869364,-2.62106 14.283136,-3.52518 31.5466,-3.97709 17.263464,-0.45191 44.386144,-0.45191 60.747574,-0.18069 16.36142,0.27122 21.96615,0.81361 28.29308,2.53096 6.32692,1.71734 13.3789,4.61045 19.25414,8.94907 5.87524,4.33862 10.57614,10.12434 14.37272,15.90957 3.79659,5.78522 6.68919,11.57042 8.226,18.44046 1.53682,6.87004 1.7176,14.82429 1.71764,19.97693 4e-5,5.15264 -0.18073,7.50264 -0.3616,9.85399"
       style="fill:none;fill-rule:evenodd;stroke:#000000;stroke-width:1px;stroke-linecap:butt;stroke-linejoin:miter;stroke-opacity:1" />
    <path
       inkscape:original-d="m 70.508475,242.3354 c -0.360582,-8.58602 -0.722164,-17.17101 -1.084746,-25.75496 0.001,-6.53234 0.001,-13.4384 0,-20.15606 0.001,-0.93403 0.001,-1.86733 0,-2.79945 2.709864,-0.001 5.424729,-0.001 8.135593,0 -0.541173,0.37209 -1.083746,0.74549 -1.627119,1.11978 0.725703,0.186 1.80891,0.37223 2.711865,0.5599 -0.179637,16.78138 -0.360582,33.59238 -0.542373,50.39013"
       inkscape:path-effect="#path-effect3096"
       inkscape:connector-curvature="0"
       id="path3094"
       d="m 70.508475,242.3354 c -0.361624,-8.58598 -0.723206,-17.17097 -0.903976,-24.72913 -0.18077,-7.55817 -0.18077,-14.46423 -0.18077,-18.29008 0,-3.82584 0,-4.75914 1.354932,-5.2252 1.354932,-0.46606 4.069797,-0.46606 5.154723,-0.2799 1.084926,0.18616 0.542352,0.55956 0.637018,0.82225 0.09467,0.26268 1.170465,0.48479 1.531752,8.96872 0.361288,8.48392 0.180343,25.29492 -4.59e-4,42.09268"
       style="fill:none;fill-rule:evenodd;stroke:#000000;stroke-width:1.01602066px;stroke-linecap:butt;stroke-linejoin:miter;stroke-opacity:1" />
    <path
       inkscape:original-d="m 186.0339,241.89809 c -0.17979,-14.60443 -0.36058,-29.58226 -0.54237,-44.37183 0.18177,-1.1243 0.36258,-2.24771 0.54237,-3.37002 1.62641,0.18599 2.53207,0.37341 3.79661,0.56167 1.80771,0.18607 3.61682,0.37342 5.42373,0.56168 -0.36041,13.84662 -0.72217,27.70795 -1.08475,41.56347"
       inkscape:path-effect="#path-effect3100"
       inkscape:connector-curvature="0"
       id="path3098"
       d="m 186.0339,241.89809 c -0.17851,-14.60445 -0.36159,-29.58225 -0.3615,-37.53925 1e-4,-7.95701 0.1809,-9.08042 1.08045,-9.52179 0.89955,-0.44137 1.81295,-0.30624 3.3491,-0.11909 1.53615,0.18714 3.34526,0.37449 4.06809,7.39136 0.72282,7.01686 0.36106,20.87819 -5.5e-4,34.73374"
       style="fill:none;fill-rule:evenodd;stroke:#000000;stroke-width:1.01763284px;stroke-linecap:butt;stroke-linejoin:miter;stroke-opacity:1" />
    <path
       inkscape:original-d="M 99.254237,103.05085 C 96.362582,96.722164 93.469927,90.39448 90.576271,84.067797 90.034937,77.92034 89.492525,71.773011 88.949153,65.627119 c 3.435522,-6.689281 6.871056,-13.379532 10.305084,-20.067797 5.062243,-3.79693 10.125293,-7.59422 15.186443,-11.389831 6.50803,-1.266256 13.01795,-2.532073 19.52542,-3.79661 6.68908,2.168108 13.37953,4.337983 20.0678,6.508475 4.52036,4.699135 9.04055,9.40013 13.55932,14.101695 2.53208,6.32671 5.06315,12.654367 7.59322,18.983051 -1.62625,7.592841 -3.25324,15.18544 -4.88136,22.779661 -4.70028,5.966014 -9.40013,11.931207 -14.10169,17.898307 -7.05115,1.80724 -14.1007,3.61482 -21.15254,5.42373 -7.77431,-1.26675 -15.54703,-2.53208 -23.32204,-3.79661 -4.15762,-3.07477 -8.31538,-6.1479 -12.474573,-9.22034 z"
       inkscape:path-effect="#path-effect3104"
       inkscape:connector-curvature="0"
       id="path3102"
       d="M 99.886985,101.42357 C 96.361376,96.722715 93.468721,90.395031 91.751289,84.157733 90.033857,77.920435 89.491446,71.773106 90.937868,65.355373 92.38429,58.93764 95.819824,52.247389 100.06821,47.00497 c 4.24839,-5.242419 9.31144,-9.039707 15.09605,-11.570333 5.7846,-2.530626 12.29452,-3.796444 18.89253,-3.344447 6.598,0.451996 13.28845,2.621872 18.89245,6.056576 5.604,3.434705 10.12419,8.135702 13.64952,13.649589 3.52534,5.513887 6.0564,11.841547 6.50854,18.801987 0.45214,6.960439 -1.17485,14.553039 -4.33874,21.333185 -3.16389,6.780146 -7.86374,12.745343 -13.73994,16.632913 -5.8762,3.88757 -12.92575,5.69515 -20.33901,5.96645 -7.41325,0.27129 -15.18598,-0.99403 -21.15261,-3.16369 -5.96664,-2.16965 -10.12441,-5.24278 -13.650015,-9.94363 z"
       style="fill:none;fill-rule:evenodd;stroke:#000000;stroke-width:1px;stroke-linecap:butt;stroke-linejoin:miter;stroke-opacity:1" />
  </g>
</svg>
